<svg width="420" height="722" viewBox="0 0 420 722" fill="none" xmlns="http://www.w3.org/2000/svg">
<mask id="path-1-inside-1_255_7916" fill="white">
<path d="M420 600.028L328.029 692H0V141.664L109.664 32H420V600.028Z"/>
</mask>
<path d="M420 600.028L328.029 692H0V141.664L109.664 32H420V600.028Z" fill="#070708" fill-opacity="0.52"/>
<path d="M420 600.028L420.707 600.735L421 600.443V600.028H420ZM328.029 692V693H328.444L328.736 692.707L328.029 692ZM0 692H-1V693H0V692ZM0 141.664L-0.707107 140.957L-1 141.25V141.664H0ZM109.664 32V31H109.25L108.957 31.2929L109.664 32ZM420 32H421V31H420V32ZM420 600.028L419.293 599.321L327.322 691.293L328.029 692L328.736 692.707L420.707 600.735L420 600.028ZM328.029 692V691H0V692V693H328.029V692ZM0 692H1V141.664H0H-1V692H0ZM0 141.664L0.707107 142.371L110.371 32.7071L109.664 32L108.957 31.2929L-0.707107 140.957L0 141.664ZM109.664 32V33H420V32V31H109.664V32ZM420 32H419V600.028H420H421V32H420Z" fill="#66E0F8" mask="url(#path-1-inside-1_255_7916)"/>
<rect x="293.5" y="0.5" width="79" height="63" fill="white"/>
<rect x="293.5" y="0.5" width="79" height="63" stroke="#66E0F8"/>
<mask id="path-4-inside-2_255_7916" fill="white">
<path d="M276 700.405L254.406 722H76V683.933L97.9326 662H276V700.405Z"/>
</mask>
<path d="M276 700.405L254.406 722H76V683.933L97.9326 662H276V700.405Z" fill="white"/>
<path d="M276 700.405L276.707 701.112L277 700.819V700.405H276ZM254.406 722V723H254.82L255.113 722.707L254.406 722ZM76 722H75V723H76V722ZM76 683.933L75.2929 683.226L75 683.518V683.933H76ZM97.9326 662V661H97.5184L97.2255 661.293L97.9326 662ZM276 662H277V661H276V662ZM276 700.405L275.293 699.698L253.699 721.293L254.406 722L255.113 722.707L276.707 701.112L276 700.405ZM254.406 722V721H76V722V723H254.406V722ZM76 722H77V683.933H76H75V722H76ZM76 683.933L76.7071 684.64L98.6397 662.707L97.9326 662L97.2255 661.293L75.2929 683.226L76 683.933ZM97.9326 662V663H276V662V661H97.9326V662ZM276 662H275V700.405H276H277V662H276Z" fill="#66E0F8" mask="url(#path-4-inside-2_255_7916)"/>
<rect width="340" height="356" transform="translate(40 161)" fill="white" fill-opacity="0.08"/>
<path d="M42.52 194.69H40V161H73.69V163.52H42.52V194.69Z" fill="#CAE8F3" stroke="#1D1D1B" stroke-width="0.25" stroke-miterlimit="10"/>
<path d="M377.48 194.69H380V161H346.31V163.52H377.48V194.69Z" fill="#CAE8F3" stroke="#1D1D1B" stroke-width="0.25" stroke-miterlimit="10"/>
<path d="M377.48 483H380V516.69H346.31V514.17H377.48V483Z" fill="#CAE8F3" stroke="#1D1D1B" stroke-width="0.25" stroke-miterlimit="10"/>
<path d="M42.52 483H40V516.69H73.69V514.17H42.52V483Z" fill="#CAE8F3" stroke="#1D1D1B" stroke-width="0.25" stroke-miterlimit="10"/>
</svg>
