<svg width="440" height="710" viewBox="0 0 440 710" fill="none" xmlns="http://www.w3.org/2000/svg">
<mask id="path-1-inside-1_171_13464" fill="white">
<path d="M420 528.028L268.029 680H0V129.664L109.664 20H420V528.028Z"/>
</mask>
<path d="M420 528.028L268.029 680H0V129.664L109.664 20H420V528.028Z" fill="#070708" fill-opacity="0.52"/>
<path d="M420 528.028L420.707 528.735L421 528.443V528.028H420ZM268.029 680V681H268.444L268.736 680.707L268.029 680ZM0 680H-1V681H0V680ZM0 129.664L-0.707107 128.957L-1 129.25V129.664H0ZM109.664 20V19H109.25L108.957 19.2929L109.664 20ZM420 20H421V19H420V20ZM420 528.028L419.293 527.321L267.322 679.293L268.029 680L268.736 680.707L420.707 528.735L420 528.028ZM268.029 680V679H0V680V681H268.029V680ZM0 680H1V129.664H0H-1V680H0ZM0 129.664L0.707107 130.371L110.371 20.7071L109.664 20L108.957 19.2929L-0.707107 128.957L0 129.664ZM109.664 20V21H420V20V19H109.664V20ZM420 20H419V528.028H420H421V20H420Z" fill="#66E0F8" mask="url(#path-1-inside-1_171_13464)"/>
<path d="M132.88 601V597.96H138.56C139.547 597.96 140.347 597.667 140.96 597.08C141.573 596.493 141.88 595.787 141.88 594.96V591.6C141.88 590.8 141.667 590.16 141.24 589.68C140.84 589.173 140.227 588.92 139.4 588.92H138.6C136.627 588.92 135.067 588.347 133.92 587.2C132.773 586.027 132.2 584.333 132.2 582.12V581C132.2 577.32 133.827 575.133 137.08 574.44V569.8H140.48V574.2H144.72V577.24H139C138.013 577.24 137.213 577.533 136.6 578.12C135.987 578.707 135.68 579.413 135.68 580.24V582.88C135.68 583.707 135.947 584.4 136.48 584.96C137.013 585.493 137.707 585.76 138.56 585.76H139.36C141.253 585.76 142.72 586.307 143.76 587.4C144.827 588.493 145.36 590.147 145.36 592.36V594.2C145.36 596.04 144.933 597.52 144.08 598.64C143.253 599.733 142.053 600.453 140.48 600.8V605.4H137.08V601H132.88ZM158.522 598V576.16L152.882 578.24V575L158.122 573H161.922V598H166.282V601H153.282V598H158.522ZM173.443 579.8C173.443 577.613 174.043 575.933 175.243 574.76C176.443 573.587 177.95 573 179.763 573H181.163C182.976 573 184.483 573.587 185.683 574.76C186.883 575.933 187.483 577.613 187.483 579.8V594.2C187.483 596.467 186.87 598.173 185.643 599.32C184.443 600.44 182.683 601 180.363 601H175.763V597.96H180.763C181.75 597.96 182.55 597.667 183.163 597.08C183.776 596.493 184.083 595.787 184.083 594.96V590.6H180.163C177.87 590.6 176.176 590.093 175.083 589.08C173.99 588.067 173.443 586.44 173.443 584.2V579.8ZM184.083 579.04C184.083 578.187 183.803 577.467 183.243 576.88C182.683 576.293 181.923 576 180.963 576H179.963C179.003 576 178.243 576.293 177.683 576.88C177.123 577.467 176.843 578.187 176.843 579.04V584.96C176.843 585.787 177.083 586.44 177.563 586.92C178.07 587.373 178.803 587.6 179.763 587.6H184.083V579.04ZM203.205 597V601H199.205V597H203.205ZM215.046 579.8C215.046 577.613 215.646 575.933 216.846 574.76C218.046 573.587 219.553 573 221.366 573H222.766C224.58 573 226.086 573.587 227.286 574.76C228.486 575.933 229.086 577.613 229.086 579.8V594.2C229.086 596.467 228.473 598.173 227.246 599.32C226.046 600.44 224.286 601 221.966 601H217.366V597.96H222.366C223.353 597.96 224.153 597.667 224.766 597.08C225.38 596.493 225.686 595.787 225.686 594.96V590.6H221.766C219.473 590.6 217.78 590.093 216.686 589.08C215.593 588.067 215.046 586.44 215.046 584.2V579.8ZM225.686 579.04C225.686 578.187 225.406 577.467 224.846 576.88C224.286 576.293 223.526 576 222.566 576H221.566C220.606 576 219.846 576.293 219.286 576.88C218.726 577.467 218.446 578.187 218.446 579.04V584.96C218.446 585.787 218.686 586.44 219.166 586.92C219.673 587.373 220.406 587.6 221.366 587.6H225.686V579.04ZM235.848 579.8C235.848 577.613 236.448 575.933 237.648 574.76C238.848 573.587 240.354 573 242.168 573H243.568C245.381 573 246.888 573.587 248.088 574.76C249.288 575.933 249.888 577.613 249.888 579.8V594.2C249.888 596.467 249.274 598.173 248.048 599.32C246.848 600.44 245.088 601 242.768 601H238.168V597.96H243.168C244.154 597.96 244.954 597.667 245.568 597.08C246.181 596.493 246.488 595.787 246.488 594.96V590.6H242.568C240.274 590.6 238.581 590.093 237.488 589.08C236.394 588.067 235.848 586.44 235.848 584.2V579.8ZM246.488 579.04C246.488 578.187 246.208 577.467 245.648 576.88C245.088 576.293 244.328 576 243.368 576H242.368C241.408 576 240.648 576.293 240.088 576.88C239.528 577.467 239.248 578.187 239.248 579.04V584.96C239.248 585.787 239.488 586.44 239.968 586.92C240.474 587.373 241.208 587.6 242.168 587.6H246.488V579.04Z" fill="white"/>
<path d="M264.496 588.04H265.84L260.144 602.76H258.8L264.496 588.04ZM276.529 593V593.368C276.807 593.123 277.137 593 277.521 593H277.617C278.364 593 278.892 593.213 279.201 593.64C279.553 593.213 280.017 593 280.593 593H280.689C281.34 593 281.82 593.165 282.129 593.496C282.439 593.827 282.593 594.413 282.593 595.256V601H281.313V595.24C281.313 594.803 281.265 594.499 281.169 594.328C281.084 594.157 280.881 594.072 280.561 594.072H280.465C280.145 594.072 279.921 594.184 279.793 594.408C279.676 594.621 279.612 594.861 279.601 595.128V601H278.321V595.24C278.321 594.792 278.268 594.488 278.161 594.328C278.055 594.157 277.863 594.072 277.585 594.072H277.489C277.169 594.072 276.945 594.168 276.817 594.36C276.689 594.541 276.62 594.749 276.609 594.984V601H275.329V593H276.529ZM290.258 598.44C290.258 599.336 290.034 599.987 289.586 600.392C289.149 600.797 288.466 601 287.538 601H287.01C286.082 601 285.394 600.797 284.946 600.392C284.509 599.987 284.29 599.336 284.29 598.44V595.56C284.29 594.664 284.509 594.013 284.946 593.608C285.394 593.203 286.082 593 287.01 593H287.538C288.466 593 289.149 593.203 289.586 593.608C290.034 594.013 290.258 594.664 290.258 595.56V598.44ZM288.898 595.24C288.898 594.909 288.797 594.653 288.594 594.472C288.391 594.291 288.093 594.2 287.698 594.2H286.85C286.455 594.2 286.157 594.291 285.954 594.472C285.751 594.653 285.65 594.909 285.65 595.24V598.76C285.65 599.091 285.751 599.347 285.954 599.528C286.157 599.709 286.455 599.8 286.85 599.8H287.698C288.093 599.8 288.391 599.709 288.594 599.528C288.797 599.347 288.898 599.091 288.898 598.76V595.24Z" fill="white"/>
<rect x="324.5" y="0.5" width="115" height="63" fill="white"/>
<rect x="324.5" y="0.5" width="115" height="63" stroke="#66E0F8"/>
<path d="M374.321 29.54C374.321 30.728 374.005 31.608 373.375 32.18C372.744 32.7373 371.813 33.016 370.581 33.016H368.293V39H366.379V23.6H370.537C371.783 23.6 372.722 23.8787 373.353 24.436C373.998 24.9787 374.321 25.844 374.321 27.032V29.54ZM372.407 26.834C372.407 26.2767 372.275 25.8733 372.011 25.624C371.761 25.3747 371.358 25.25 370.801 25.25H368.293V31.366H370.801C371.358 31.366 371.761 31.2413 372.011 30.992C372.275 30.728 372.407 30.3173 372.407 29.76V26.834ZM379.514 32.62V39H377.6V23.6H381.736C382.982 23.6 383.921 23.8787 384.552 24.436C385.197 24.9787 385.52 25.844 385.52 27.032V29.144C385.52 30.8013 384.86 31.8353 383.54 32.246L386.598 39H384.508L381.67 32.62H379.514ZM383.606 26.834C383.606 26.2767 383.474 25.8733 383.21 25.624C382.96 25.3747 382.557 25.25 382 25.25H379.514V30.97H382C382.557 30.97 382.96 30.8453 383.21 30.596C383.474 30.332 383.606 29.9213 383.606 29.364V26.834ZM398.06 35.26C398.06 36.5067 397.716 37.4453 397.026 38.076C396.352 38.692 395.376 39 394.1 39H393.22C391.944 39 390.962 38.692 390.272 38.076C389.598 37.4453 389.26 36.5067 389.26 35.26V27.34C389.26 26.0933 389.598 25.162 390.272 24.546C390.962 23.9153 391.944 23.6 393.22 23.6H394.1C395.376 23.6 396.352 23.9153 397.026 24.546C397.716 25.162 398.06 26.0933 398.06 27.34V35.26ZM396.146 26.922C396.146 26.4673 395.978 26.0787 395.64 25.756C395.303 25.4333 394.863 25.272 394.32 25.272H393C392.458 25.272 392.018 25.4333 391.68 25.756C391.343 26.0787 391.174 26.4673 391.174 26.922V35.678C391.174 36.1327 391.343 36.5213 391.68 36.844C392.018 37.1667 392.458 37.328 393 37.328H394.32C394.863 37.328 395.303 37.1667 395.64 36.844C395.978 36.5213 396.146 36.1327 396.146 35.678V26.922Z" fill="#070708" fill-opacity="0.9"/>
<path d="M58.5083 132.54V121.46H56.7083V120H62.0483V121.46H60.2483V132.54H62.0483V134H56.7083V132.54H58.5083ZM73.5491 130.84C73.5491 131.987 73.2824 132.8 72.7491 133.28C72.2291 133.76 71.3624 134 70.1491 134H66.0291V120H69.9091C71.1091 120 72.0157 120.247 72.6291 120.74C73.2424 121.22 73.5491 122.013 73.5491 123.12V130.84ZM71.8091 122.94C71.8091 122.5 71.6757 122.153 71.4091 121.9C71.1424 121.633 70.7891 121.5 70.3491 121.5H67.7691V132.5H70.3291C70.8357 132.5 71.2091 132.387 71.4491 132.16C71.6891 131.92 71.8091 131.547 71.8091 131.04V122.94ZM83.5298 120V121.46H78.5898V126.04H83.0298V127.5H78.5898V132.54H83.5298V134H76.8498V120H83.5298ZM88.6506 130.46L87.8706 134H86.0906L89.4706 120H91.7706L95.0906 134H93.3106L92.5506 130.46H88.6506ZM92.2306 128.96L90.5906 121.32L88.9706 128.96H92.2306ZM99.6314 120V132.48H104.091V134H97.8914V120H99.6314ZM124.693 126.24V127.7H120.253V134H118.513V120H125.193V121.46H120.253V126.24H124.693ZM136.194 130.6C136.194 131.733 135.88 132.587 135.254 133.16C134.64 133.72 133.754 134 132.594 134H131.794C130.634 134 129.74 133.72 129.114 133.16C128.5 132.587 128.194 131.733 128.194 130.6V123.4C128.194 122.267 128.5 121.42 129.114 120.86C129.74 120.287 130.634 120 131.794 120H132.594C133.754 120 134.64 120.287 135.254 120.86C135.88 121.42 136.194 122.267 136.194 123.4V130.6ZM134.454 123.02C134.454 122.607 134.3 122.253 133.994 121.96C133.687 121.667 133.287 121.52 132.794 121.52H131.594C131.1 121.52 130.7 121.667 130.394 121.96C130.087 122.253 129.934 122.607 129.934 123.02V130.98C129.934 131.393 130.087 131.747 130.394 132.04C130.7 132.333 131.1 132.48 131.594 132.48H132.794C133.287 132.48 133.687 132.333 133.994 132.04C134.3 131.747 134.454 131.393 134.454 130.98V123.02ZM140.335 128.2V134H138.595V120H142.355C143.488 120 144.341 120.253 144.915 120.76C145.501 121.253 145.795 122.04 145.795 123.12V125.04C145.795 126.547 145.195 127.487 143.995 127.86L146.775 134H144.875L142.295 128.2H140.335ZM144.055 122.94C144.055 122.433 143.935 122.067 143.695 121.84C143.468 121.613 143.101 121.5 142.595 121.5H140.335V126.7H142.595C143.101 126.7 143.468 126.587 143.695 126.36C143.935 126.12 144.055 125.747 144.055 125.24V122.94ZM163.776 134C162.616 134 161.723 133.72 161.096 133.16C160.483 132.587 160.176 131.733 160.176 130.6V123.4C160.176 122.267 160.483 121.42 161.096 120.86C161.723 120.287 162.616 120 163.776 120H166.616V121.52H163.576C163.083 121.52 162.683 121.667 162.376 121.96C162.069 122.253 161.916 122.607 161.916 123.02V130.98C161.916 131.393 162.069 131.747 162.376 132.04C162.683 132.333 163.083 132.48 163.576 132.48H166.616V134H163.776ZM177.797 130.6C177.797 131.733 177.484 132.587 176.857 133.16C176.244 133.72 175.357 134 174.197 134H173.397C172.237 134 171.344 133.72 170.717 133.16C170.104 132.587 169.797 131.733 169.797 130.6V123.4C169.797 122.267 170.104 121.42 170.717 120.86C171.344 120.287 172.237 120 173.397 120H174.197C175.357 120 176.244 120.287 176.857 120.86C177.484 121.42 177.797 122.267 177.797 123.4V130.6ZM176.057 123.02C176.057 122.607 175.904 122.253 175.597 121.96C175.29 121.667 174.89 121.52 174.397 121.52H173.197C172.704 121.52 172.304 121.667 171.997 121.96C171.69 122.253 171.537 122.607 171.537 123.02V130.98C171.537 131.393 171.69 131.747 171.997 132.04C172.304 132.333 172.704 132.48 173.197 132.48H174.397C174.89 132.48 175.29 132.333 175.597 132.04C175.904 131.747 176.057 131.393 176.057 130.98V123.02ZM181.938 128.2V134H180.198V120H183.958C185.091 120 185.944 120.253 186.518 120.76C187.104 121.253 187.398 122.04 187.398 123.12V125.04C187.398 126.547 186.798 127.487 185.598 127.86L188.378 134H186.478L183.898 128.2H181.938ZM185.658 122.94C185.658 122.433 185.538 122.067 185.298 121.84C185.071 121.613 184.704 121.5 184.198 121.5H181.938V126.7H184.198C184.704 126.7 185.071 126.587 185.298 126.36C185.538 126.12 185.658 125.747 185.658 125.24V122.94ZM198.218 125.4C198.218 126.48 197.932 127.28 197.358 127.8C196.785 128.307 195.938 128.56 194.818 128.56H192.738V134H190.998V120H194.778C195.912 120 196.765 120.253 197.338 120.76C197.925 121.253 198.218 122.04 198.218 123.12V125.4ZM196.478 122.94C196.478 122.433 196.358 122.067 196.118 121.84C195.892 121.613 195.525 121.5 195.018 121.5H192.738V127.06H195.018C195.525 127.06 195.892 126.947 196.118 126.72C196.358 126.48 196.478 126.107 196.478 125.6V122.94ZM208.999 130.6C208.999 131.733 208.686 132.587 208.059 133.16C207.446 133.72 206.559 134 205.399 134H204.599C203.439 134 202.546 133.72 201.919 133.16C201.306 132.587 200.999 131.733 200.999 130.6V123.4C200.999 122.267 201.306 121.42 201.919 120.86C202.546 120.287 203.439 120 204.599 120H205.399C206.559 120 207.446 120.287 208.059 120.86C208.686 121.42 208.999 122.267 208.999 123.4V130.6ZM207.259 123.02C207.259 122.607 207.106 122.253 206.799 121.96C206.493 121.667 206.093 121.52 205.599 121.52H204.399C203.906 121.52 203.506 121.667 203.199 121.96C202.893 122.253 202.739 122.607 202.739 123.02V130.98C202.739 131.393 202.893 131.747 203.199 132.04C203.506 132.333 203.906 132.48 204.399 132.48H205.599C206.093 132.48 206.493 132.333 206.799 132.04C207.106 131.747 207.259 131.393 207.259 130.98V123.02ZM213.14 128.2V134H211.4V120H215.16C216.293 120 217.147 120.253 217.72 120.76C218.307 121.253 218.6 122.04 218.6 123.12V125.04C218.6 126.547 218 127.487 216.8 127.86L219.58 134H217.68L215.1 128.2H213.14ZM216.86 122.94C216.86 122.433 216.74 122.067 216.5 121.84C216.273 121.613 215.907 121.5 215.4 121.5H213.14V126.7H215.4C215.907 126.7 216.273 126.587 216.5 126.36C216.74 126.12 216.86 125.747 216.86 125.24V122.94ZM223.861 130.46L223.081 134H221.301L224.681 120H226.981L230.301 134H228.521L227.761 130.46H223.861ZM227.441 128.96L225.801 121.32L224.181 128.96H227.441ZM235.322 134V121.52H232.142V120H240.242V121.52H237.062V134H235.322ZM249.942 120V121.46H245.002V126.04H249.442V127.5H245.002V132.54H249.942V134H243.262V120H249.942ZM266.524 134V121.52H263.344V120H271.444V121.52H268.264V134H266.524ZM281.145 120V121.46H276.205V126.04H280.645V127.5H276.205V132.54H281.145V134H274.465V120H281.145ZM286.265 130.46L285.485 134H283.705L287.085 120H289.385L292.705 134H290.925L290.165 130.46H286.265ZM289.845 128.96L288.205 121.32L286.585 128.96H289.845ZM299.406 129.3H297.746L295.786 121.44V134H294.266V120H297.046L298.646 127.16L300.266 120H302.966V134H301.406V121.44L299.406 129.3ZM312.387 130.6C312.387 131.733 312.074 132.587 311.447 133.16C310.834 133.72 309.947 134 308.787 134H305.947V132.48H308.987C309.48 132.48 309.88 132.333 310.187 132.04C310.494 131.747 310.647 131.393 310.647 130.98V128.9C310.647 128.5 310.54 128.18 310.327 127.94C310.127 127.687 309.82 127.56 309.407 127.56H308.807C307.82 127.56 307.04 127.273 306.467 126.7C305.894 126.113 305.607 125.267 305.607 124.16V123.4C305.607 122.267 305.914 121.42 306.527 120.86C307.154 120.287 308.047 120 309.207 120H312.067V121.52H309.007C308.514 121.52 308.114 121.667 307.807 121.96C307.5 122.253 307.347 122.607 307.347 123.02V124.54C307.347 124.953 307.48 125.3 307.747 125.58C308.014 125.847 308.36 125.98 308.787 125.98H309.387C310.334 125.98 311.067 126.253 311.587 126.8C312.12 127.347 312.387 128.173 312.387 129.28V130.6ZM318.808 134V132H320.808V134L319.568 136.8H318.008L318.808 134ZM338.149 127.56V134H336.409V120H338.149V126.08H342.269V120H344.009V134H342.269V127.56H338.149ZM348.35 128.2V134H346.61V120H350.37C351.503 120 352.357 120.253 352.93 120.76C353.517 121.253 353.81 122.04 353.81 123.12V125.04C353.81 126.547 353.21 127.487 352.01 127.86L354.79 134H352.89L350.31 128.2H348.35ZM352.07 122.94C352.07 122.433 351.95 122.067 351.71 121.84C351.483 121.613 351.117 121.5 350.61 121.5H348.35V126.7H350.61C351.117 126.7 351.483 126.587 351.71 126.36C351.95 126.12 352.07 125.747 352.07 125.24V122.94ZM360.411 134V132H362.411V134L361.171 136.8H359.611L360.411 134ZM62.4487 154.46L61.6687 158H59.8887L63.2687 144H65.5687L68.8887 158H67.1087L66.3487 154.46H62.4487ZM66.0287 152.96L64.3887 145.32L62.7687 152.96H66.0287ZM72.5895 158H70.9695V144H73.8095L76.9695 156.52V144H78.5895V158H75.7295L72.5895 145.48V158ZM88.9502 154.84C88.9502 155.987 88.6836 156.8 88.1502 157.28C87.6302 157.76 86.7636 158 85.5502 158H81.4302V144H85.3102C86.5102 144 87.4169 144.247 88.0302 144.74C88.6436 145.22 88.9502 146.013 88.9502 147.12V154.84ZM87.2102 146.94C87.2102 146.5 87.0769 146.153 86.8102 145.9C86.5436 145.633 86.1902 145.5 85.7502 145.5H83.1702V156.5H85.7302C86.2369 156.5 86.6102 156.387 86.8502 156.16C87.0902 155.92 87.2102 155.547 87.2102 155.04V146.94ZM106.372 158C105.212 158 104.318 157.72 103.692 157.16C103.078 156.587 102.772 155.733 102.772 154.6V147.4C102.772 146.267 103.078 145.42 103.692 144.86C104.318 144.287 105.212 144 106.372 144H109.212V145.52H106.172C105.678 145.52 105.278 145.667 104.972 145.96C104.665 146.253 104.512 146.607 104.512 147.02V154.98C104.512 155.393 104.665 155.747 104.972 156.04C105.278 156.333 105.678 156.48 106.172 156.48H109.212V158H106.372ZM115.453 158V151.5L111.873 144H113.793L116.433 149.82L119.073 144H120.893L117.253 151.5V158H115.453ZM130.493 154.84C130.493 155.987 130.227 156.8 129.693 157.28C129.173 157.76 128.307 158 127.093 158H123.093V144H126.853C128.04 144 128.907 144.24 129.453 144.72C130.013 145.2 130.293 146 130.293 147.12V148.26C130.293 149.287 129.927 150.06 129.193 150.58C130.06 151.06 130.493 151.88 130.493 153.04V154.84ZM128.553 146.94C128.553 146.433 128.433 146.067 128.193 145.84C127.967 145.613 127.6 145.5 127.093 145.5H124.833V149.92H127.093C127.507 149.92 127.853 149.787 128.133 149.52C128.413 149.253 128.553 148.9 128.553 148.46V146.94ZM128.753 152.86C128.753 152.42 128.62 152.073 128.353 151.82C128.087 151.553 127.733 151.42 127.293 151.42H124.833V156.5H127.273C127.78 156.5 128.153 156.387 128.393 156.16C128.633 155.92 128.753 155.547 128.753 155.04V152.86ZM140.534 144V145.46H135.594V150.04H140.034V151.5H135.594V156.54H140.534V158H133.854V144H140.534ZM145.335 152.2V158H143.595V144H147.355C148.488 144 149.342 144.253 149.915 144.76C150.502 145.253 150.795 146.04 150.795 147.12V149.04C150.795 150.547 150.195 151.487 148.995 151.86L151.775 158H149.875L147.295 152.2H145.335ZM149.055 146.94C149.055 146.433 148.935 146.067 148.695 145.84C148.468 145.613 148.102 145.5 147.595 145.5H145.335V150.7H147.595C148.102 150.7 148.468 150.587 148.695 150.36C148.935 150.12 149.055 149.747 149.055 149.24V146.94ZM161.376 154.6C161.376 155.733 161.062 156.587 160.436 157.16C159.822 157.72 158.936 158 157.776 158H154.936V156.48H157.976C158.469 156.48 158.869 156.333 159.176 156.04C159.482 155.747 159.636 155.393 159.636 154.98V152.9C159.636 152.5 159.529 152.18 159.316 151.94C159.116 151.687 158.809 151.56 158.396 151.56H157.796C156.809 151.56 156.029 151.273 155.456 150.7C154.882 150.113 154.596 149.267 154.596 148.16V147.4C154.596 146.267 154.902 145.42 155.516 144.86C156.142 144.287 157.036 144 158.196 144H161.056V145.52H157.996C157.502 145.52 157.102 145.667 156.796 145.96C156.489 146.253 156.336 146.607 156.336 147.02V148.54C156.336 148.953 156.469 149.3 156.736 149.58C157.002 149.847 157.349 149.98 157.776 149.98H158.376C159.322 149.98 160.056 150.253 160.576 150.8C161.109 151.347 161.376 152.173 161.376 153.28V154.6ZM171.736 144V145.46H166.796V150.04H171.236V151.5H166.796V156.54H171.736V158H165.056V144H171.736ZM179.177 158C178.017 158 177.124 157.72 176.497 157.16C175.884 156.587 175.577 155.733 175.577 154.6V147.4C175.577 146.267 175.884 145.42 176.497 144.86C177.124 144.287 178.017 144 179.177 144H182.017V145.52H178.977C178.484 145.52 178.084 145.667 177.777 145.96C177.471 146.253 177.317 146.607 177.317 147.02V154.98C177.317 155.393 177.471 155.747 177.777 156.04C178.084 156.333 178.484 156.48 178.977 156.48H182.017V158H179.177ZM193.038 154.6C193.038 155.733 192.725 156.587 192.098 157.16C191.485 157.72 190.598 158 189.438 158H188.938C187.778 158 186.885 157.72 186.258 157.16C185.645 156.587 185.338 155.733 185.338 154.6V144H187.078V154.98C187.078 155.393 187.231 155.747 187.538 156.04C187.845 156.333 188.245 156.48 188.738 156.48H189.638C190.131 156.48 190.531 156.333 190.838 156.04C191.145 155.747 191.298 155.393 191.298 154.98V144H193.038V154.6ZM197.339 152.2V158H195.599V144H199.359C200.492 144 201.346 144.253 201.919 144.76C202.506 145.253 202.799 146.04 202.799 147.12V149.04C202.799 150.547 202.199 151.487 200.999 151.86L203.779 158H201.879L199.299 152.2H197.339ZM201.059 146.94C201.059 146.433 200.939 146.067 200.699 145.84C200.472 145.613 200.106 145.5 199.599 145.5H197.339V150.7H199.599C200.106 150.7 200.472 150.587 200.699 150.36C200.939 150.12 201.059 149.747 201.059 149.24V146.94ZM209.12 156.54V145.46H207.32V144H212.66V145.46H210.86V156.54H212.66V158H207.32V156.54H209.12ZM219.52 158V145.52H216.34V144H224.44V145.52H221.26V158H219.52ZM229.861 158V151.5L226.281 144H228.201L230.841 149.82L233.481 144H235.301L231.661 151.5V158H229.861ZM255.363 154.84C255.363 155.987 255.096 156.8 254.563 157.28C254.043 157.76 253.176 158 251.963 158H247.843V144H251.723C252.923 144 253.829 144.247 254.443 144.74C255.056 145.22 255.363 146.013 255.363 147.12V154.84ZM253.623 146.94C253.623 146.5 253.489 146.153 253.223 145.9C252.956 145.633 252.603 145.5 252.163 145.5H249.583V156.5H252.143C252.649 156.5 253.023 156.387 253.263 156.16C253.503 155.92 253.623 155.547 253.623 155.04V146.94ZM265.344 144V145.46H260.404V150.04H264.844V151.5H260.404V156.54H265.344V158H258.664V144H265.344ZM276.024 149.4C276.024 150.48 275.738 151.28 275.164 151.8C274.591 152.307 273.744 152.56 272.624 152.56H270.544V158H268.804V144H272.584C273.718 144 274.571 144.253 275.144 144.76C275.731 145.253 276.024 146.04 276.024 147.12V149.4ZM274.284 146.94C274.284 146.433 274.164 146.067 273.924 145.84C273.698 145.613 273.331 145.5 272.824 145.5H270.544V151.06H272.824C273.331 151.06 273.698 150.947 273.924 150.72C274.164 150.48 274.284 150.107 274.284 149.6V146.94ZM280.865 154.46L280.085 158H278.305L281.685 144H283.985L287.305 158H285.525L284.765 154.46H280.865ZM284.445 152.96L282.805 145.32L281.185 152.96H284.445ZM290.946 152.2V158H289.206V144H292.966C294.099 144 294.953 144.253 295.526 144.76C296.113 145.253 296.406 146.04 296.406 147.12V149.04C296.406 150.547 295.806 151.487 294.606 151.86L297.386 158H295.486L292.906 152.2H290.946ZM294.666 146.94C294.666 146.433 294.546 146.067 294.306 145.84C294.079 145.613 293.713 145.5 293.206 145.5H290.946V150.7H293.206C293.713 150.7 294.079 150.587 294.306 150.36C294.546 150.12 294.666 149.747 294.666 149.24V146.94ZM302.727 158V145.52H299.547V144H307.647V145.52H304.467V158H302.727ZM314.807 153.3H313.147L311.187 145.44V158H309.667V144H312.447L314.047 151.16L315.667 144H318.367V158H316.807V145.44L314.807 153.3ZM327.748 144V145.46H322.808V150.04H327.248V151.5H322.808V156.54H327.748V158H321.068V144H327.748ZM332.609 158H330.989V144H333.829L336.989 156.52V144H338.609V158H335.749L332.609 145.48V158ZM344.33 158V145.52H341.15V144H349.25V145.52H346.07V158H344.33ZM358.991 154.6C358.991 155.733 358.677 156.587 358.051 157.16C357.437 157.72 356.551 158 355.391 158H352.551V156.48H355.591C356.084 156.48 356.484 156.333 356.791 156.04C357.097 155.747 357.251 155.393 357.251 154.98V152.9C357.251 152.5 357.144 152.18 356.931 151.94C356.731 151.687 356.424 151.56 356.011 151.56H355.411C354.424 151.56 353.644 151.273 353.071 150.7C352.497 150.113 352.211 149.267 352.211 148.16V147.4C352.211 146.267 352.517 145.42 353.131 144.86C353.757 144.287 354.651 144 355.811 144H358.671V145.52H355.611C355.117 145.52 354.717 145.667 354.411 145.96C354.104 146.253 353.951 146.607 353.951 147.02V148.54C353.951 148.953 354.084 149.3 354.351 149.58C354.617 149.847 354.964 149.98 355.391 149.98H355.991C356.937 149.98 357.671 150.253 358.191 150.8C358.724 151.347 358.991 152.173 358.991 153.28V154.6Z" fill="white"/>
<rect width="340" height="356" transform="translate(40 184)" fill="white" fill-opacity="0.08"/>
<g filter="url(#filter2_df_171_13464)">
<path d="M98 229.991C93.2924 230.419 90.5877 230.813 88.9272 232.113C86.9757 233.635 86.5136 236.423 86 242C85.4693 236.218 84.99 233.447 82.8502 231.959C81.1897 230.795 78.5021 230.419 74 230.009C78.6904 229.581 81.4123 229.187 83.0556 227.904C85.0243 226.365 85.4864 223.594 86 218C86.4793 223.149 86.9073 225.903 88.4993 227.494C90.0913 229.085 92.8645 229.53 98 229.991Z" fill="white"/>
</g>
<path d="M114.64 228.792V229.96H111.088V235H109.696V223.8H115.04V224.968H111.088V228.792H114.64ZM122.193 234.632C121.841 234.877 121.414 235 120.913 235H120.369C119.505 235 118.859 234.797 118.433 234.392C118.017 233.987 117.809 233.336 117.809 232.44V227H119.169V232.76C119.169 233.08 119.259 233.336 119.441 233.528C119.633 233.709 119.889 233.8 120.209 233.8H121.073C121.414 233.8 121.665 233.715 121.825 233.544C121.995 233.373 122.091 233.181 122.113 232.968V227H123.473V235H122.193V234.632ZM129.473 235C129.111 235 128.791 234.872 128.513 234.616C128.247 234.36 128.113 233.955 128.113 233.4V225H125.761V223.8H129.473V233.32C129.473 233.491 129.516 233.613 129.601 233.688C129.687 233.763 129.831 233.8 130.033 233.8H132.161V235H129.473ZM137.794 235C137.431 235 137.111 234.872 136.834 234.616C136.567 234.36 136.434 233.955 136.434 233.4V225H134.082V223.8H137.794V233.32C137.794 233.491 137.837 233.613 137.922 233.688C138.007 233.763 138.151 233.8 138.354 233.8H140.482V235H137.794ZM156.275 235C156.136 235 155.982 234.957 155.811 234.872C155.651 234.787 155.512 234.669 155.395 234.52C155.15 234.84 154.824 235 154.419 235H152.995C152.184 235 151.592 234.84 151.219 234.52C150.856 234.189 150.675 233.629 150.675 232.84V232.52C150.675 230.867 151.454 230.04 153.011 230.04H154.995V229.24C154.995 228.909 154.894 228.653 154.691 228.472C154.488 228.291 154.19 228.2 153.795 228.2H151.315V227H153.635C154.563 227 155.246 227.203 155.683 227.608C156.131 228.013 156.355 228.664 156.355 229.56V233.4C156.355 233.56 156.414 233.683 156.531 233.768C156.659 233.843 156.867 233.88 157.155 233.88V235H156.275ZM154.259 233.8C154.579 233.8 154.782 233.725 154.867 233.576C154.952 233.427 154.995 233.235 154.995 233V231.24H152.995C152.718 231.24 152.488 231.331 152.307 231.512C152.126 231.693 152.035 231.923 152.035 232.2V233C152.035 233.277 152.099 233.48 152.227 233.608C152.355 233.736 152.558 233.8 152.835 233.8H154.259ZM162.564 235C161.625 235 160.937 234.803 160.5 234.408C160.062 234.003 159.844 233.347 159.844 232.44V229.56C159.844 228.664 160.062 228.013 160.5 227.608C160.948 227.203 161.636 227 162.564 227H164.628V228.2H162.404C162.009 228.2 161.71 228.291 161.508 228.472C161.305 228.653 161.204 228.909 161.204 229.24V232.76C161.204 233.091 161.305 233.347 161.508 233.528C161.71 233.709 162.009 233.8 162.404 233.8H164.628V235H162.564ZM170.884 235C169.946 235 169.258 234.803 168.82 234.408C168.383 234.003 168.164 233.347 168.164 232.44V229.56C168.164 228.664 168.383 228.013 168.82 227.608C169.268 227.203 169.956 227 170.884 227H172.948V228.2H170.724C170.33 228.2 170.031 228.291 169.828 228.472C169.626 228.653 169.524 228.909 169.524 229.24V232.76C169.524 233.091 169.626 233.347 169.828 233.528C170.031 233.709 170.33 233.8 170.724 233.8H172.948V235H170.884ZM178.789 235C177.85 235 177.162 234.803 176.725 234.408C176.288 234.003 176.069 233.347 176.069 232.44V229.56C176.069 228.643 176.266 227.987 176.661 227.592C177.056 227.197 177.712 227 178.629 227H179.381C180.138 227 180.709 227.213 181.093 227.64C181.488 228.056 181.685 228.669 181.685 229.48V231.56H177.429V232.76C177.429 233.091 177.53 233.347 177.733 233.528C177.936 233.709 178.234 233.8 178.629 233.8H181.173V235H178.789ZM180.357 229.16C180.357 228.883 180.266 228.653 180.085 228.472C179.904 228.291 179.674 228.2 179.397 228.2H178.469C178.085 228.2 177.813 228.291 177.653 228.472C177.504 228.643 177.429 228.899 177.429 229.24V230.36H180.357V229.16ZM189.638 233C189.638 233.672 189.43 234.173 189.014 234.504C188.608 234.835 188.016 235 187.238 235H184.854V233.8H187.398C187.686 233.8 187.904 233.741 188.054 233.624C188.203 233.496 188.278 233.315 188.278 233.08V232.232C188.278 231.752 188.048 231.512 187.59 231.512H186.998C186.251 231.512 185.691 231.352 185.318 231.032C184.955 230.701 184.774 230.184 184.774 229.48V229.016C184.774 228.301 184.976 227.789 185.382 227.48C185.787 227.16 186.384 227 187.174 227H189.318V228.2H187.014C186.747 228.2 186.534 228.264 186.374 228.392C186.214 228.509 186.134 228.685 186.134 228.92V229.496C186.134 229.741 186.203 229.923 186.342 230.04C186.491 230.157 186.678 230.216 186.902 230.216H187.446C188.16 230.216 188.704 230.392 189.078 230.744C189.451 231.085 189.638 231.597 189.638 232.28V233ZM197.958 233C197.958 233.672 197.75 234.173 197.334 234.504C196.929 234.835 196.337 235 195.558 235H193.174V233.8H195.718C196.006 233.8 196.225 233.741 196.374 233.624C196.524 233.496 196.598 233.315 196.598 233.08V232.232C196.598 231.752 196.369 231.512 195.91 231.512H195.318C194.572 231.512 194.012 231.352 193.638 231.032C193.276 230.701 193.094 230.184 193.094 229.48V229.016C193.094 228.301 193.297 227.789 193.702 227.48C194.108 227.16 194.705 227 195.494 227H197.638V228.2H195.334C195.068 228.2 194.854 228.264 194.694 228.392C194.534 228.509 194.454 228.685 194.454 228.92V229.496C194.454 229.741 194.524 229.923 194.662 230.04C194.812 230.157 194.998 230.216 195.222 230.216H195.766C196.481 230.216 197.025 230.392 197.398 230.744C197.772 231.085 197.958 231.597 197.958 232.28V233ZM212.76 235C212.216 235 211.8 234.824 211.512 234.472C211.224 234.12 211.08 233.656 211.08 233.08V228.2H209.56V227H211.08V225.08H212.44V227H214.776V228.2H212.44V233.16C212.44 233.395 212.498 233.56 212.616 233.656C212.733 233.752 212.914 233.8 213.16 233.8H214.776V235H212.76ZM223.464 232.44C223.464 233.336 223.24 233.987 222.792 234.392C222.355 234.797 221.672 235 220.744 235H220.216C219.288 235 218.6 234.797 218.152 234.392C217.715 233.987 217.496 233.336 217.496 232.44V229.56C217.496 228.664 217.715 228.013 218.152 227.608C218.6 227.203 219.288 227 220.216 227H220.744C221.672 227 222.355 227.203 222.792 227.608C223.24 228.013 223.464 228.664 223.464 229.56V232.44ZM222.104 229.24C222.104 228.909 222.003 228.653 221.8 228.472C221.597 228.291 221.299 228.2 220.904 228.2H220.056C219.661 228.2 219.363 228.291 219.16 228.472C218.957 228.653 218.856 228.909 218.856 229.24V232.76C218.856 233.091 218.957 233.347 219.16 233.528C219.363 233.709 219.661 233.8 220.056 233.8H220.904C221.299 233.8 221.597 233.709 221.8 233.528C222.003 233.347 222.104 233.091 222.104 232.76V229.24ZM239.481 235C239.343 235 239.188 234.957 239.017 234.872C238.857 234.787 238.719 234.669 238.601 234.52C238.356 234.84 238.031 235 237.625 235H236.201C235.391 235 234.799 234.84 234.425 234.52C234.063 234.189 233.881 233.629 233.881 232.84V232.52C233.881 230.867 234.66 230.04 236.217 230.04H238.201V229.24C238.201 228.909 238.1 228.653 237.897 228.472C237.695 228.291 237.396 228.2 237.001 228.2H234.521V227H236.841C237.769 227 238.452 227.203 238.889 227.608C239.337 228.013 239.561 228.664 239.561 229.56V233.4C239.561 233.56 239.62 233.683 239.737 233.768C239.865 233.843 240.073 233.88 240.361 233.88V235H239.481ZM237.465 233.8C237.785 233.8 237.988 233.725 238.073 233.576C238.159 233.427 238.201 233.235 238.201 233V231.24H236.201C235.924 231.24 235.695 231.331 235.513 231.512C235.332 231.693 235.241 231.923 235.241 232.2V233C235.241 233.277 235.305 233.48 235.433 233.608C235.561 233.736 235.764 233.8 236.041 233.8H237.465ZM245.962 235C245.599 235 245.279 234.872 245.002 234.616C244.735 234.36 244.602 233.955 244.602 233.4V225H242.25V223.8H245.962V233.32C245.962 233.491 246.005 233.613 246.09 233.688C246.175 233.763 246.319 233.8 246.522 233.8H248.65V235H245.962ZM254.283 235C253.92 235 253.6 234.872 253.323 234.616C253.056 234.36 252.923 233.955 252.923 233.4V225H250.571V223.8H254.283V233.32C254.283 233.491 254.325 233.613 254.411 233.688C254.496 233.763 254.64 233.8 254.843 233.8H256.971V235H254.283ZM272.844 233C272.844 233.672 272.636 234.173 272.22 234.504C271.815 234.835 271.223 235 270.444 235H268.06V233.8H270.604C270.892 233.8 271.111 233.741 271.26 233.624C271.409 233.496 271.484 233.315 271.484 233.08V232.232C271.484 231.752 271.255 231.512 270.796 231.512H270.204C269.457 231.512 268.897 231.352 268.524 231.032C268.161 230.701 267.98 230.184 267.98 229.48V229.016C267.98 228.301 268.183 227.789 268.588 227.48C268.993 227.16 269.591 227 270.38 227H272.524V228.2H270.22C269.953 228.2 269.74 228.264 269.58 228.392C269.42 228.509 269.34 228.685 269.34 228.92V229.496C269.34 229.741 269.409 229.923 269.548 230.04C269.697 230.157 269.884 230.216 270.108 230.216H270.652C271.367 230.216 271.911 230.392 272.284 230.744C272.657 231.085 272.844 231.597 272.844 232.28V233ZM279.053 235C278.114 235 277.426 234.803 276.989 234.408C276.551 234.003 276.333 233.347 276.333 232.44V229.56C276.333 228.664 276.551 228.013 276.989 227.608C277.437 227.203 278.125 227 279.053 227H281.117V228.2H278.893C278.498 228.2 278.199 228.291 277.997 228.472C277.794 228.653 277.693 228.909 277.693 229.24V232.76C277.693 233.091 277.794 233.347 277.997 233.528C278.199 233.709 278.498 233.8 278.893 233.8H281.117V235H279.053ZM286.957 235C286.018 235 285.33 234.803 284.893 234.408C284.456 234.003 284.237 233.347 284.237 232.44V229.56C284.237 228.643 284.434 227.987 284.829 227.592C285.224 227.197 285.88 227 286.797 227H287.549C288.306 227 288.877 227.213 289.261 227.64C289.656 228.056 289.853 228.669 289.853 229.48V231.56H285.597V232.76C285.597 233.091 285.698 233.347 285.901 233.528C286.104 233.709 286.402 233.8 286.797 233.8H289.341V235H286.957ZM288.525 229.16C288.525 228.883 288.434 228.653 288.253 228.472C288.072 228.291 287.842 228.2 287.565 228.2H286.637C286.253 228.2 285.981 228.291 285.821 228.472C285.672 228.643 285.597 228.899 285.597 229.24V230.36H288.525V229.16ZM293.726 227V227.384C294.056 227.128 294.483 227 295.006 227H295.742C296.606 227 297.246 227.203 297.662 227.608C298.088 228.013 298.302 228.664 298.302 229.56V235H296.942V229.24C296.942 228.92 296.846 228.669 296.654 228.488C296.472 228.296 296.222 228.2 295.902 228.2H294.846C294.494 228.2 294.232 228.296 294.062 228.488C293.891 228.669 293.806 228.867 293.806 229.08V235H292.446V227H293.726ZM306.046 235C305.908 235 305.753 234.957 305.582 234.872C305.422 234.787 305.284 234.669 305.166 234.52C304.921 234.84 304.596 235 304.19 235H302.766C301.956 235 301.364 234.84 300.99 234.52C300.628 234.189 300.446 233.629 300.446 232.84V232.52C300.446 230.867 301.225 230.04 302.782 230.04H304.766V229.24C304.766 228.909 304.665 228.653 304.462 228.472C304.26 228.291 303.961 228.2 303.566 228.2H301.086V227H303.406C304.334 227 305.017 227.203 305.454 227.608C305.902 228.013 306.126 228.664 306.126 229.56V233.4C306.126 233.56 306.185 233.683 306.302 233.768C306.43 233.843 306.638 233.88 306.926 233.88V235H306.046ZM304.03 233.8C304.35 233.8 304.553 233.725 304.638 233.576C304.724 233.427 304.766 233.235 304.766 233V231.24H302.766C302.489 231.24 302.26 231.331 302.078 231.512C301.897 231.693 301.806 231.923 301.806 232.2V233C301.806 233.277 301.87 233.48 301.998 233.608C302.126 233.736 302.329 233.8 302.606 233.8H304.03ZM310.463 233.8V228.2H309.295V227H311.743V227.432C312.095 227.144 312.522 227 313.023 227H314.671V228.28H312.863C312.522 228.28 312.266 228.392 312.095 228.616C311.924 228.829 311.834 229.048 311.823 229.272V233.8H313.567V235H309.295V233.8H310.463ZM321.088 223.8V225.24H319.568V223.8H321.088ZM317.296 228.2V227H321.008V233.8H323.376V235H319.648V228.2H317.296ZM331.632 232.44C331.632 233.336 331.408 233.987 330.96 234.392C330.523 234.797 329.84 235 328.912 235H328.384C327.456 235 326.768 234.797 326.32 234.392C325.883 233.987 325.664 233.336 325.664 232.44V229.56C325.664 228.664 325.883 228.013 326.32 227.608C326.768 227.203 327.456 227 328.384 227H328.912C329.84 227 330.523 227.203 330.96 227.608C331.408 228.013 331.632 228.664 331.632 229.56V232.44ZM330.272 229.24C330.272 228.909 330.171 228.653 329.968 228.472C329.766 228.291 329.467 228.2 329.072 228.2H328.224C327.83 228.2 327.531 228.291 327.328 228.472C327.126 228.653 327.024 228.909 327.024 229.24V232.76C327.024 233.091 327.126 233.347 327.328 233.528C327.531 233.709 327.83 233.8 328.224 233.8H329.072C329.467 233.8 329.766 233.709 329.968 233.528C330.171 233.347 330.272 233.091 330.272 232.76V229.24ZM339.409 233C339.409 233.672 339.201 234.173 338.785 234.504C338.38 234.835 337.788 235 337.009 235H334.625V233.8H337.169C337.457 233.8 337.676 233.741 337.825 233.624C337.974 233.496 338.049 233.315 338.049 233.08V232.232C338.049 231.752 337.82 231.512 337.361 231.512H336.769C336.022 231.512 335.462 231.352 335.089 231.032C334.726 230.701 334.545 230.184 334.545 229.48V229.016C334.545 228.301 334.748 227.789 335.153 227.48C335.558 227.16 336.156 227 336.945 227H339.089V228.2H336.785C336.518 228.2 336.305 228.264 336.145 228.392C335.985 228.509 335.905 228.685 335.905 228.92V229.496C335.905 229.741 335.974 229.923 336.113 230.04C336.262 230.157 336.449 230.216 336.673 230.216H337.217C337.932 230.216 338.476 230.392 338.849 230.744C339.222 231.085 339.409 231.597 339.409 232.28V233Z" fill="white"/>
<g filter="url(#filter3_df_171_13464)">
<path d="M98 265.991C93.2924 266.419 90.5877 266.813 88.9272 268.113C86.9757 269.635 86.5136 272.423 86 278C85.4693 272.218 84.99 269.447 82.8502 267.959C81.1897 266.795 78.5021 266.419 74 266.009C78.6904 265.581 81.4123 265.187 83.0556 263.904C85.0243 262.365 85.4864 259.594 86 254C86.4793 259.149 86.9073 261.903 88.4993 263.494C90.0913 265.085 92.8645 265.53 98 265.991Z" fill="white"/>
</g>
<path d="M112.96 267.24H111.632L110.064 260.952V271H108.848V259.8H111.072L112.352 265.528L113.648 259.8H115.808V271H114.56V260.952L112.96 267.24ZM122.193 270.632C121.841 270.877 121.414 271 120.913 271H120.369C119.505 271 118.859 270.797 118.433 270.392C118.017 269.987 117.809 269.336 117.809 268.44V263H119.169V268.76C119.169 269.08 119.259 269.336 119.441 269.528C119.633 269.709 119.889 269.8 120.209 269.8H121.073C121.414 269.8 121.665 269.715 121.825 269.544C121.995 269.373 122.091 269.181 122.113 268.968V263H123.473V271H122.193V270.632ZM129.473 271C129.111 271 128.791 270.872 128.513 270.616C128.247 270.36 128.113 269.955 128.113 269.4V261H125.761V259.8H129.473V269.32C129.473 269.491 129.516 269.613 129.601 269.688C129.687 269.763 129.831 269.8 130.033 269.8H132.161V271H129.473ZM137.874 271C137.33 271 136.914 270.824 136.626 270.472C136.338 270.12 136.194 269.656 136.194 269.08V264.2H134.674V263H136.194V261.08H137.554V263H139.89V264.2H137.554V269.16C137.554 269.395 137.613 269.56 137.73 269.656C137.847 269.752 138.029 269.8 138.274 269.8H139.89V271H137.874ZM146.355 259.8V261.24H144.835V259.8H146.355ZM142.563 264.2V263H146.275V269.8H148.643V271H144.915V264.2H142.563ZM152.275 263V263.384C152.606 263.128 153.032 263 153.555 263H154.131C155.07 263 155.758 263.203 156.195 263.608C156.632 264.003 156.851 264.653 156.851 265.56V268.44C156.851 269.336 156.627 269.987 156.179 270.392C155.742 270.797 155.059 271 154.131 271H152.355V273.72H150.995V263H152.275ZM153.395 264.2C153.043 264.2 152.782 264.296 152.611 264.488C152.44 264.669 152.355 264.867 152.355 265.08V269.8H154.291C154.686 269.8 154.984 269.709 155.187 269.528C155.39 269.347 155.491 269.091 155.491 268.76V265.24C155.491 264.909 155.39 264.653 155.187 264.472C154.984 264.291 154.686 264.2 154.291 264.2H153.395ZM162.756 271C162.393 271 162.073 270.872 161.796 270.616C161.529 270.36 161.396 269.955 161.396 269.4V261H159.044V259.8H162.756V269.32C162.756 269.491 162.798 269.613 162.884 269.688C162.969 269.763 163.113 269.8 163.316 269.8H165.444V271H162.756ZM170.468 271C169.53 271 168.842 270.803 168.404 270.408C167.967 270.003 167.748 269.347 167.748 268.44V265.56C167.748 264.643 167.946 263.987 168.34 263.592C168.735 263.197 169.391 263 170.308 263H171.06C171.818 263 172.388 263.213 172.772 263.64C173.167 264.056 173.364 264.669 173.364 265.48V267.56H169.108V268.76C169.108 269.091 169.21 269.347 169.412 269.528C169.615 269.709 169.914 269.8 170.308 269.8H172.852V271H170.468ZM172.036 265.16C172.036 264.883 171.946 264.653 171.764 264.472C171.583 264.291 171.354 264.2 171.076 264.2H170.148C169.764 264.2 169.492 264.291 169.332 264.472C169.183 264.643 169.108 264.899 169.108 265.24V266.36H172.036V265.16ZM185.654 269.8V264.2H184.486V263H186.934V263.432C187.286 263.144 187.712 263 188.214 263H189.862V264.28H188.054C187.712 264.28 187.456 264.392 187.286 264.616C187.115 264.829 187.024 265.048 187.014 265.272V269.8H188.758V271H184.486V269.8H185.654ZM198.502 268.44C198.502 269.336 198.278 269.987 197.83 270.392C197.393 270.797 196.71 271 195.782 271H195.254C194.326 271 193.638 270.797 193.19 270.392C192.753 269.987 192.534 269.336 192.534 268.44V265.56C192.534 264.664 192.753 264.013 193.19 263.608C193.638 263.203 194.326 263 195.254 263H195.782C196.71 263 197.393 263.203 197.83 263.608C198.278 264.013 198.502 264.664 198.502 265.56V268.44ZM197.142 265.24C197.142 264.909 197.041 264.653 196.838 264.472C196.636 264.291 196.337 264.2 195.942 264.2H195.094C194.7 264.2 194.401 264.291 194.198 264.472C193.996 264.653 193.894 264.909 193.894 265.24V268.76C193.894 269.091 193.996 269.347 194.198 269.528C194.401 269.709 194.7 269.8 195.094 269.8H195.942C196.337 269.8 196.636 269.709 196.838 269.528C197.041 269.347 197.142 269.091 197.142 268.76V265.24ZM204.359 271C203.996 271 203.676 270.872 203.399 270.616C203.132 270.36 202.999 269.955 202.999 269.4V261H200.647V259.8H204.359V269.32C204.359 269.491 204.402 269.613 204.487 269.688C204.572 269.763 204.716 269.8 204.919 269.8H207.047V271H204.359ZM212.072 271C211.133 271 210.445 270.803 210.008 270.408C209.57 270.003 209.352 269.347 209.352 268.44V265.56C209.352 264.643 209.549 263.987 209.944 263.592C210.338 263.197 210.994 263 211.912 263H212.664C213.421 263 213.992 263.213 214.376 263.64C214.77 264.056 214.968 264.669 214.968 265.48V267.56H210.712V268.76C210.712 269.091 210.813 269.347 211.016 269.528C211.218 269.709 211.517 269.8 211.912 269.8H214.456V271H212.072ZM213.64 265.16C213.64 264.883 213.549 264.653 213.368 264.472C213.186 264.291 212.957 264.2 212.68 264.2H211.752C211.368 264.2 211.096 264.291 210.936 264.472C210.786 264.643 210.712 264.899 210.712 265.24V266.36H213.64V265.16ZM222.92 269C222.92 269.672 222.712 270.173 222.296 270.504C221.891 270.835 221.299 271 220.52 271H218.136V269.8H220.68C220.968 269.8 221.187 269.741 221.336 269.624C221.485 269.496 221.56 269.315 221.56 269.08V268.232C221.56 267.752 221.331 267.512 220.872 267.512H220.28C219.533 267.512 218.973 267.352 218.6 267.032C218.237 266.701 218.056 266.184 218.056 265.48V265.016C218.056 264.301 218.259 263.789 218.664 263.48C219.069 263.16 219.667 263 220.456 263H222.6V264.2H220.296C220.029 264.2 219.816 264.264 219.656 264.392C219.496 264.509 219.416 264.685 219.416 264.92V265.496C219.416 265.741 219.485 265.923 219.624 266.04C219.773 266.157 219.96 266.216 220.184 266.216H220.728C221.443 266.216 221.987 266.392 222.36 266.744C222.733 267.085 222.92 267.597 222.92 268.28V269ZM235.481 263V263.384C235.812 263.128 236.239 263 236.761 263H237.337C238.276 263 238.964 263.203 239.401 263.608C239.839 264.003 240.057 264.653 240.057 265.56V268.44C240.057 269.336 239.833 269.987 239.385 270.392C238.948 270.797 238.265 271 237.337 271H235.561V273.72H234.201V263H235.481ZM236.601 264.2C236.249 264.2 235.988 264.296 235.817 264.488C235.647 264.669 235.561 264.867 235.561 265.08V269.8H237.497C237.892 269.8 238.191 269.709 238.393 269.528C238.596 269.347 238.697 269.091 238.697 268.76V265.24C238.697 264.909 238.596 264.653 238.393 264.472C238.191 264.291 237.892 264.2 237.497 264.2H236.601ZM245.354 271C244.415 271 243.727 270.803 243.29 270.408C242.853 270.003 242.634 269.347 242.634 268.44V265.56C242.634 264.643 242.831 263.987 243.226 263.592C243.621 263.197 244.277 263 245.194 263H245.946C246.703 263 247.274 263.213 247.658 263.64C248.053 264.056 248.25 264.669 248.25 265.48V267.56H243.994V268.76C243.994 269.091 244.095 269.347 244.298 269.528C244.501 269.709 244.799 269.8 245.194 269.8H247.738V271H245.354ZM246.922 265.16C246.922 264.883 246.831 264.653 246.65 264.472C246.469 264.291 246.239 264.2 245.962 264.2H245.034C244.65 264.2 244.378 264.291 244.218 264.472C244.069 264.643 243.994 264.899 243.994 265.24V266.36H246.922V265.16ZM252.219 269.8V264.2H251.051V263H253.499V263.432C253.851 263.144 254.277 263 254.779 263H256.427V264.28H254.619C254.277 264.28 254.021 264.392 253.851 264.616C253.68 264.829 253.589 265.048 253.579 265.272V269.8H255.323V271H251.051V269.8H252.219ZM271.964 270.632C271.612 270.877 271.185 271 270.684 271H270.14C269.276 271 268.631 270.797 268.204 270.392C267.788 269.987 267.58 269.336 267.58 268.44V263H268.94V268.76C268.94 269.08 269.031 269.336 269.212 269.528C269.404 269.709 269.66 269.8 269.98 269.8H270.844C271.185 269.8 271.436 269.715 271.596 269.544C271.767 269.373 271.863 269.181 271.884 268.968V263H273.244V271H271.964V270.632ZM281.165 269C281.165 269.672 280.957 270.173 280.541 270.504C280.135 270.835 279.543 271 278.765 271H276.381V269.8H278.925C279.213 269.8 279.431 269.741 279.581 269.624C279.73 269.496 279.805 269.315 279.805 269.08V268.232C279.805 267.752 279.575 267.512 279.117 267.512H278.525C277.778 267.512 277.218 267.352 276.845 267.032C276.482 266.701 276.301 266.184 276.301 265.48V265.016C276.301 264.301 276.503 263.789 276.909 263.48C277.314 263.16 277.911 263 278.701 263H280.845V264.2H278.541C278.274 264.2 278.061 264.264 277.901 264.392C277.741 264.509 277.661 264.685 277.661 264.92V265.496C277.661 265.741 277.73 265.923 277.869 266.04C278.018 266.157 278.205 266.216 278.429 266.216H278.973C279.687 266.216 280.231 266.392 280.605 266.744C280.978 267.085 281.165 267.597 281.165 268.28V269ZM286.957 271C286.018 271 285.33 270.803 284.893 270.408C284.456 270.003 284.237 269.347 284.237 268.44V265.56C284.237 264.643 284.434 263.987 284.829 263.592C285.224 263.197 285.88 263 286.797 263H287.549C288.306 263 288.877 263.213 289.261 263.64C289.656 264.056 289.853 264.669 289.853 265.48V267.56H285.597V268.76C285.597 269.091 285.698 269.347 285.901 269.528C286.104 269.709 286.402 269.8 286.797 269.8H289.341V271H286.957ZM288.525 265.16C288.525 264.883 288.434 264.653 288.253 264.472C288.072 264.291 287.842 264.2 287.565 264.2H286.637C286.253 264.2 285.981 264.291 285.821 264.472C285.672 264.643 285.597 264.899 285.597 265.24V266.36H288.525V265.16ZM293.822 269.8V264.2H292.654V263H295.102V263.432C295.454 263.144 295.88 263 296.382 263H298.03V264.28H296.222C295.88 264.28 295.624 264.392 295.454 264.616C295.283 264.829 295.192 265.048 295.182 265.272V269.8H296.926V271H292.654V269.8H293.822Z" fill="white"/>
<g filter="url(#filter4_df_171_13464)">
<path d="M98 301.991C93.2924 302.419 90.5877 302.813 88.9272 304.113C86.9757 305.635 86.5136 308.423 86 314C85.4693 308.218 84.99 305.447 82.8502 303.959C81.1897 302.795 78.5021 302.419 74 302.009C78.6904 301.581 81.4123 301.187 83.0556 299.904C85.0243 298.365 85.4864 295.594 86 290C86.4793 295.149 86.9073 297.903 88.4993 299.494C90.0913 301.085 92.8645 301.53 98 301.991Z" fill="white"/>
</g>
<path d="M111.616 307V297.016H109.072V295.8H115.552V297.016H113.008V307H111.616ZM120.545 307C119.606 307 118.918 306.803 118.481 306.408C118.043 306.003 117.825 305.347 117.825 304.44V301.56C117.825 300.643 118.022 299.987 118.417 299.592C118.811 299.197 119.467 299 120.385 299H121.137C121.894 299 122.465 299.213 122.849 299.64C123.243 300.056 123.441 300.669 123.441 301.48V303.56H119.185V304.76C119.185 305.091 119.286 305.347 119.489 305.528C119.691 305.709 119.99 305.8 120.385 305.8H122.929V307H120.545ZM122.113 301.16C122.113 300.883 122.022 300.653 121.841 300.472C121.659 300.291 121.43 300.2 121.153 300.2H120.225C119.841 300.2 119.569 300.291 119.409 300.472C119.259 300.643 119.185 300.899 119.185 301.24V302.36H122.113V301.16ZM131.313 307C131.175 307 131.02 306.957 130.849 306.872C130.689 306.787 130.551 306.669 130.433 306.52C130.188 306.84 129.863 307 129.457 307H128.033C127.223 307 126.631 306.84 126.257 306.52C125.895 306.189 125.713 305.629 125.713 304.84V304.52C125.713 302.867 126.492 302.04 128.049 302.04H130.033V301.24C130.033 300.909 129.932 300.653 129.729 300.472C129.527 300.291 129.228 300.2 128.833 300.2H126.353V299H128.673C129.601 299 130.284 299.203 130.721 299.608C131.169 300.013 131.393 300.664 131.393 301.56V305.4C131.393 305.56 131.452 305.683 131.569 305.768C131.697 305.843 131.905 305.88 132.193 305.88V307H131.313ZM129.297 305.8C129.617 305.8 129.82 305.725 129.905 305.576C129.991 305.427 130.033 305.235 130.033 305V303.24H128.033C127.756 303.24 127.527 303.331 127.345 303.512C127.164 303.693 127.073 303.923 127.073 304.2V305C127.073 305.277 127.137 305.48 127.265 305.608C127.393 305.736 127.596 305.8 127.873 305.8H129.297ZM134.85 299V299.368C135.127 299.123 135.458 299 135.842 299H135.938C136.685 299 137.213 299.213 137.522 299.64C137.874 299.213 138.338 299 138.914 299H139.01C139.661 299 140.141 299.165 140.45 299.496C140.759 299.827 140.914 300.413 140.914 301.256V307H139.634V301.24C139.634 300.803 139.586 300.499 139.49 300.328C139.405 300.157 139.202 300.072 138.882 300.072H138.786C138.466 300.072 138.242 300.184 138.114 300.408C137.997 300.621 137.933 300.861 137.922 301.128V307H136.642V301.24C136.642 300.792 136.589 300.488 136.482 300.328C136.375 300.157 136.183 300.072 135.906 300.072H135.81C135.49 300.072 135.266 300.168 135.138 300.36C135.01 300.541 134.941 300.749 134.93 300.984V307H133.65V299H134.85ZM151.491 299V299.368C151.768 299.123 152.099 299 152.483 299H152.579C153.326 299 153.854 299.213 154.163 299.64C154.515 299.213 154.979 299 155.555 299H155.651C156.302 299 156.782 299.165 157.091 299.496C157.4 299.827 157.555 300.413 157.555 301.256V307H156.275V301.24C156.275 300.803 156.227 300.499 156.131 300.328C156.046 300.157 155.843 300.072 155.523 300.072H155.427C155.107 300.072 154.883 300.184 154.755 300.408C154.638 300.621 154.574 300.861 154.563 301.128V307H153.283V301.24C153.283 300.792 153.23 300.488 153.123 300.328C153.016 300.157 152.824 300.072 152.547 300.072H152.451C152.131 300.072 151.907 300.168 151.779 300.36C151.651 300.541 151.582 300.749 151.571 300.984V307H150.291V299H151.491ZM165.22 304.44C165.22 305.336 164.996 305.987 164.548 306.392C164.11 306.797 163.428 307 162.5 307H161.972C161.044 307 160.356 306.797 159.908 306.392C159.47 305.987 159.252 305.336 159.252 304.44V301.56C159.252 300.664 159.47 300.013 159.908 299.608C160.356 299.203 161.044 299 161.972 299H162.5C163.428 299 164.11 299.203 164.548 299.608C164.996 300.013 165.22 300.664 165.22 301.56V304.44ZM163.86 301.24C163.86 300.909 163.758 300.653 163.556 300.472C163.353 300.291 163.054 300.2 162.66 300.2H161.812C161.417 300.2 161.118 300.291 160.916 300.472C160.713 300.653 160.612 300.909 160.612 301.24V304.76C160.612 305.091 160.713 305.347 160.916 305.528C161.118 305.709 161.417 305.8 161.812 305.8H162.66C163.054 305.8 163.353 305.709 163.556 305.528C163.758 305.347 163.86 305.091 163.86 304.76V301.24ZM172.244 306.632C171.892 306.877 171.466 307 170.964 307H170.308C169.37 307 168.682 306.803 168.244 306.408C167.807 306.003 167.588 305.347 167.588 304.44V301.56C167.588 300.664 167.807 300.013 168.244 299.608C168.692 299.203 169.38 299 170.308 299H172.164V295.8H173.524V307H172.244V306.632ZM171.124 305.8C171.476 305.8 171.738 305.709 171.908 305.528C172.079 305.336 172.164 305.133 172.164 304.92V300.2H170.148C169.754 300.2 169.455 300.291 169.252 300.472C169.05 300.653 168.948 300.909 168.948 301.24V304.76C168.948 305.091 169.05 305.347 169.252 305.528C169.455 305.709 169.754 305.8 170.148 305.8H171.124ZM178.789 307C177.85 307 177.162 306.803 176.725 306.408C176.288 306.003 176.069 305.347 176.069 304.44V301.56C176.069 300.643 176.266 299.987 176.661 299.592C177.056 299.197 177.712 299 178.629 299H179.381C180.138 299 180.709 299.213 181.093 299.64C181.488 300.056 181.685 300.669 181.685 301.48V303.56H177.429V304.76C177.429 305.091 177.53 305.347 177.733 305.528C177.936 305.709 178.234 305.8 178.629 305.8H181.173V307H178.789ZM180.357 301.16C180.357 300.883 180.266 300.653 180.085 300.472C179.904 300.291 179.674 300.2 179.397 300.2H178.469C178.085 300.2 177.813 300.291 177.653 300.472C177.504 300.643 177.429 300.899 177.429 301.24V302.36H180.357V301.16ZM195.558 302.984L194.694 307H193.206L191.766 299H193.126L194.038 305.352L195.094 300.44H196.134L197.094 305.352L198.006 299H199.286L197.862 307H196.326L195.558 302.984ZM204.599 295.8V297.24H203.079V295.8H204.599ZM200.807 300.2V299H204.519V305.8H206.887V307H203.159V300.2H200.807ZM212.76 307C212.216 307 211.8 306.824 211.512 306.472C211.224 306.12 211.08 305.656 211.08 305.08V300.2H209.56V299H211.08V297.08H212.44V299H214.776V300.2H212.44V305.16C212.44 305.395 212.498 305.56 212.616 305.656C212.733 305.752 212.914 305.8 213.16 305.8H214.776V307H212.76ZM218.92 295.8V299.32C219.24 299.107 219.64 299 220.12 299H220.856C221.72 299 222.36 299.203 222.776 299.608C223.203 300.013 223.416 300.664 223.416 301.56V307H222.056V301.24C222.056 300.92 221.96 300.669 221.768 300.488C221.587 300.296 221.336 300.2 221.016 300.2H219.96C219.619 300.2 219.363 300.291 219.192 300.472C219.021 300.643 218.931 300.829 218.92 301.032V307H217.56V295.8H218.92ZM237.881 295.8V297.24H236.361V295.8H237.881ZM234.089 300.2V299H237.801V305.8H240.169V307H236.441V300.2H234.089ZM243.018 299V299.368C243.295 299.123 243.626 299 244.01 299H244.106C244.853 299 245.381 299.213 245.69 299.64C246.042 299.213 246.506 299 247.082 299H247.178C247.829 299 248.309 299.165 248.618 299.496C248.927 299.827 249.082 300.413 249.082 301.256V307H247.802V301.24C247.802 300.803 247.754 300.499 247.658 300.328C247.573 300.157 247.37 300.072 247.05 300.072H246.954C246.634 300.072 246.41 300.184 246.282 300.408C246.165 300.621 246.101 300.861 246.09 301.128V307H244.81V301.24C244.81 300.792 244.757 300.488 244.65 300.328C244.543 300.157 244.351 300.072 244.074 300.072H243.978C243.658 300.072 243.434 300.168 243.306 300.36C243.178 300.541 243.109 300.749 243.098 300.984V307H241.818V299H243.018ZM252.123 299V299.384C252.453 299.128 252.88 299 253.403 299H253.979C254.917 299 255.605 299.203 256.043 299.608C256.48 300.003 256.699 300.653 256.699 301.56V304.44C256.699 305.336 256.475 305.987 256.027 306.392C255.589 306.797 254.907 307 253.979 307H252.203V309.72H250.843V299H252.123ZM253.243 300.2C252.891 300.2 252.629 300.296 252.459 300.488C252.288 300.669 252.203 300.867 252.203 301.08V305.8H254.139C254.533 305.8 254.832 305.709 255.035 305.528C255.237 305.347 255.339 305.091 255.339 304.76V301.24C255.339 300.909 255.237 300.653 255.035 300.472C254.832 300.291 254.533 300.2 254.139 300.2H253.243ZM264.443 307C264.305 307 264.15 306.957 263.979 306.872C263.819 306.787 263.681 306.669 263.563 306.52C263.318 306.84 262.993 307 262.587 307H261.163C260.353 307 259.761 306.84 259.387 306.52C259.025 306.189 258.843 305.629 258.843 304.84V304.52C258.843 302.867 259.622 302.04 261.179 302.04H263.163V301.24C263.163 300.909 263.062 300.653 262.859 300.472C262.657 300.291 262.358 300.2 261.963 300.2H259.483V299H261.803C262.731 299 263.414 299.203 263.851 299.608C264.299 300.013 264.523 300.664 264.523 301.56V305.4C264.523 305.56 264.582 305.683 264.699 305.768C264.827 305.843 265.035 305.88 265.323 305.88V307H264.443ZM262.427 305.8C262.747 305.8 262.95 305.725 263.035 305.576C263.121 305.427 263.163 305.235 263.163 305V303.24H261.163C260.886 303.24 260.657 303.331 260.475 303.512C260.294 303.693 260.203 303.923 260.203 304.2V305C260.203 305.277 260.267 305.48 260.395 305.608C260.523 305.736 260.726 305.8 261.003 305.8H262.427ZM270.732 307C269.793 307 269.105 306.803 268.668 306.408C268.231 306.003 268.012 305.347 268.012 304.44V301.56C268.012 300.664 268.231 300.013 268.668 299.608C269.116 299.203 269.804 299 270.732 299H272.796V300.2H270.572C270.177 300.2 269.879 300.291 269.676 300.472C269.473 300.653 269.372 300.909 269.372 301.24V304.76C269.372 305.091 269.473 305.347 269.676 305.528C269.879 305.709 270.177 305.8 270.572 305.8H272.796V307H270.732ZM279.325 307C278.781 307 278.365 306.824 278.077 306.472C277.789 306.12 277.645 305.656 277.645 305.08V300.2H276.125V299H277.645V297.08H279.005V299H281.341V300.2H279.005V305.16C279.005 305.395 279.063 305.56 279.181 305.656C279.298 305.752 279.479 305.8 279.725 305.8H281.341V307H279.325ZM297.726 307C297.587 307 297.432 306.957 297.262 306.872C297.102 306.787 296.963 306.669 296.846 306.52C296.6 306.84 296.275 307 295.87 307H294.446C293.635 307 293.043 306.84 292.67 306.52C292.307 306.189 292.126 305.629 292.126 304.84V304.52C292.126 302.867 292.904 302.04 294.462 302.04H296.446V301.24C296.446 300.909 296.344 300.653 296.142 300.472C295.939 300.291 295.64 300.2 295.246 300.2H292.766V299H295.086C296.014 299 296.696 299.203 297.134 299.608C297.582 300.013 297.806 300.664 297.806 301.56V305.4C297.806 305.56 297.864 305.683 297.982 305.768C298.11 305.843 298.318 305.88 298.606 305.88V307H297.726ZM295.71 305.8C296.03 305.8 296.232 305.725 296.318 305.576C296.403 305.427 296.446 305.235 296.446 305V303.24H294.446C294.168 303.24 293.939 303.331 293.758 303.512C293.576 303.693 293.486 303.923 293.486 304.2V305C293.486 305.277 293.55 305.48 293.678 305.608C293.806 305.736 294.008 305.8 294.286 305.8H295.71ZM302.046 299V299.384C302.377 299.128 302.804 299 303.326 299H304.062C304.926 299 305.566 299.203 305.982 299.608C306.409 300.013 306.622 300.664 306.622 301.56V307H305.262V301.24C305.262 300.92 305.166 300.669 304.974 300.488C304.793 300.296 304.542 300.2 304.222 300.2H303.166C302.814 300.2 302.553 300.296 302.382 300.488C302.212 300.669 302.126 300.867 302.126 301.08V307H300.766V299H302.046ZM314.367 307C314.228 307 314.074 306.957 313.903 306.872C313.743 306.787 313.604 306.669 313.487 306.52C313.242 306.84 312.916 307 312.511 307H311.087C310.276 307 309.684 306.84 309.311 306.52C308.948 306.189 308.767 305.629 308.767 304.84V304.52C308.767 302.867 309.546 302.04 311.103 302.04H313.087V301.24C313.087 300.909 312.986 300.653 312.783 300.472C312.58 300.291 312.282 300.2 311.887 300.2H309.407V299H311.727C312.655 299 313.338 299.203 313.775 299.608C314.223 300.013 314.447 300.664 314.447 301.56V305.4C314.447 305.56 314.506 305.683 314.623 305.768C314.751 305.843 314.959 305.88 315.247 305.88V307H314.367ZM312.351 305.8C312.671 305.8 312.874 305.725 312.959 305.576C313.044 305.427 313.087 305.235 313.087 305V303.24H311.087C310.81 303.24 310.58 303.331 310.399 303.512C310.218 303.693 310.127 303.923 310.127 304.2V305C310.127 305.277 310.191 305.48 310.319 305.608C310.447 305.736 310.65 305.8 310.927 305.8H312.351ZM320.848 307C320.485 307 320.165 306.872 319.888 306.616C319.621 306.36 319.488 305.955 319.488 305.4V297H317.136V295.8H320.848V305.32C320.848 305.491 320.89 305.613 320.976 305.688C321.061 305.763 321.205 305.8 321.408 305.8H323.536V307H320.848ZM327.216 308.52C327.472 308.52 327.664 308.472 327.792 308.376C327.92 308.28 328.016 308.115 328.08 307.88L328.304 307H327.984L325.344 299H326.816L328.816 305.704L330.56 299H331.952L329.472 307.864C329.334 308.408 329.163 308.813 328.96 309.08C328.758 309.347 328.528 309.517 328.272 309.592C328.027 309.677 327.707 309.72 327.312 309.72H326.544V308.52H327.216ZM339.409 305C339.409 305.672 339.201 306.173 338.785 306.504C338.38 306.835 337.788 307 337.009 307H334.625V305.8H337.169C337.457 305.8 337.676 305.741 337.825 305.624C337.974 305.496 338.049 305.315 338.049 305.08V304.232C338.049 303.752 337.82 303.512 337.361 303.512H336.769C336.022 303.512 335.462 303.352 335.089 303.032C334.726 302.701 334.545 302.184 334.545 301.48V301.016C334.545 300.301 334.748 299.789 335.153 299.48C335.558 299.16 336.156 299 336.945 299H339.089V300.2H336.785C336.518 300.2 336.305 300.264 336.145 300.392C335.985 300.509 335.905 300.685 335.905 300.92V301.496C335.905 301.741 335.974 301.923 336.113 302.04C336.262 302.157 336.449 302.216 336.673 302.216H337.217C337.932 302.216 338.476 302.392 338.849 302.744C339.222 303.085 339.409 303.597 339.409 304.28V305ZM346.049 295.8V297.24H344.529V295.8H346.049ZM342.257 300.2V299H345.969V305.8H348.337V307H344.609V300.2H342.257ZM356.05 305C356.05 305.672 355.842 306.173 355.426 306.504C355.021 306.835 354.429 307 353.65 307H351.266V305.8H353.81C354.098 305.8 354.317 305.741 354.466 305.624C354.615 305.496 354.69 305.315 354.69 305.08V304.232C354.69 303.752 354.461 303.512 354.002 303.512H353.41C352.663 303.512 352.103 303.352 351.73 303.032C351.367 302.701 351.186 302.184 351.186 301.48V301.016C351.186 300.301 351.389 299.789 351.794 299.48C352.199 299.16 352.797 299 353.586 299H355.73V300.2H353.426C353.159 300.2 352.946 300.264 352.786 300.392C352.626 300.509 352.546 300.685 352.546 300.92V301.496C352.546 301.741 352.615 301.923 352.754 302.04C352.903 302.157 353.09 302.216 353.314 302.216H353.858C354.573 302.216 355.117 302.392 355.49 302.744C355.863 303.085 356.05 303.597 356.05 304.28V305Z" fill="white"/>
<g filter="url(#filter5_df_171_13464)">
<path d="M98 349.991C93.2924 350.419 90.5877 350.813 88.9272 352.113C86.9757 353.635 86.5136 356.423 86 362C85.4693 356.218 84.99 353.447 82.8502 351.959C81.1897 350.795 78.5021 350.419 74 350.009C78.6904 349.581 81.4123 349.187 83.0556 347.904C85.0243 346.365 85.4864 343.594 86 338C86.4793 343.149 86.9073 345.903 88.4993 347.494C90.0913 349.085 92.8645 349.53 98 349.991Z" fill="white"/>
</g>
<path d="M111.616 341.832V332.968H110.176V331.8H114.448V332.968H113.008V341.832H114.448V343H110.176V341.832H111.616ZM118.993 335V335.384C119.323 335.128 119.75 335 120.273 335H121.009C121.873 335 122.513 335.203 122.929 335.608C123.355 336.013 123.569 336.664 123.569 337.56V343H122.209V337.24C122.209 336.92 122.113 336.669 121.921 336.488C121.739 336.296 121.489 336.2 121.169 336.2H120.113C119.761 336.2 119.499 336.296 119.329 336.488C119.158 336.669 119.073 336.867 119.073 337.08V343H117.713V335H118.993ZM130.641 342.632C130.289 342.877 129.863 343 129.361 343H128.705C127.767 343 127.079 342.803 126.641 342.408C126.204 342.003 125.985 341.347 125.985 340.44V337.56C125.985 336.664 126.204 336.013 126.641 335.608C127.089 335.203 127.777 335 128.705 335H130.561V331.8H131.921V343H130.641V342.632ZM129.521 341.8C129.873 341.8 130.135 341.709 130.305 341.528C130.476 341.336 130.561 341.133 130.561 340.92V336.2H128.545C128.151 336.2 127.852 336.291 127.649 336.472C127.447 336.653 127.345 336.909 127.345 337.24V340.76C127.345 341.091 127.447 341.347 127.649 341.528C127.852 341.709 128.151 341.8 128.545 341.8H129.521ZM138.034 331.8V333.24H136.514V331.8H138.034ZM134.242 336.2V335H137.954V341.8H140.322V343H136.594V336.2H134.242ZM142.307 335H143.779L145.651 341.896L147.475 335H148.899L146.595 343H144.627L142.307 335ZM154.675 331.8V333.24H153.155V331.8H154.675ZM150.883 336.2V335H154.595V341.8H156.963V343H153.235V336.2H150.883ZM163.924 342.632C163.572 342.877 163.145 343 162.644 343H161.988C161.049 343 160.361 342.803 159.924 342.408C159.486 342.003 159.268 341.347 159.268 340.44V337.56C159.268 336.664 159.486 336.013 159.924 335.608C160.372 335.203 161.06 335 161.988 335H163.844V331.8H165.204V343H163.924V342.632ZM162.804 341.8C163.156 341.8 163.417 341.709 163.588 341.528C163.758 341.336 163.844 341.133 163.844 340.92V336.2H161.828C161.433 336.2 161.134 336.291 160.932 336.472C160.729 336.653 160.628 336.909 160.628 337.24V340.76C160.628 341.091 160.729 341.347 160.932 341.528C161.134 341.709 161.433 341.8 161.828 341.8H162.804ZM172.116 342.632C171.764 342.877 171.338 343 170.836 343H170.292C169.428 343 168.783 342.797 168.356 342.392C167.94 341.987 167.732 341.336 167.732 340.44V335H169.092V340.76C169.092 341.08 169.183 341.336 169.364 341.528C169.556 341.709 169.812 341.8 170.132 341.8H170.996C171.338 341.8 171.588 341.715 171.748 341.544C171.919 341.373 172.015 341.181 172.036 340.968V335H173.396V343H172.116V342.632ZM181.237 343C181.098 343 180.944 342.957 180.773 342.872C180.613 342.787 180.474 342.669 180.357 342.52C180.112 342.84 179.786 343 179.381 343H177.957C177.146 343 176.554 342.84 176.181 342.52C175.818 342.189 175.637 341.629 175.637 340.84V340.52C175.637 338.867 176.416 338.04 177.973 338.04H179.957V337.24C179.957 336.909 179.856 336.653 179.653 336.472C179.45 336.291 179.152 336.2 178.757 336.2H176.277V335H178.597C179.525 335 180.208 335.203 180.645 335.608C181.093 336.013 181.317 336.664 181.317 337.56V341.4C181.317 341.56 181.376 341.683 181.493 341.768C181.621 341.843 181.829 341.88 182.117 341.88V343H181.237ZM179.221 341.8C179.541 341.8 179.744 341.725 179.829 341.576C179.914 341.427 179.957 341.235 179.957 341V339.24H177.957C177.68 339.24 177.45 339.331 177.269 339.512C177.088 339.693 176.997 339.923 176.997 340.2V341C176.997 341.277 177.061 341.48 177.189 341.608C177.317 341.736 177.52 341.8 177.797 341.8H179.221ZM187.718 343C187.355 343 187.035 342.872 186.758 342.616C186.491 342.36 186.358 341.955 186.358 341.4V333H184.006V331.8H187.718V341.32C187.718 341.491 187.76 341.613 187.846 341.688C187.931 341.763 188.075 341.8 188.278 341.8H190.406V343H187.718ZM202.199 335V335.384C202.53 335.128 202.956 335 203.479 335H204.055C204.994 335 205.682 335.203 206.119 335.608C206.556 336.003 206.775 336.653 206.775 337.56V340.44C206.775 341.336 206.551 341.987 206.103 342.392C205.666 342.797 204.983 343 204.055 343H202.279V345.72H200.919V335H202.199ZM203.319 336.2C202.967 336.2 202.706 336.296 202.535 336.488C202.364 336.669 202.279 336.867 202.279 337.08V341.8H204.215C204.61 341.8 204.908 341.709 205.111 341.528C205.314 341.347 205.415 341.091 205.415 340.76V337.24C205.415 336.909 205.314 336.653 205.111 336.472C204.908 336.291 204.61 336.2 204.215 336.2H203.319ZM210.616 341.8V336.2H209.448V335H211.896V335.432C212.248 335.144 212.674 335 213.176 335H214.824V336.28H213.016C212.674 336.28 212.418 336.392 212.248 336.616C212.077 336.829 211.986 337.048 211.976 337.272V341.8H213.72V343H209.448V341.8H210.616ZM223.464 340.44C223.464 341.336 223.24 341.987 222.792 342.392C222.355 342.797 221.672 343 220.744 343H220.216C219.288 343 218.6 342.797 218.152 342.392C217.715 341.987 217.496 341.336 217.496 340.44V337.56C217.496 336.664 217.715 336.013 218.152 335.608C218.6 335.203 219.288 335 220.216 335H220.744C221.672 335 222.355 335.203 222.792 335.608C223.24 336.013 223.464 336.664 223.464 337.56V340.44ZM222.104 337.24C222.104 336.909 222.003 336.653 221.8 336.472C221.597 336.291 221.299 336.2 220.904 336.2H220.056C219.661 336.2 219.363 336.291 219.16 336.472C218.957 336.653 218.856 336.909 218.856 337.24V340.76C218.856 341.091 218.957 341.347 219.16 341.528C219.363 341.709 219.661 341.8 220.056 341.8H220.904C221.299 341.8 221.597 341.709 221.8 341.528C222.003 341.347 222.104 341.091 222.104 340.76V337.24ZM231.961 343.56C231.961 344.285 231.742 344.824 231.305 345.176C230.878 345.539 230.206 345.72 229.289 345.72H225.961V344.52H229.449C229.833 344.52 230.121 344.445 230.313 344.296C230.505 344.147 230.601 343.955 230.601 343.72V343.208C230.601 342.963 230.505 342.771 230.313 342.632C230.121 342.483 229.833 342.408 229.449 342.408H226.681V340.2C226.329 340.008 226.067 339.731 225.897 339.368C225.726 339.005 225.641 338.536 225.641 337.96V337.56C225.641 336.664 225.859 336.013 226.297 335.608C226.745 335.203 227.433 335 228.361 335H231.721V337.96C231.721 338.76 231.502 339.389 231.065 339.848C230.627 340.296 230.046 340.52 229.321 340.52H228.041V341.208H229.289C230.206 341.208 230.878 341.389 231.305 341.752C231.742 342.104 231.961 342.643 231.961 343.368V343.56ZM229.321 339.32C229.651 339.32 229.902 339.213 230.073 339C230.243 338.787 230.339 338.563 230.361 338.328V336.2H228.201C227.806 336.2 227.507 336.291 227.305 336.472C227.102 336.653 227.001 336.909 227.001 337.24V338.28C227.001 338.611 227.102 338.867 227.305 339.048C227.507 339.229 227.806 339.32 228.201 339.32H229.321ZM235.577 341.8V336.2H234.409V335H236.857V335.432C237.209 335.144 237.636 335 238.137 335H239.785V336.28H237.977C237.636 336.28 237.38 336.392 237.209 336.616C237.039 336.829 236.948 337.048 236.937 337.272V341.8H238.681V343H234.409V341.8H235.577ZM245.354 343C244.415 343 243.727 342.803 243.29 342.408C242.853 342.003 242.634 341.347 242.634 340.44V337.56C242.634 336.643 242.831 335.987 243.226 335.592C243.621 335.197 244.277 335 245.194 335H245.946C246.703 335 247.274 335.213 247.658 335.64C248.053 336.056 248.25 336.669 248.25 337.48V339.56H243.994V340.76C243.994 341.091 244.095 341.347 244.298 341.528C244.501 341.709 244.799 341.8 245.194 341.8H247.738V343H245.354ZM246.922 337.16C246.922 336.883 246.831 336.653 246.65 336.472C246.469 336.291 246.239 336.2 245.962 336.2H245.034C244.65 336.2 244.378 336.291 244.218 336.472C244.069 336.643 243.994 336.899 243.994 337.24V338.36H246.922V337.16ZM256.203 341C256.203 341.672 255.995 342.173 255.579 342.504C255.173 342.835 254.581 343 253.803 343H251.419V341.8H253.963C254.251 341.8 254.469 341.741 254.619 341.624C254.768 341.496 254.843 341.315 254.843 341.08V340.232C254.843 339.752 254.613 339.512 254.155 339.512H253.563C252.816 339.512 252.256 339.352 251.883 339.032C251.52 338.701 251.339 338.184 251.339 337.48V337.016C251.339 336.301 251.541 335.789 251.947 335.48C252.352 335.16 252.949 335 253.739 335H255.883V336.2H253.579C253.312 336.2 253.099 336.264 252.939 336.392C252.779 336.509 252.699 336.685 252.699 336.92V337.496C252.699 337.741 252.768 337.923 252.907 338.04C253.056 338.157 253.243 338.216 253.467 338.216H254.011C254.725 338.216 255.269 338.392 255.643 338.744C256.016 339.085 256.203 339.597 256.203 340.28V341ZM264.523 341C264.523 341.672 264.315 342.173 263.899 342.504C263.494 342.835 262.902 343 262.123 343H259.739V341.8H262.283C262.571 341.8 262.79 341.741 262.939 341.624C263.089 341.496 263.163 341.315 263.163 341.08V340.232C263.163 339.752 262.934 339.512 262.475 339.512H261.883C261.137 339.512 260.577 339.352 260.203 339.032C259.841 338.701 259.659 338.184 259.659 337.48V337.016C259.659 336.301 259.862 335.789 260.267 335.48C260.673 335.16 261.27 335 262.059 335H264.203V336.2H261.899C261.633 336.2 261.419 336.264 261.259 336.392C261.099 336.509 261.019 336.685 261.019 336.92V337.496C261.019 337.741 261.089 337.923 261.227 338.04C261.377 338.157 261.563 338.216 261.787 338.216H262.331C263.046 338.216 263.59 338.392 263.963 338.744C264.337 339.085 264.523 339.597 264.523 340.28V341ZM279.325 343C278.781 343 278.365 342.824 278.077 342.472C277.789 342.12 277.645 341.656 277.645 341.08V336.2H276.125V335H277.645V333.08H279.005V335H281.341V336.2H279.005V341.16C279.005 341.395 279.063 341.56 279.181 341.656C279.298 341.752 279.479 341.8 279.725 341.8H281.341V343H279.325ZM285.501 341.8V336.2H284.333V335H286.781V335.432C287.133 335.144 287.56 335 288.061 335H289.709V336.28H287.901C287.56 336.28 287.304 336.392 287.133 336.616C286.962 336.829 286.872 337.048 286.861 337.272V341.8H288.605V343H284.333V341.8H285.501ZM297.726 343C297.587 343 297.432 342.957 297.262 342.872C297.102 342.787 296.963 342.669 296.846 342.52C296.6 342.84 296.275 343 295.87 343H294.446C293.635 343 293.043 342.84 292.67 342.52C292.307 342.189 292.126 341.629 292.126 340.84V340.52C292.126 338.867 292.904 338.04 294.462 338.04H296.446V337.24C296.446 336.909 296.344 336.653 296.142 336.472C295.939 336.291 295.64 336.2 295.246 336.2H292.766V335H295.086C296.014 335 296.696 335.203 297.134 335.608C297.582 336.013 297.806 336.664 297.806 337.56V341.4C297.806 341.56 297.864 341.683 297.982 341.768C298.11 341.843 298.318 341.88 298.606 341.88V343H297.726ZM295.71 341.8C296.03 341.8 296.232 341.725 296.318 341.576C296.403 341.427 296.446 341.235 296.446 341V339.24H294.446C294.168 339.24 293.939 339.331 293.758 339.512C293.576 339.693 293.486 339.923 293.486 340.2V341C293.486 341.277 293.55 341.48 293.678 341.608C293.806 341.736 294.008 341.8 294.286 341.8H295.71ZM304.014 343C303.076 343 302.388 342.803 301.95 342.408C301.513 342.003 301.294 341.347 301.294 340.44V337.56C301.294 336.664 301.513 336.013 301.95 335.608C302.398 335.203 303.086 335 304.014 335H306.078V336.2H303.854C303.46 336.2 303.161 336.291 302.958 336.472C302.756 336.653 302.654 336.909 302.654 337.24V340.76C302.654 341.091 302.756 341.347 302.958 341.528C303.161 341.709 303.46 341.8 303.854 341.8H306.078V343H304.014ZM310.591 339.576V343H309.231V331.8H310.591V337.848L313.103 335H314.815L312.031 338.152L315.039 343H313.359L311.007 339.096L310.591 339.576ZM321.088 331.8V333.24H319.568V331.8H321.088ZM317.296 336.2V335H321.008V341.8H323.376V343H319.648V336.2H317.296ZM327.008 335V335.384C327.339 335.128 327.766 335 328.288 335H329.024C329.888 335 330.528 335.203 330.944 335.608C331.371 336.013 331.584 336.664 331.584 337.56V343H330.224V337.24C330.224 336.92 330.128 336.669 329.936 336.488C329.755 336.296 329.504 336.2 329.184 336.2H328.128C327.776 336.2 327.515 336.296 327.344 336.488C327.174 336.669 327.088 336.867 327.088 337.08V343H325.728V335H327.008ZM340.129 343.56C340.129 344.285 339.91 344.824 339.473 345.176C339.046 345.539 338.374 345.72 337.457 345.72H334.129V344.52H337.617C338.001 344.52 338.289 344.445 338.481 344.296C338.673 344.147 338.769 343.955 338.769 343.72V343.208C338.769 342.963 338.673 342.771 338.481 342.632C338.289 342.483 338.001 342.408 337.617 342.408H334.849V340.2C334.497 340.008 334.236 339.731 334.065 339.368C333.894 339.005 333.809 338.536 333.809 337.96V337.56C333.809 336.664 334.028 336.013 334.465 335.608C334.913 335.203 335.601 335 336.529 335H339.889V337.96C339.889 338.76 339.67 339.389 339.233 339.848C338.796 340.296 338.214 340.52 337.489 340.52H336.209V341.208H337.457C338.374 341.208 339.046 341.389 339.473 341.752C339.91 342.104 340.129 342.643 340.129 343.368V343.56ZM337.489 339.32C337.82 339.32 338.07 339.213 338.241 339C338.412 338.787 338.508 338.563 338.529 338.328V336.2H336.369C335.974 336.2 335.676 336.291 335.473 336.472C335.27 336.653 335.169 336.909 335.169 337.24V338.28C335.169 338.611 335.27 338.867 335.473 339.048C335.676 339.229 335.974 339.32 336.369 339.32H337.489ZM114.672 367C114.533 367 114.379 366.957 114.208 366.872C114.048 366.787 113.909 366.669 113.792 366.52C113.547 366.84 113.221 367 112.816 367H111.392C110.581 367 109.989 366.84 109.616 366.52C109.253 366.189 109.072 365.629 109.072 364.84V364.52C109.072 362.867 109.851 362.04 111.408 362.04H113.392V361.24C113.392 360.909 113.291 360.653 113.088 360.472C112.885 360.291 112.587 360.2 112.192 360.2H109.712V359H112.032C112.96 359 113.643 359.203 114.08 359.608C114.528 360.013 114.752 360.664 114.752 361.56V365.4C114.752 365.56 114.811 365.683 114.928 365.768C115.056 365.843 115.264 365.88 115.552 365.88V367H114.672ZM112.656 365.8C112.976 365.8 113.179 365.725 113.264 365.576C113.349 365.427 113.392 365.235 113.392 365V363.24H111.392C111.115 363.24 110.885 363.331 110.704 363.512C110.523 363.693 110.432 363.923 110.432 364.2V365C110.432 365.277 110.496 365.48 110.624 365.608C110.752 365.736 110.955 365.8 111.232 365.8H112.656ZM118.993 359V359.384C119.323 359.128 119.75 359 120.273 359H121.009C121.873 359 122.513 359.203 122.929 359.608C123.355 360.013 123.569 360.664 123.569 361.56V367H122.209V361.24C122.209 360.92 122.113 360.669 121.921 360.488C121.739 360.296 121.489 360.2 121.169 360.2H120.113C119.761 360.2 119.499 360.296 119.329 360.488C119.158 360.669 119.073 360.867 119.073 361.08V367H117.713V359H118.993ZM130.641 366.632C130.289 366.877 129.863 367 129.361 367H128.705C127.767 367 127.079 366.803 126.641 366.408C126.204 366.003 125.985 365.347 125.985 364.44V361.56C125.985 360.664 126.204 360.013 126.641 359.608C127.089 359.203 127.777 359 128.705 359H130.561V355.8H131.921V367H130.641V366.632ZM129.521 365.8C129.873 365.8 130.135 365.709 130.305 365.528C130.476 365.336 130.561 365.133 130.561 364.92V360.2H128.545C128.151 360.2 127.852 360.291 127.649 360.472C127.447 360.653 127.345 360.909 127.345 361.24V364.76C127.345 365.091 127.447 365.347 127.649 365.528C127.852 365.709 128.151 365.8 128.545 365.8H129.521ZM144.051 365.8V360.2H142.883V359H145.331V359.432C145.683 359.144 146.109 359 146.611 359H148.259V360.28H146.451C146.109 360.28 145.853 360.392 145.683 360.616C145.512 360.829 145.421 361.048 145.411 361.272V365.8H147.155V367H142.883V365.8H144.051ZM153.827 367C152.888 367 152.2 366.803 151.763 366.408C151.326 366.003 151.107 365.347 151.107 364.44V361.56C151.107 360.643 151.304 359.987 151.699 359.592C152.094 359.197 152.75 359 153.667 359H154.419C155.176 359 155.747 359.213 156.131 359.64C156.526 360.056 156.723 360.669 156.723 361.48V363.56H152.467V364.76C152.467 365.091 152.568 365.347 152.771 365.528C152.974 365.709 153.272 365.8 153.667 365.8H156.211V367H153.827ZM155.395 361.16C155.395 360.883 155.304 360.653 155.123 360.472C154.942 360.291 154.712 360.2 154.435 360.2H153.507C153.123 360.2 152.851 360.291 152.691 360.472C152.542 360.643 152.467 360.899 152.467 361.24V362.36H155.395V361.16ZM160.596 359V359.384C160.926 359.128 161.353 359 161.876 359H162.452C163.39 359 164.078 359.203 164.516 359.608C164.953 360.003 165.172 360.653 165.172 361.56V364.44C165.172 365.336 164.948 365.987 164.5 366.392C164.062 366.797 163.38 367 162.452 367H160.676V369.72H159.316V359H160.596ZM161.716 360.2C161.364 360.2 161.102 360.296 160.932 360.488C160.761 360.669 160.676 360.867 160.676 361.08V365.8H162.612C163.006 365.8 163.305 365.709 163.508 365.528C163.71 365.347 163.812 365.091 163.812 364.76V361.24C163.812 360.909 163.71 360.653 163.508 360.472C163.305 360.291 163.006 360.2 162.612 360.2H161.716ZM173.54 364.44C173.54 365.336 173.316 365.987 172.868 366.392C172.431 366.797 171.748 367 170.82 367H170.292C169.364 367 168.676 366.797 168.228 366.392C167.791 365.987 167.572 365.336 167.572 364.44V361.56C167.572 360.664 167.791 360.013 168.228 359.608C168.676 359.203 169.364 359 170.292 359H170.82C171.748 359 172.431 359.203 172.868 359.608C173.316 360.013 173.54 360.664 173.54 361.56V364.44ZM172.18 361.24C172.18 360.909 172.079 360.653 171.876 360.472C171.674 360.291 171.375 360.2 170.98 360.2H170.132C169.738 360.2 169.439 360.291 169.236 360.472C169.034 360.653 168.932 360.909 168.932 361.24V364.76C168.932 365.091 169.034 365.347 169.236 365.528C169.439 365.709 169.738 365.8 170.132 365.8H170.98C171.375 365.8 171.674 365.709 171.876 365.528C172.079 365.347 172.18 365.091 172.18 364.76V361.24ZM177.333 365.8V360.2H176.165V359H178.613V359.432C178.965 359.144 179.392 359 179.893 359H181.541V360.28H179.733C179.392 360.28 179.136 360.392 178.965 360.616C178.794 360.829 178.704 361.048 178.693 361.272V365.8H180.437V367H176.165V365.8H177.333ZM187.798 367C187.254 367 186.838 366.824 186.55 366.472C186.262 366.12 186.118 365.656 186.118 365.08V360.2H184.598V359H186.118V357.08H187.478V359H189.814V360.2H187.478V365.16C187.478 365.395 187.536 365.56 187.654 365.656C187.771 365.752 187.952 365.8 188.198 365.8H189.814V367H187.798ZM197.958 365C197.958 365.672 197.75 366.173 197.334 366.504C196.929 366.835 196.337 367 195.558 367H193.174V365.8H195.718C196.006 365.8 196.225 365.741 196.374 365.624C196.524 365.496 196.598 365.315 196.598 365.08V364.232C196.598 363.752 196.369 363.512 195.91 363.512H195.318C194.572 363.512 194.012 363.352 193.638 363.032C193.276 362.701 193.094 362.184 193.094 361.48V361.016C193.094 360.301 193.297 359.789 193.702 359.48C194.108 359.16 194.705 359 195.494 359H197.638V360.2H195.334C195.068 360.2 194.854 360.264 194.694 360.392C194.534 360.509 194.454 360.685 194.454 360.92V361.496C194.454 361.741 194.524 361.923 194.662 362.04C194.812 362.157 194.998 362.216 195.222 362.216H195.766C196.481 362.216 197.025 362.392 197.398 362.744C197.772 363.085 197.958 363.597 197.958 364.28V365Z" fill="white"/>
<g filter="url(#filter6_df_171_13464)">
<path d="M98 397.991C93.2924 398.419 90.5877 398.813 88.9272 400.113C86.9757 401.635 86.5136 404.423 86 410C85.4693 404.218 84.99 401.447 82.8502 399.959C81.1897 398.795 78.5021 398.419 74 398.009C78.6904 397.581 81.4123 397.187 83.0556 395.904C85.0243 394.365 85.4864 391.594 86 386C86.4793 391.149 86.9073 393.903 88.4993 395.494C90.0913 397.085 92.8645 397.53 98 397.991Z" fill="white"/>
</g>
<path d="M115.28 400.472C115.28 401.389 115.067 402.04 114.64 402.424C114.224 402.808 113.531 403 112.56 403H109.36V391.8H112.368C113.317 391.8 114.011 391.992 114.448 392.376C114.896 392.76 115.12 393.4 115.12 394.296V395.208C115.12 396.029 114.827 396.648 114.24 397.064C114.933 397.448 115.28 398.104 115.28 399.032V400.472ZM113.728 394.152C113.728 393.747 113.632 393.453 113.44 393.272C113.259 393.091 112.965 393 112.56 393H110.752V396.536H112.56C112.891 396.536 113.168 396.429 113.392 396.216C113.616 396.003 113.728 395.72 113.728 395.368V394.152ZM113.888 398.888C113.888 398.536 113.781 398.259 113.568 398.056C113.355 397.843 113.072 397.736 112.72 397.736H110.752V401.8H112.704C113.109 401.8 113.408 401.709 113.6 401.528C113.792 401.336 113.888 401.037 113.888 400.632V398.888ZM122.993 403C122.854 403 122.699 402.957 122.529 402.872C122.369 402.787 122.23 402.669 122.113 402.52C121.867 402.84 121.542 403 121.137 403H119.713C118.902 403 118.31 402.84 117.937 402.52C117.574 402.189 117.393 401.629 117.393 400.84V400.52C117.393 398.867 118.171 398.04 119.729 398.04H121.713V397.24C121.713 396.909 121.611 396.653 121.409 396.472C121.206 396.291 120.907 396.2 120.513 396.2H118.033V395H120.353C121.281 395 121.963 395.203 122.401 395.608C122.849 396.013 123.073 396.664 123.073 397.56V401.4C123.073 401.56 123.131 401.683 123.249 401.768C123.377 401.843 123.585 401.88 123.873 401.88V403H122.993ZM120.977 401.8C121.297 401.8 121.499 401.725 121.585 401.576C121.67 401.427 121.713 401.235 121.713 401V399.24H119.713C119.435 399.24 119.206 399.331 119.025 399.512C118.843 399.693 118.753 399.923 118.753 400.2V401C118.753 401.277 118.817 401.48 118.945 401.608C119.073 401.736 119.275 401.8 119.553 401.8H120.977ZM131.393 401C131.393 401.672 131.185 402.173 130.769 402.504C130.364 402.835 129.772 403 128.993 403H126.609V401.8H129.153C129.441 401.8 129.66 401.741 129.809 401.624C129.959 401.496 130.033 401.315 130.033 401.08V400.232C130.033 399.752 129.804 399.512 129.345 399.512H128.753C128.007 399.512 127.447 399.352 127.073 399.032C126.711 398.701 126.529 398.184 126.529 397.48V397.016C126.529 396.301 126.732 395.789 127.137 395.48C127.543 395.16 128.14 395 128.929 395H131.073V396.2H128.769C128.503 396.2 128.289 396.264 128.129 396.392C127.969 396.509 127.889 396.685 127.889 396.92V397.496C127.889 397.741 127.959 397.923 128.097 398.04C128.247 398.157 128.433 398.216 128.657 398.216H129.201C129.916 398.216 130.46 398.392 130.833 398.744C131.207 399.085 131.393 399.597 131.393 400.28V401ZM138.034 391.8V393.24H136.514V391.8H138.034ZM134.242 396.2V395H137.954V401.8H140.322V403H136.594V396.2H134.242ZM145.923 403C144.984 403 144.296 402.803 143.859 402.408C143.421 402.003 143.203 401.347 143.203 400.44V397.56C143.203 396.664 143.421 396.013 143.859 395.608C144.307 395.203 144.995 395 145.923 395H147.987V396.2H145.763C145.368 396.2 145.069 396.291 144.867 396.472C144.664 396.653 144.563 396.909 144.563 397.24V400.76C144.563 401.091 144.664 401.347 144.867 401.528C145.069 401.709 145.368 401.8 145.763 401.8H147.987V403H145.923ZM163.924 402.632C163.572 402.877 163.145 403 162.644 403H161.988C161.049 403 160.361 402.803 159.924 402.408C159.486 402.003 159.268 401.347 159.268 400.44V397.56C159.268 396.664 159.486 396.013 159.924 395.608C160.372 395.203 161.06 395 161.988 395H163.844V391.8H165.204V403H163.924V402.632ZM162.804 401.8C163.156 401.8 163.417 401.709 163.588 401.528C163.758 401.336 163.844 401.133 163.844 400.92V396.2H161.828C161.433 396.2 161.134 396.291 160.932 396.472C160.729 396.653 160.628 396.909 160.628 397.24V400.76C160.628 401.091 160.729 401.347 160.932 401.528C161.134 401.709 161.433 401.8 161.828 401.8H162.804ZM170.468 403C169.53 403 168.842 402.803 168.404 402.408C167.967 402.003 167.748 401.347 167.748 400.44V397.56C167.748 396.643 167.946 395.987 168.34 395.592C168.735 395.197 169.391 395 170.308 395H171.06C171.818 395 172.388 395.213 172.772 395.64C173.167 396.056 173.364 396.669 173.364 397.48V399.56H169.108V400.76C169.108 401.091 169.21 401.347 169.412 401.528C169.615 401.709 169.914 401.8 170.308 401.8H172.852V403H170.468ZM172.036 397.16C172.036 396.883 171.946 396.653 171.764 396.472C171.583 396.291 171.354 396.2 171.076 396.2H170.148C169.764 396.2 169.492 396.291 169.332 396.472C169.183 396.643 169.108 396.899 169.108 397.24V398.36H172.036V397.16ZM179.205 403C178.266 403 177.578 402.803 177.141 402.408C176.704 402.003 176.485 401.347 176.485 400.44V397.56C176.485 396.664 176.704 396.013 177.141 395.608C177.589 395.203 178.277 395 179.205 395H181.269V396.2H179.045C178.65 396.2 178.352 396.291 178.149 396.472C177.946 396.653 177.845 396.909 177.845 397.24V400.76C177.845 401.091 177.946 401.347 178.149 401.528C178.352 401.709 178.65 401.8 179.045 401.8H181.269V403H179.205ZM187.958 391.8V393.24H186.438V391.8H187.958ZM184.166 396.2V395H187.878V401.8H190.246V403H186.518V396.2H184.166ZM197.958 401C197.958 401.672 197.75 402.173 197.334 402.504C196.929 402.835 196.337 403 195.558 403H193.174V401.8H195.718C196.006 401.8 196.225 401.741 196.374 401.624C196.524 401.496 196.598 401.315 196.598 401.08V400.232C196.598 399.752 196.369 399.512 195.91 399.512H195.318C194.572 399.512 194.012 399.352 193.638 399.032C193.276 398.701 193.094 398.184 193.094 397.48V397.016C193.094 396.301 193.297 395.789 193.702 395.48C194.108 395.16 194.705 395 195.494 395H197.638V396.2H195.334C195.068 396.2 194.854 396.264 194.694 396.392C194.534 396.509 194.454 396.685 194.454 396.92V397.496C194.454 397.741 194.524 397.923 194.662 398.04C194.812 398.157 194.998 398.216 195.222 398.216H195.766C196.481 398.216 197.025 398.392 197.398 398.744C197.772 399.085 197.958 399.597 197.958 400.28V401ZM204.599 391.8V393.24H203.079V391.8H204.599ZM200.807 396.2V395H204.519V401.8H206.887V403H203.159V396.2H200.807ZM215.144 400.44C215.144 401.336 214.92 401.987 214.472 402.392C214.034 402.797 213.352 403 212.424 403H211.896C210.968 403 210.28 402.797 209.832 402.392C209.394 401.987 209.176 401.336 209.176 400.44V397.56C209.176 396.664 209.394 396.013 209.832 395.608C210.28 395.203 210.968 395 211.896 395H212.424C213.352 395 214.034 395.203 214.472 395.608C214.92 396.013 215.144 396.664 215.144 397.56V400.44ZM213.784 397.24C213.784 396.909 213.682 396.653 213.48 396.472C213.277 396.291 212.978 396.2 212.584 396.2H211.736C211.341 396.2 211.042 396.291 210.84 396.472C210.637 396.653 210.536 396.909 210.536 397.24V400.76C210.536 401.091 210.637 401.347 210.84 401.528C211.042 401.709 211.341 401.8 211.736 401.8H212.584C212.978 401.8 213.277 401.709 213.48 401.528C213.682 401.347 213.784 401.091 213.784 400.76V397.24ZM218.84 395V395.384C219.171 395.128 219.597 395 220.12 395H220.856C221.72 395 222.36 395.203 222.776 395.608C223.203 396.013 223.416 396.664 223.416 397.56V403H222.056V397.24C222.056 396.92 221.96 396.669 221.768 396.488C221.587 396.296 221.336 396.2 221.016 396.2H219.96C219.608 396.2 219.347 396.296 219.176 396.488C219.005 396.669 218.92 396.867 218.92 397.08V403H217.56V395H218.84ZM239.481 403C239.343 403 239.188 402.957 239.017 402.872C238.857 402.787 238.719 402.669 238.601 402.52C238.356 402.84 238.031 403 237.625 403H236.201C235.391 403 234.799 402.84 234.425 402.52C234.063 402.189 233.881 401.629 233.881 400.84V400.52C233.881 398.867 234.66 398.04 236.217 398.04H238.201V397.24C238.201 396.909 238.1 396.653 237.897 396.472C237.695 396.291 237.396 396.2 237.001 396.2H234.521V395H236.841C237.769 395 238.452 395.203 238.889 395.608C239.337 396.013 239.561 396.664 239.561 397.56V401.4C239.561 401.56 239.62 401.683 239.737 401.768C239.865 401.843 240.073 401.88 240.361 401.88V403H239.481ZM237.465 401.8C237.785 401.8 237.988 401.725 238.073 401.576C238.159 401.427 238.201 401.235 238.201 401V399.24H236.201C235.924 399.24 235.695 399.331 235.513 399.512C235.332 399.693 235.241 399.923 235.241 400.2V401C235.241 401.277 235.305 401.48 235.433 401.608C235.561 401.736 235.764 401.8 236.041 401.8H237.465ZM243.802 395V395.384C244.133 395.128 244.559 395 245.082 395H245.818C246.682 395 247.322 395.203 247.738 395.608C248.165 396.013 248.378 396.664 248.378 397.56V403H247.018V397.24C247.018 396.92 246.922 396.669 246.73 396.488C246.549 396.296 246.298 396.2 245.978 396.2H244.922C244.57 396.2 244.309 396.296 244.138 396.488C243.967 396.669 243.882 396.867 243.882 397.08V403H242.522V395H243.802ZM256.123 403C255.984 403 255.829 402.957 255.659 402.872C255.499 402.787 255.36 402.669 255.243 402.52C254.997 402.84 254.672 403 254.267 403H252.843C252.032 403 251.44 402.84 251.067 402.52C250.704 402.189 250.523 401.629 250.523 400.84V400.52C250.523 398.867 251.301 398.04 252.859 398.04H254.843V397.24C254.843 396.909 254.741 396.653 254.539 396.472C254.336 396.291 254.037 396.2 253.643 396.2H251.163V395H253.483C254.411 395 255.093 395.203 255.531 395.608C255.979 396.013 256.203 396.664 256.203 397.56V401.4C256.203 401.56 256.261 401.683 256.379 401.768C256.507 401.843 256.715 401.88 257.003 401.88V403H256.123ZM254.107 401.8C254.427 401.8 254.629 401.725 254.715 401.576C254.8 401.427 254.843 401.235 254.843 401V399.24H252.843C252.565 399.24 252.336 399.331 252.155 399.512C251.973 399.693 251.883 399.923 251.883 400.2V401C251.883 401.277 251.947 401.48 252.075 401.608C252.203 401.736 252.405 401.8 252.683 401.8H254.107ZM262.603 403C262.241 403 261.921 402.872 261.643 402.616C261.377 402.36 261.243 401.955 261.243 401.4V393H258.891V391.8H262.603V401.32C262.603 401.491 262.646 401.613 262.731 401.688C262.817 401.763 262.961 401.8 263.163 401.8H265.291V403H262.603ZM268.972 404.52C269.228 404.52 269.42 404.472 269.548 404.376C269.676 404.28 269.772 404.115 269.836 403.88L270.06 403H269.74L267.1 395H268.572L270.572 401.704L272.316 395H273.708L271.228 403.864C271.089 404.408 270.919 404.813 270.716 405.08C270.513 405.347 270.284 405.517 270.028 405.592C269.783 405.677 269.463 405.72 269.068 405.72H268.3V404.52H268.972ZM279.325 403C278.781 403 278.365 402.824 278.077 402.472C277.789 402.12 277.645 401.656 277.645 401.08V396.2H276.125V395H277.645V393.08H279.005V395H281.341V396.2H279.005V401.16C279.005 401.395 279.063 401.56 279.181 401.656C279.298 401.752 279.479 401.8 279.725 401.8H281.341V403H279.325ZM287.805 391.8V393.24H286.285V391.8H287.805ZM284.013 396.2V395H287.725V401.8H290.093V403H286.365V396.2H284.013ZM295.694 403C294.755 403 294.067 402.803 293.63 402.408C293.192 402.003 292.974 401.347 292.974 400.44V397.56C292.974 396.664 293.192 396.013 293.63 395.608C294.078 395.203 294.766 395 295.694 395H297.758V396.2H295.534C295.139 396.2 294.84 396.291 294.638 396.472C294.435 396.653 294.334 396.909 294.334 397.24V400.76C294.334 401.091 294.435 401.347 294.638 401.528C294.84 401.709 295.139 401.8 295.534 401.8H297.758V403H295.694ZM306.126 401C306.126 401.672 305.918 402.173 305.502 402.504C305.097 402.835 304.505 403 303.726 403H301.342V401.8H303.886C304.174 401.8 304.393 401.741 304.542 401.624C304.692 401.496 304.766 401.315 304.766 401.08V400.232C304.766 399.752 304.537 399.512 304.078 399.512H303.486C302.74 399.512 302.18 399.352 301.806 399.032C301.444 398.701 301.262 398.184 301.262 397.48V397.016C301.262 396.301 301.465 395.789 301.87 395.48C302.276 395.16 302.873 395 303.662 395H305.806V396.2H303.502C303.236 396.2 303.022 396.264 302.862 396.392C302.702 396.509 302.622 396.685 302.622 396.92V397.496C302.622 397.741 302.692 397.923 302.83 398.04C302.98 398.157 303.166 398.216 303.39 398.216H303.934C304.649 398.216 305.193 398.392 305.566 398.744C305.94 399.085 306.126 399.597 306.126 400.28V401Z" fill="white"/>
<path d="M42.52 217.69H40V184H73.69V186.52H42.52V217.69Z" fill="#CAE8F3" stroke="#1D1D1B" stroke-width="0.25" stroke-miterlimit="10"/>
<path d="M377.48 217.69H380V184H346.31V186.52H377.48V217.69Z" fill="#CAE8F3" stroke="#1D1D1B" stroke-width="0.25" stroke-miterlimit="10"/>
<path d="M377.48 506H380V539.69H346.31V537.17H377.48V506Z" fill="#CAE8F3" stroke="#1D1D1B" stroke-width="0.25" stroke-miterlimit="10"/>
<path d="M42.52 506H40V539.69H73.69V537.17H42.52V506Z" fill="#CAE8F3" stroke="#1D1D1B" stroke-width="0.25" stroke-miterlimit="10"/>
<mask id="path-22-inside-2_171_13464" fill="white">
<path d="M310 688.405L288.406 710H110V671.933L131.933 650H310V688.405Z"/>
</mask>
<path d="M310 688.405L288.406 710H110V671.933L131.933 650H310V688.405Z" fill="white"/>
<path d="M310 688.405L310.707 689.112L311 688.819V688.405H310ZM288.406 710V711H288.82L289.113 710.707L288.406 710ZM110 710H109V711H110V710ZM110 671.933L109.293 671.226L109 671.518V671.933H110ZM131.933 650V649H131.518L131.226 649.293L131.933 650ZM310 650H311V649H310V650ZM310 688.405L309.293 687.698L287.699 709.293L288.406 710L289.113 710.707L310.707 689.112L310 688.405ZM288.406 710V709H110V710V711H288.406V710ZM110 710H111V671.933H110H109V710H110ZM110 671.933L110.707 672.64L132.64 650.707L131.933 650L131.226 649.293L109.293 671.226L110 671.933ZM131.933 650V651H310V650V649H131.933V650ZM310 650H309V688.405H310H311V650H310Z" fill="#66E0F8" mask="url(#path-22-inside-2_171_13464)"/>
<path d="M185.065 683.26C185.065 684.507 184.721 685.445 184.031 686.076C183.357 686.692 182.381 687 181.105 687H177.981V685.328H181.325C181.868 685.328 182.308 685.167 182.645 684.844C182.983 684.521 183.151 684.133 183.151 683.678V681.39C183.151 680.95 183.034 680.598 182.799 680.334C182.579 680.055 182.242 679.916 181.787 679.916H181.127C180.042 679.916 179.184 679.601 178.553 678.97C177.923 678.325 177.607 677.393 177.607 676.176V675.34C177.607 674.093 177.945 673.162 178.619 672.546C179.309 671.915 180.291 671.6 181.567 671.6H184.713V673.272H181.347C180.805 673.272 180.365 673.433 180.027 673.756C179.69 674.079 179.521 674.467 179.521 674.922V676.594C179.521 677.049 179.668 677.43 179.961 677.738C180.255 678.031 180.636 678.178 181.105 678.178H181.765C182.807 678.178 183.613 678.479 184.185 679.08C184.772 679.681 185.065 680.591 185.065 681.808V683.26ZM196.682 671.6V673.206H191.248V678.244H196.132V679.85H191.248V685.394H196.682V687H189.334V671.6H196.682ZM203.173 671.6V685.328H208.079V687H201.259V671.6H203.173ZM220.004 671.6V673.206H214.57V678.244H219.454V679.85H214.57V685.394H220.004V687H212.656V671.6H220.004ZM228.409 687C227.133 687 226.15 686.692 225.461 686.076C224.786 685.445 224.449 684.507 224.449 683.26V675.34C224.449 674.093 224.786 673.162 225.461 672.546C226.15 671.915 227.133 671.6 228.409 671.6H231.533V673.272H228.189C227.646 673.272 227.206 673.433 226.869 673.756C226.532 674.079 226.363 674.467 226.363 674.922V683.678C226.363 684.133 226.532 684.521 226.869 684.844C227.206 685.167 227.646 685.328 228.189 685.328H231.533V687H228.409ZM238.684 687V673.272H235.186V671.6H244.096V673.272H240.598V687H238.684Z" fill="#070708" fill-opacity="0.9"/>
<defs>
<filter id="filter2_df_171_13464" x="66" y="210" width="40" height="40" filterUnits="userSpaceOnUse" color-interpolation-filters="sRGB">
<feFlood flood-opacity="0" result="BackgroundImageFix"/>
<feColorMatrix in="SourceAlpha" type="matrix" values="0 0 0 0 0 0 0 0 0 0 0 0 0 0 0 0 0 0 127 0" result="hardAlpha"/>
<feOffset/>
<feGaussianBlur stdDeviation="4"/>
<feComposite in2="hardAlpha" operator="out"/>
<feColorMatrix type="matrix" values="0 0 0 0 1 0 0 0 0 0 0 0 0 0 0.0166667 0 0 0 1 0"/>
<feBlend mode="normal" in2="BackgroundImageFix" result="effect1_dropShadow_171_13464"/>
<feBlend mode="normal" in="SourceGraphic" in2="effect1_dropShadow_171_13464" result="shape"/>
<feGaussianBlur stdDeviation="1" result="effect2_foregroundBlur_171_13464"/>
</filter>
<filter id="filter3_df_171_13464" x="66" y="246" width="40" height="40" filterUnits="userSpaceOnUse" color-interpolation-filters="sRGB">
<feFlood flood-opacity="0" result="BackgroundImageFix"/>
<feColorMatrix in="SourceAlpha" type="matrix" values="0 0 0 0 0 0 0 0 0 0 0 0 0 0 0 0 0 0 127 0" result="hardAlpha"/>
<feOffset/>
<feGaussianBlur stdDeviation="4"/>
<feComposite in2="hardAlpha" operator="out"/>
<feColorMatrix type="matrix" values="0 0 0 0 1 0 0 0 0 0 0 0 0 0 0.0166667 0 0 0 1 0"/>
<feBlend mode="normal" in2="BackgroundImageFix" result="effect1_dropShadow_171_13464"/>
<feBlend mode="normal" in="SourceGraphic" in2="effect1_dropShadow_171_13464" result="shape"/>
<feGaussianBlur stdDeviation="1" result="effect2_foregroundBlur_171_13464"/>
</filter>
<filter id="filter4_df_171_13464" x="66" y="282" width="40" height="40" filterUnits="userSpaceOnUse" color-interpolation-filters="sRGB">
<feFlood flood-opacity="0" result="BackgroundImageFix"/>
<feColorMatrix in="SourceAlpha" type="matrix" values="0 0 0 0 0 0 0 0 0 0 0 0 0 0 0 0 0 0 127 0" result="hardAlpha"/>
<feOffset/>
<feGaussianBlur stdDeviation="4"/>
<feComposite in2="hardAlpha" operator="out"/>
<feColorMatrix type="matrix" values="0 0 0 0 1 0 0 0 0 0 0 0 0 0 0.0166667 0 0 0 1 0"/>
<feBlend mode="normal" in2="BackgroundImageFix" result="effect1_dropShadow_171_13464"/>
<feBlend mode="normal" in="SourceGraphic" in2="effect1_dropShadow_171_13464" result="shape"/>
<feGaussianBlur stdDeviation="1" result="effect2_foregroundBlur_171_13464"/>
</filter>
<filter id="filter5_df_171_13464" x="66" y="330" width="40" height="40" filterUnits="userSpaceOnUse" color-interpolation-filters="sRGB">
<feFlood flood-opacity="0" result="BackgroundImageFix"/>
<feColorMatrix in="SourceAlpha" type="matrix" values="0 0 0 0 0 0 0 0 0 0 0 0 0 0 0 0 0 0 127 0" result="hardAlpha"/>
<feOffset/>
<feGaussianBlur stdDeviation="4"/>
<feComposite in2="hardAlpha" operator="out"/>
<feColorMatrix type="matrix" values="0 0 0 0 1 0 0 0 0 0 0 0 0 0 0.0166667 0 0 0 1 0"/>
<feBlend mode="normal" in2="BackgroundImageFix" result="effect1_dropShadow_171_13464"/>
<feBlend mode="normal" in="SourceGraphic" in2="effect1_dropShadow_171_13464" result="shape"/>
<feGaussianBlur stdDeviation="1" result="effect2_foregroundBlur_171_13464"/>
</filter>
<filter id="filter6_df_171_13464" x="66" y="378" width="40" height="40" filterUnits="userSpaceOnUse" color-interpolation-filters="sRGB">
<feFlood flood-opacity="0" result="BackgroundImageFix"/>
<feColorMatrix in="SourceAlpha" type="matrix" values="0 0 0 0 0 0 0 0 0 0 0 0 0 0 0 0 0 0 127 0" result="hardAlpha"/>
<feOffset/>
<feGaussianBlur stdDeviation="4"/>
<feComposite in2="hardAlpha" operator="out"/>
<feColorMatrix type="matrix" values="0 0 0 0 1 0 0 0 0 0 0 0 0 0 0.0166667 0 0 0 1 0"/>
<feBlend mode="normal" in2="BackgroundImageFix" result="effect1_dropShadow_171_13464"/>
<feBlend mode="normal" in="SourceGraphic" in2="effect1_dropShadow_171_13464" result="shape"/>
<feGaussianBlur stdDeviation="1" result="effect2_foregroundBlur_171_13464"/>
</filter>
</defs>
</svg>
