<svg width="440" height="710" viewBox="0 0 440 710" fill="none" xmlns="http://www.w3.org/2000/svg">
<mask id="path-1-inside-1_171_13424" fill="white">
<path d="M420 588.028L328.029 680H0V129.664L109.664 20H420V588.028Z"/>
</mask>
<path d="M420 588.028L328.029 680H0V129.664L109.664 20H420V588.028Z" fill="#070708" fill-opacity="0.52"/>
<path d="M420 588.028L420.707 588.735L421 588.443V588.028H420ZM328.029 680V681H328.444L328.736 680.707L328.029 680ZM0 680H-1V681H0V680ZM0 129.664L-0.707107 128.957L-1 129.25V129.664H0ZM109.664 20V19H109.25L108.957 19.2929L109.664 20ZM420 20H421V19H420V20ZM420 588.028L419.293 587.321L327.322 679.293L328.029 680L328.736 680.707L420.707 588.735L420 588.028ZM328.029 680V679H0V680V681H328.029V680ZM0 680H1V129.664H0H-1V680H0ZM0 129.664L0.707107 130.371L110.371 20.7071L109.664 20L108.957 19.2929L-0.707107 128.957L0 129.664ZM109.664 20V21H420V20V19H109.664V20ZM420 20H419V588.028H420H421V20H420Z" fill="#66E0F8" mask="url(#path-1-inside-1_171_13424)"/>
<path d="M143.976 605V601.96H149.656C150.643 601.96 151.443 601.667 152.056 601.08C152.669 600.493 152.976 599.787 152.976 598.96V595.6C152.976 594.8 152.763 594.16 152.336 593.68C151.936 593.173 151.323 592.92 150.496 592.92H149.696C147.723 592.92 146.163 592.347 145.016 591.2C143.869 590.027 143.296 588.333 143.296 586.12V585C143.296 581.32 144.923 579.133 148.176 578.44V573.8H151.576V578.2H155.816V581.24H150.096C149.109 581.24 148.309 581.533 147.696 582.12C147.083 582.707 146.776 583.413 146.776 584.24V586.88C146.776 587.707 147.043 588.4 147.576 588.96C148.109 589.493 148.803 589.76 149.656 589.76H150.456C152.349 589.76 153.816 590.307 154.856 591.4C155.923 592.493 156.456 594.147 156.456 596.36V598.2C156.456 600.04 156.029 601.52 155.176 602.64C154.349 603.733 153.149 604.453 151.576 604.8V609.4H148.176V605H143.976ZM163.738 583.8C163.738 581.613 164.338 579.933 165.538 578.76C166.738 577.587 168.244 577 170.058 577H171.458C173.271 577 174.778 577.587 175.978 578.76C177.178 579.933 177.778 581.613 177.778 583.8V598.2C177.778 600.467 177.164 602.173 175.938 603.32C174.738 604.44 172.978 605 170.658 605H166.058V601.96H171.058C172.044 601.96 172.844 601.667 173.458 601.08C174.071 600.493 174.378 599.787 174.378 598.96V594.6H170.458C168.164 594.6 166.471 594.093 165.378 593.08C164.284 592.067 163.738 590.44 163.738 588.2V583.8ZM174.378 583.04C174.378 582.187 174.098 581.467 173.538 580.88C172.978 580.293 172.218 580 171.258 580H170.258C169.298 580 168.538 580.293 167.978 580.88C167.418 581.467 167.138 582.187 167.138 583.04V588.96C167.138 589.787 167.378 590.44 167.858 590.92C168.364 591.373 169.098 591.6 170.058 591.6H174.378V583.04ZM193.499 601V605H189.499V601H193.499ZM205.341 583.8C205.341 581.613 205.941 579.933 207.141 578.76C208.341 577.587 209.847 577 211.661 577H213.061C214.874 577 216.381 577.587 217.581 578.76C218.781 579.933 219.381 581.613 219.381 583.8V598.2C219.381 600.467 218.767 602.173 217.541 603.32C216.341 604.44 214.581 605 212.261 605H207.661V601.96H212.661C213.647 601.96 214.447 601.667 215.061 601.08C215.674 600.493 215.981 599.787 215.981 598.96V594.6H212.061C209.767 594.6 208.074 594.093 206.981 593.08C205.887 592.067 205.341 590.44 205.341 588.2V583.8ZM215.981 583.04C215.981 582.187 215.701 581.467 215.141 580.88C214.581 580.293 213.821 580 212.861 580H211.861C210.901 580 210.141 580.293 209.581 580.88C209.021 581.467 208.741 582.187 208.741 583.04V588.96C208.741 589.787 208.981 590.44 209.461 590.92C209.967 591.373 210.701 591.6 211.661 591.6H215.981V583.04ZM226.142 583.8C226.142 581.613 226.742 579.933 227.942 578.76C229.142 577.587 230.649 577 232.462 577H233.862C235.676 577 237.182 577.587 238.382 578.76C239.582 579.933 240.182 581.613 240.182 583.8V598.2C240.182 600.467 239.569 602.173 238.342 603.32C237.142 604.44 235.382 605 233.062 605H228.462V601.96H233.462C234.449 601.96 235.249 601.667 235.862 601.08C236.476 600.493 236.782 599.787 236.782 598.96V594.6H232.862C230.569 594.6 228.876 594.093 227.782 593.08C226.689 592.067 226.142 590.44 226.142 588.2V583.8ZM236.782 583.04C236.782 582.187 236.502 581.467 235.942 580.88C235.382 580.293 234.622 580 233.662 580H232.662C231.702 580 230.942 580.293 230.382 580.88C229.822 581.467 229.542 582.187 229.542 583.04V588.96C229.542 589.787 229.782 590.44 230.262 590.92C230.769 591.373 231.502 591.6 232.462 591.6H236.782V583.04Z" fill="white"/>
<path d="M254.496 592.04H255.84L250.144 606.76H248.8L254.496 592.04ZM266.529 597V597.368C266.807 597.123 267.137 597 267.521 597H267.617C268.364 597 268.892 597.213 269.201 597.64C269.553 597.213 270.017 597 270.593 597H270.689C271.34 597 271.82 597.165 272.129 597.496C272.439 597.827 272.593 598.413 272.593 599.256V605H271.313V599.24C271.313 598.803 271.265 598.499 271.169 598.328C271.084 598.157 270.881 598.072 270.561 598.072H270.465C270.145 598.072 269.921 598.184 269.793 598.408C269.676 598.621 269.612 598.861 269.601 599.128V605H268.321V599.24C268.321 598.792 268.268 598.488 268.161 598.328C268.055 598.157 267.863 598.072 267.585 598.072H267.489C267.169 598.072 266.945 598.168 266.817 598.36C266.689 598.541 266.62 598.749 266.609 598.984V605H265.329V597H266.529ZM280.258 602.44C280.258 603.336 280.034 603.987 279.586 604.392C279.149 604.797 278.466 605 277.538 605H277.01C276.082 605 275.394 604.797 274.946 604.392C274.509 603.987 274.29 603.336 274.29 602.44V599.56C274.29 598.664 274.509 598.013 274.946 597.608C275.394 597.203 276.082 597 277.01 597H277.538C278.466 597 279.149 597.203 279.586 597.608C280.034 598.013 280.258 598.664 280.258 599.56V602.44ZM278.898 599.24C278.898 598.909 278.797 598.653 278.594 598.472C278.391 598.291 278.093 598.2 277.698 598.2H276.85C276.455 598.2 276.157 598.291 275.954 598.472C275.751 598.653 275.65 598.909 275.65 599.24V602.76C275.65 603.091 275.751 603.347 275.954 603.528C276.157 603.709 276.455 603.8 276.85 603.8H277.698C278.093 603.8 278.391 603.709 278.594 603.528C278.797 603.347 278.898 603.091 278.898 602.76V599.24Z" fill="white"/>
<path d="M77.8894 126.24V127.7H73.4494V134H71.7094V120H78.3894V121.46H73.4494V126.24H77.8894ZM89.3902 130.6C89.3902 131.733 89.0769 132.587 88.4502 133.16C87.8369 133.72 86.9502 134 85.7902 134H84.9902C83.8302 134 82.9369 133.72 82.3102 133.16C81.6969 132.587 81.3902 131.733 81.3902 130.6V123.4C81.3902 122.267 81.6969 121.42 82.3102 120.86C82.9369 120.287 83.8302 120 84.9902 120H85.7902C86.9502 120 87.8369 120.287 88.4502 120.86C89.0769 121.42 89.3902 122.267 89.3902 123.4V130.6ZM87.6502 123.02C87.6502 122.607 87.4969 122.253 87.1902 121.96C86.8836 121.667 86.4836 121.52 85.9902 121.52H84.7902C84.2969 121.52 83.8969 121.667 83.5902 121.96C83.2836 122.253 83.1302 122.607 83.1302 123.02V130.98C83.1302 131.393 83.2836 131.747 83.5902 132.04C83.8969 132.333 84.2969 132.48 84.7902 132.48H85.9902C86.4836 132.48 86.8836 132.333 87.1902 132.04C87.4969 131.747 87.6502 131.393 87.6502 130.98V123.02ZM93.531 128.2V134H91.791V120H95.551C96.6843 120 97.5377 120.253 98.111 120.76C98.6977 121.253 98.991 122.04 98.991 123.12V125.04C98.991 126.547 98.391 127.487 97.191 127.86L99.971 134H98.071L95.491 128.2H93.531ZM97.251 122.94C97.251 122.433 97.131 122.067 96.891 121.84C96.6643 121.613 96.2977 121.5 95.791 121.5H93.531V126.7H95.791C96.2977 126.7 96.6643 126.587 96.891 126.36C97.131 126.12 97.251 125.747 97.251 125.24V122.94ZM119.973 130.6C119.973 131.733 119.659 132.587 119.033 133.16C118.419 133.72 117.533 134 116.373 134H113.533V132.48H116.573C117.066 132.48 117.466 132.333 117.773 132.04C118.079 131.747 118.233 131.393 118.233 130.98V128.9C118.233 128.5 118.126 128.18 117.913 127.94C117.713 127.687 117.406 127.56 116.993 127.56H116.393C115.406 127.56 114.626 127.273 114.053 126.7C113.479 126.113 113.193 125.267 113.193 124.16V123.4C113.193 122.267 113.499 121.42 114.113 120.86C114.739 120.287 115.633 120 116.793 120H119.653V121.52H116.593C116.099 121.52 115.699 121.667 115.393 121.96C115.086 122.253 114.933 122.607 114.933 123.02V124.54C114.933 124.953 115.066 125.3 115.333 125.58C115.599 125.847 115.946 125.98 116.373 125.98H116.973C117.919 125.98 118.653 126.253 119.173 126.8C119.706 127.347 119.973 128.173 119.973 129.28V130.6ZM127.793 129.3H126.133L124.173 121.44V134H122.653V120H125.433L127.033 127.16L128.653 120H131.353V134H129.793V121.44L127.793 129.3ZM135.454 130.46L134.674 134H132.894L136.274 120H138.574L141.894 134H140.114L139.354 130.46H135.454ZM139.034 128.96L137.394 121.32L135.774 128.96H139.034ZM146.435 120V132.48H150.895V134H144.695V120H146.435ZM156.836 120V132.48H161.296V134H155.096V120H156.836ZM178.117 134V121.52H174.937V120H183.037V121.52H179.857V134H178.117ZM192.738 120V121.46H187.798V126.04H192.238V127.5H187.798V132.54H192.738V134H186.058V120H192.738ZM197.859 130.46L197.079 134H195.299L198.679 120H200.979L204.299 134H202.519L201.759 130.46H197.859ZM201.439 128.96L199.799 121.32L198.179 128.96H201.439ZM211 129.3H209.34L207.38 121.44V134H205.86V120H208.64L210.24 127.16L211.86 120H214.56V134H213V121.44L211 129.3ZM223.98 130.6C223.98 131.733 223.667 132.587 223.04 133.16C222.427 133.72 221.54 134 220.38 134H217.54V132.48H220.58C221.074 132.48 221.474 132.333 221.78 132.04C222.087 131.747 222.24 131.393 222.24 130.98V128.9C222.24 128.5 222.134 128.18 221.92 127.94C221.72 127.687 221.414 127.56 221 127.56H220.4C219.414 127.56 218.634 127.273 218.06 126.7C217.487 126.113 217.2 125.267 217.2 124.16V123.4C217.2 122.267 217.507 121.42 218.12 120.86C218.747 120.287 219.64 120 220.8 120H223.66V121.52H220.6C220.107 121.52 219.707 121.667 219.4 121.96C219.094 122.253 218.94 122.607 218.94 123.02V124.54C218.94 124.953 219.074 125.3 219.34 125.58C219.607 125.847 219.954 125.98 220.38 125.98H220.98C221.927 125.98 222.66 126.253 223.18 126.8C223.714 127.347 223.98 128.173 223.98 129.28V130.6ZM239.462 130.46L238.682 134H236.902L240.282 120H242.582L245.902 134H244.122L243.362 130.46H239.462ZM243.042 128.96L241.402 121.32L239.782 128.96H243.042ZM249.603 134H247.983V120H250.823L253.983 132.52V120H255.603V134H252.743L249.603 121.48V134ZM265.964 130.84C265.964 131.987 265.697 132.8 265.164 133.28C264.644 133.76 263.777 134 262.564 134H258.444V120H262.324C263.524 120 264.43 120.247 265.044 120.74C265.657 121.22 265.964 122.013 265.964 123.12V130.84ZM264.224 122.94C264.224 122.5 264.09 122.153 263.824 121.9C263.557 121.633 263.204 121.5 262.764 121.5H260.184V132.5H262.744C263.25 132.5 263.624 132.387 263.864 132.16C264.104 131.92 264.224 131.547 264.224 131.04V122.94ZM282.125 132.54V121.46H280.325V120H285.665V121.46H283.865V132.54H285.665V134H280.325V132.54H282.125ZM291.206 134H289.586V120H292.426L295.586 132.52V120H297.206V134H294.346L291.206 121.48V134ZM302.927 132.54V121.46H301.127V120H306.467V121.46H304.667V132.54H306.467V134H301.127V132.54H302.927ZM313.327 134V121.52H310.147V120H318.247V121.52H315.067V134H313.327ZM323.728 132.54V121.46H321.928V120H327.268V121.46H325.468V132.54H327.268V134H321.928V132.54H323.728ZM333.069 130.46L332.289 134H330.509L333.889 120H336.189L339.509 134H337.729L336.969 130.46H333.069ZM336.649 128.96L335.009 121.32L333.389 128.96H336.649ZM344.05 120V132.48H348.51V134H342.31V120H344.05ZM78.1295 144V145.46H73.1895V150.04H77.6295V151.5H73.1895V156.54H78.1295V158H71.4495V144H78.1295ZM82.6902 158H80.8102L84.2902 150.76L81.1302 144H83.0302L85.2302 148.74L87.5102 144H89.3702L86.1302 150.74L89.5702 158H87.6102L85.2102 152.74L82.6902 158ZM99.211 149.4C99.211 150.48 98.9243 151.28 98.351 151.8C97.7777 152.307 96.931 152.56 95.811 152.56H93.731V158H91.991V144H95.771C96.9043 144 97.7577 144.253 98.331 144.76C98.9177 145.253 99.211 146.04 99.211 147.12V149.4ZM97.471 146.94C97.471 146.433 97.351 146.067 97.111 145.84C96.8843 145.613 96.5177 145.5 96.011 145.5H93.731V151.06H96.011C96.5177 151.06 96.8843 150.947 97.111 150.72C97.351 150.48 97.471 150.107 97.471 149.6V146.94ZM104.632 144V156.48H109.092V158H102.892V144H104.632ZM120.393 154.6C120.393 155.733 120.079 156.587 119.453 157.16C118.839 157.72 117.953 158 116.793 158H115.993C114.833 158 113.939 157.72 113.313 157.16C112.699 156.587 112.393 155.733 112.393 154.6V147.4C112.393 146.267 112.699 145.42 113.313 144.86C113.939 144.287 114.833 144 115.993 144H116.793C117.953 144 118.839 144.287 119.453 144.86C120.079 145.42 120.393 146.267 120.393 147.4V154.6ZM118.653 147.02C118.653 146.607 118.499 146.253 118.193 145.96C117.886 145.667 117.486 145.52 116.993 145.52H115.793C115.299 145.52 114.899 145.667 114.593 145.96C114.286 146.253 114.133 146.607 114.133 147.02V154.98C114.133 155.393 114.286 155.747 114.593 156.04C114.899 156.333 115.299 156.48 115.793 156.48H116.993C117.486 156.48 117.886 156.333 118.193 156.04C118.499 155.747 118.653 155.393 118.653 154.98V147.02ZM124.533 152.2V158H122.793V144H126.553C127.687 144 128.54 144.253 129.113 144.76C129.7 145.253 129.993 146.04 129.993 147.12V149.04C129.993 150.547 129.393 151.487 128.193 151.86L130.973 158H129.073L126.493 152.2H124.533ZM128.253 146.94C128.253 146.433 128.133 146.067 127.893 145.84C127.667 145.613 127.3 145.5 126.793 145.5H124.533V150.7H126.793C127.3 150.7 127.667 150.587 127.893 150.36C128.133 150.12 128.253 149.747 128.253 149.24V146.94ZM135.254 154.46L134.474 158H132.694L136.074 144H138.374L141.694 158H139.914L139.154 154.46H135.254ZM138.834 152.96L137.194 145.32L135.574 152.96H138.834ZM146.715 158V145.52H143.535V144H151.635V145.52H148.455V158H146.715ZM157.116 156.54V145.46H155.316V144H160.656V145.46H158.856V156.54H160.656V158H155.316V156.54H157.116ZM172.396 154.6C172.396 155.733 172.083 156.587 171.456 157.16C170.843 157.72 169.956 158 168.796 158H167.996C166.836 158 165.943 157.72 165.316 157.16C164.703 156.587 164.396 155.733 164.396 154.6V147.4C164.396 146.267 164.703 145.42 165.316 144.86C165.943 144.287 166.836 144 167.996 144H168.796C169.956 144 170.843 144.287 171.456 144.86C172.083 145.42 172.396 146.267 172.396 147.4V154.6ZM170.656 147.02C170.656 146.607 170.503 146.253 170.196 145.96C169.89 145.667 169.49 145.52 168.996 145.52H167.796C167.303 145.52 166.903 145.667 166.596 145.96C166.29 146.253 166.136 146.607 166.136 147.02V154.98C166.136 155.393 166.29 155.747 166.596 156.04C166.903 156.333 167.303 156.48 167.796 156.48H168.996C169.49 156.48 169.89 156.333 170.196 156.04C170.503 155.747 170.656 155.393 170.656 154.98V147.02ZM176.597 158H174.977V144H177.817L180.977 156.52V144H182.597V158H179.737L176.597 145.48V158ZM203.599 154.6C203.599 155.733 203.285 156.587 202.659 157.16C202.045 157.72 201.159 158 199.999 158H199.199C198.039 158 197.145 157.72 196.519 157.16C195.905 156.587 195.599 155.733 195.599 154.6V147.4C195.599 146.267 195.905 145.42 196.519 144.86C197.145 144.287 198.039 144 199.199 144H199.999C201.159 144 202.045 144.287 202.659 144.86C203.285 145.42 203.599 146.267 203.599 147.4V154.6ZM201.859 147.02C201.859 146.607 201.705 146.253 201.399 145.96C201.092 145.667 200.692 145.52 200.199 145.52H198.999C198.505 145.52 198.105 145.667 197.799 145.96C197.492 146.253 197.339 146.607 197.339 147.02V154.98C197.339 155.393 197.492 155.747 197.799 156.04C198.105 156.333 198.505 156.48 198.999 156.48H200.199C200.692 156.48 201.092 156.333 201.399 156.04C201.705 155.747 201.859 155.393 201.859 154.98V147.02ZM212.9 150.24V151.7H208.46V158H206.72V144H213.4V145.46H208.46V150.24H212.9ZM229.921 158V145.52H226.741V144H234.841V145.52H231.661V158H229.921ZM239.142 151.56V158H237.402V144H239.142V150.08H243.262V144H245.002V158H243.262V151.56H239.142ZM254.943 144V145.46H250.003V150.04H254.443V151.5H250.003V156.54H254.943V158H248.263V144H254.943ZM276.024 149.4C276.024 150.48 275.738 151.28 275.164 151.8C274.591 152.307 273.744 152.56 272.624 152.56H270.544V158H268.804V144H272.584C273.718 144 274.571 144.253 275.144 144.76C275.731 145.253 276.024 146.04 276.024 147.12V149.4ZM274.284 146.94C274.284 146.433 274.164 146.067 273.924 145.84C273.698 145.613 273.331 145.5 272.824 145.5H270.544V151.06H272.824C273.331 151.06 273.698 150.947 273.924 150.72C274.164 150.48 274.284 150.107 274.284 149.6V146.94ZM281.445 144V156.48H285.905V158H279.705V144H281.445ZM291.266 154.46L290.486 158H288.706L292.086 144H294.386L297.706 158H295.926L295.166 154.46H291.266ZM294.846 152.96L293.206 145.32L291.586 152.96H294.846ZM302.727 158V145.52H299.547V144H307.647V145.52H304.467V158H302.727ZM316.907 150.24V151.7H312.467V158H310.727V144H317.407V145.46H312.467V150.24H316.907ZM328.408 154.6C328.408 155.733 328.095 156.587 327.468 157.16C326.855 157.72 325.968 158 324.808 158H324.008C322.848 158 321.955 157.72 321.328 157.16C320.715 156.587 320.408 155.733 320.408 154.6V147.4C320.408 146.267 320.715 145.42 321.328 144.86C321.955 144.287 322.848 144 324.008 144H324.808C325.968 144 326.855 144.287 327.468 144.86C328.095 145.42 328.408 146.267 328.408 147.4V154.6ZM326.668 147.02C326.668 146.607 326.515 146.253 326.208 145.96C325.902 145.667 325.502 145.52 325.008 145.52H323.808C323.315 145.52 322.915 145.667 322.608 145.96C322.302 146.253 322.148 146.607 322.148 147.02V154.98C322.148 155.393 322.302 155.747 322.608 156.04C322.915 156.333 323.315 156.48 323.808 156.48H325.008C325.502 156.48 325.902 156.333 326.208 156.04C326.515 155.747 326.668 155.393 326.668 154.98V147.02ZM332.549 152.2V158H330.809V144H334.569C335.702 144 336.556 144.253 337.129 144.76C337.716 145.253 338.009 146.04 338.009 147.12V149.04C338.009 150.547 337.409 151.487 336.209 151.86L338.989 158H337.089L334.509 152.2H332.549ZM336.269 146.94C336.269 146.433 336.149 146.067 335.909 145.84C335.682 145.613 335.316 145.5 334.809 145.5H332.549V150.7H334.809C335.316 150.7 335.682 150.587 335.909 150.36C336.149 150.12 336.269 149.747 336.269 149.24V146.94ZM346.01 153.3H344.35L342.39 145.44V158H340.87V144H343.65L345.25 151.16L346.87 144H349.57V158H348.01V145.44L346.01 153.3Z" fill="white"/>
<rect width="340" height="356" transform="translate(40 184)" fill="white" fill-opacity="0.08"/>
<g filter="url(#filter1_df_171_13424)">
<path d="M98 229.991C93.2924 230.419 90.5877 230.813 88.9272 232.113C86.9757 233.635 86.5136 236.423 86 242C85.4693 236.218 84.99 233.447 82.8502 231.959C81.1897 230.795 78.5021 230.419 74 230.009C78.6904 229.581 81.4123 229.187 83.0556 227.904C85.0243 226.365 85.4864 223.594 86 218C86.4793 223.149 86.9073 225.903 88.4993 227.494C90.0913 229.085 92.8645 229.53 98 229.991Z" fill="white"/>
</g>
<path d="M112.24 229.944C112.581 229.453 112.811 229.107 112.928 228.904C113.056 228.691 113.141 228.477 113.184 228.264C113.227 228.051 113.248 227.741 113.248 227.336V226.216C113.248 225.885 113.125 225.603 112.88 225.368C112.635 225.133 112.315 225.016 111.92 225.016H110V223.8H111.76C112.688 223.8 113.397 224.029 113.888 224.488C114.389 224.936 114.64 225.613 114.64 226.52V227.192C114.64 227.725 114.603 228.157 114.528 228.488C114.453 228.819 114.347 229.112 114.208 229.368C114.069 229.624 113.84 229.981 113.52 230.44L111.152 233.784H114.96V235H109.68V233.592L112.24 229.944ZM131.393 233C131.393 233.672 131.185 234.173 130.769 234.504C130.364 234.835 129.772 235 128.993 235H126.609V233.8H129.153C129.441 233.8 129.66 233.741 129.809 233.624C129.959 233.496 130.033 233.315 130.033 233.08V232.232C130.033 231.752 129.804 231.512 129.345 231.512H128.753C128.007 231.512 127.447 231.352 127.073 231.032C126.711 230.701 126.529 230.184 126.529 229.48V229.016C126.529 228.301 126.732 227.789 127.137 227.48C127.543 227.16 128.14 227 128.929 227H131.073V228.2H128.769C128.503 228.2 128.289 228.264 128.129 228.392C127.969 228.509 127.889 228.685 127.889 228.92V229.496C127.889 229.741 127.959 229.923 128.097 230.04C128.247 230.157 128.433 230.216 128.657 230.216H129.201C129.916 230.216 130.46 230.392 130.833 230.744C131.207 231.085 131.393 231.597 131.393 232.28V233ZM137.602 235C136.663 235 135.975 234.803 135.538 234.408C135.101 234.003 134.882 233.347 134.882 232.44V229.56C134.882 228.664 135.101 228.013 135.538 227.608C135.986 227.203 136.674 227 137.602 227H139.666V228.2H137.442C137.047 228.2 136.749 228.291 136.546 228.472C136.343 228.653 136.242 228.909 136.242 229.24V232.76C136.242 233.091 136.343 233.347 136.546 233.528C136.749 233.709 137.047 233.8 137.442 233.8H139.666V235H137.602ZM145.507 235C144.568 235 143.88 234.803 143.443 234.408C143.005 234.003 142.787 233.347 142.787 232.44V229.56C142.787 228.643 142.984 227.987 143.379 227.592C143.773 227.197 144.429 227 145.347 227H146.099C146.856 227 147.427 227.213 147.811 227.64C148.205 228.056 148.403 228.669 148.403 229.48V231.56H144.147V232.76C144.147 233.091 144.248 233.347 144.451 233.528C144.653 233.709 144.952 233.8 145.347 233.8H147.891V235H145.507ZM147.075 229.16C147.075 228.883 146.984 228.653 146.803 228.472C146.621 228.291 146.392 228.2 146.115 228.2H145.187C144.803 228.2 144.531 228.291 144.371 228.472C144.221 228.643 144.147 228.899 144.147 229.24V230.36H147.075V229.16ZM152.275 227V227.384C152.606 227.128 153.032 227 153.555 227H154.291C155.155 227 155.795 227.203 156.211 227.608C156.638 228.013 156.851 228.664 156.851 229.56V235H155.491V229.24C155.491 228.92 155.395 228.669 155.203 228.488C155.022 228.296 154.771 228.2 154.451 228.2H153.395C153.043 228.2 152.782 228.296 152.611 228.488C152.44 228.669 152.355 228.867 152.355 229.08V235H150.995V227H152.275ZM164.596 235C164.457 235 164.302 234.957 164.132 234.872C163.972 234.787 163.833 234.669 163.716 234.52C163.47 234.84 163.145 235 162.74 235H161.316C160.505 235 159.913 234.84 159.54 234.52C159.177 234.189 158.996 233.629 158.996 232.84V232.52C158.996 230.867 159.774 230.04 161.332 230.04H163.316V229.24C163.316 228.909 163.214 228.653 163.012 228.472C162.809 228.291 162.51 228.2 162.116 228.2H159.636V227H161.956C162.884 227 163.566 227.203 164.004 227.608C164.452 228.013 164.676 228.664 164.676 229.56V233.4C164.676 233.56 164.734 233.683 164.852 233.768C164.98 233.843 165.188 233.88 165.476 233.88V235H164.596ZM162.58 233.8C162.9 233.8 163.102 233.725 163.188 233.576C163.273 233.427 163.316 233.235 163.316 233V231.24H161.316C161.038 231.24 160.809 231.331 160.628 231.512C160.446 231.693 160.356 231.923 160.356 232.2V233C160.356 233.277 160.42 233.48 160.548 233.608C160.676 233.736 160.878 233.8 161.156 233.8H162.58ZM169.012 233.8V228.2H167.844V227H170.292V227.432C170.644 227.144 171.071 227 171.572 227H173.22V228.28H171.412C171.071 228.28 170.815 228.392 170.644 228.616C170.474 228.829 170.383 229.048 170.372 229.272V233.8H172.116V235H167.844V233.8H169.012ZM179.637 223.8V225.24H178.117V223.8H179.637ZM175.845 228.2V227H179.557V233.8H181.925V235H178.197V228.2H175.845ZM190.182 232.44C190.182 233.336 189.958 233.987 189.51 234.392C189.072 234.797 188.39 235 187.462 235H186.934C186.006 235 185.318 234.797 184.87 234.392C184.432 233.987 184.214 233.336 184.214 232.44V229.56C184.214 228.664 184.432 228.013 184.87 227.608C185.318 227.203 186.006 227 186.934 227H187.462C188.39 227 189.072 227.203 189.51 227.608C189.958 228.013 190.182 228.664 190.182 229.56V232.44ZM188.822 229.24C188.822 228.909 188.72 228.653 188.518 228.472C188.315 228.291 188.016 228.2 187.622 228.2H186.774C186.379 228.2 186.08 228.291 185.878 228.472C185.675 228.653 185.574 228.909 185.574 229.24V232.76C185.574 233.091 185.675 233.347 185.878 233.528C186.08 233.709 186.379 233.8 186.774 233.8H187.622C188.016 233.8 188.315 233.709 188.518 233.528C188.72 233.347 188.822 233.091 188.822 232.76V229.24ZM197.958 233C197.958 233.672 197.75 234.173 197.334 234.504C196.929 234.835 196.337 235 195.558 235H193.174V233.8H195.718C196.006 233.8 196.225 233.741 196.374 233.624C196.524 233.496 196.598 233.315 196.598 233.08V232.232C196.598 231.752 196.369 231.512 195.91 231.512H195.318C194.572 231.512 194.012 231.352 193.638 231.032C193.276 230.701 193.094 230.184 193.094 229.48V229.016C193.094 228.301 193.297 227.789 193.702 227.48C194.108 227.16 194.705 227 195.494 227H197.638V228.2H195.334C195.068 228.2 194.854 228.264 194.694 228.392C194.534 228.509 194.454 228.685 194.454 228.92V229.496C194.454 229.741 194.524 229.923 194.662 230.04C194.812 230.157 194.998 230.216 195.222 230.216H195.766C196.481 230.216 197.025 230.392 197.398 230.744C197.772 231.085 197.958 231.597 197.958 232.28V233Z" fill="white"/>
<g filter="url(#filter2_df_171_13424)">
<path d="M98 265.991C93.2924 266.419 90.5877 266.813 88.9272 268.113C86.9757 269.635 86.5136 272.423 86 278C85.4693 272.218 84.99 269.447 82.8502 267.959C81.1897 266.795 78.5021 266.419 74 266.009C78.6904 265.581 81.4123 265.187 83.0556 263.904C85.0243 262.365 85.4864 259.594 86 254C86.4793 259.149 86.9073 261.903 88.4993 263.494C90.0913 265.085 92.8645 265.53 98 265.991Z" fill="white"/>
</g>
<path d="M111.888 269.8V261.064L109.632 261.896V260.6L111.728 259.8H113.248V269.8H114.992V271H109.792V269.8H111.888ZM127.409 269.8V264.2H126.241V263H128.689V263.432C129.041 263.144 129.468 263 129.969 263H131.617V264.28H129.809C129.468 264.28 129.212 264.392 129.041 264.616C128.871 264.829 128.78 265.048 128.769 265.272V269.8H130.513V271H126.241V269.8H127.409ZM140.258 268.44C140.258 269.336 140.034 269.987 139.586 270.392C139.149 270.797 138.466 271 137.538 271H137.01C136.082 271 135.394 270.797 134.946 270.392C134.509 269.987 134.29 269.336 134.29 268.44V265.56C134.29 264.664 134.509 264.013 134.946 263.608C135.394 263.203 136.082 263 137.01 263H137.538C138.466 263 139.149 263.203 139.586 263.608C140.034 264.013 140.258 264.664 140.258 265.56V268.44ZM138.898 265.24C138.898 264.909 138.797 264.653 138.594 264.472C138.391 264.291 138.093 264.2 137.698 264.2H136.85C136.455 264.2 136.157 264.291 135.954 264.472C135.751 264.653 135.65 264.909 135.65 265.24V268.76C135.65 269.091 135.751 269.347 135.954 269.528C136.157 269.709 136.455 269.8 136.85 269.8H137.698C138.093 269.8 138.391 269.709 138.594 269.528C138.797 269.347 138.898 269.091 138.898 268.76V265.24ZM146.115 271C145.752 271 145.432 270.872 145.155 270.616C144.888 270.36 144.755 269.955 144.755 269.4V261H142.403V259.8H146.115V269.32C146.115 269.491 146.157 269.613 146.243 269.688C146.328 269.763 146.472 269.8 146.675 269.8H148.803V271H146.115ZM153.827 271C152.888 271 152.2 270.803 151.763 270.408C151.326 270.003 151.107 269.347 151.107 268.44V265.56C151.107 264.643 151.304 263.987 151.699 263.592C152.094 263.197 152.75 263 153.667 263H154.419C155.176 263 155.747 263.213 156.131 263.64C156.526 264.056 156.723 264.669 156.723 265.48V267.56H152.467V268.76C152.467 269.091 152.568 269.347 152.771 269.528C152.974 269.709 153.272 269.8 153.667 269.8H156.211V271H153.827ZM155.395 265.16C155.395 264.883 155.304 264.653 155.123 264.472C154.942 264.291 154.712 264.2 154.435 264.2H153.507C153.123 264.2 152.851 264.291 152.691 264.472C152.542 264.643 152.467 264.899 152.467 265.24V266.36H155.395V265.16ZM168.916 263V263.384C169.247 263.128 169.674 263 170.196 263H170.772C171.711 263 172.399 263.203 172.836 263.608C173.274 264.003 173.492 264.653 173.492 265.56V268.44C173.492 269.336 173.268 269.987 172.82 270.392C172.383 270.797 171.7 271 170.772 271H168.996V273.72H167.636V263H168.916ZM170.036 264.2C169.684 264.2 169.423 264.296 169.252 264.488C169.082 264.669 168.996 264.867 168.996 265.08V269.8H170.932C171.327 269.8 171.626 269.709 171.828 269.528C172.031 269.347 172.132 269.091 172.132 268.76V265.24C172.132 264.909 172.031 264.653 171.828 264.472C171.626 264.291 171.327 264.2 170.932 264.2H170.036ZM178.789 271C177.85 271 177.162 270.803 176.725 270.408C176.288 270.003 176.069 269.347 176.069 268.44V265.56C176.069 264.643 176.266 263.987 176.661 263.592C177.056 263.197 177.712 263 178.629 263H179.381C180.138 263 180.709 263.213 181.093 263.64C181.488 264.056 181.685 264.669 181.685 265.48V267.56H177.429V268.76C177.429 269.091 177.53 269.347 177.733 269.528C177.936 269.709 178.234 269.8 178.629 269.8H181.173V271H178.789ZM180.357 265.16C180.357 264.883 180.266 264.653 180.085 264.472C179.904 264.291 179.674 264.2 179.397 264.2H178.469C178.085 264.2 177.813 264.291 177.653 264.472C177.504 264.643 177.429 264.899 177.429 265.24V266.36H180.357V265.16ZM185.654 269.8V264.2H184.486V263H186.934V263.432C187.286 263.144 187.712 263 188.214 263H189.862V264.28H188.054C187.712 264.28 187.456 264.392 187.286 264.616C187.115 264.829 187.024 265.048 187.014 265.272V269.8H188.758V271H184.486V269.8H185.654ZM205.399 270.632C205.047 270.877 204.62 271 204.119 271H203.575C202.711 271 202.066 270.797 201.639 270.392C201.223 269.987 201.015 269.336 201.015 268.44V263H202.375V268.76C202.375 269.08 202.466 269.336 202.647 269.528C202.839 269.709 203.095 269.8 203.415 269.8H204.279C204.62 269.8 204.871 269.715 205.031 269.544C205.202 269.373 205.298 269.181 205.319 268.968V263H206.679V271H205.399V270.632ZM214.6 269C214.6 269.672 214.392 270.173 213.976 270.504C213.57 270.835 212.978 271 212.2 271H209.816V269.8H212.36C212.648 269.8 212.866 269.741 213.016 269.624C213.165 269.496 213.24 269.315 213.24 269.08V268.232C213.24 267.752 213.01 267.512 212.552 267.512H211.96C211.213 267.512 210.653 267.352 210.28 267.032C209.917 266.701 209.736 266.184 209.736 265.48V265.016C209.736 264.301 209.938 263.789 210.344 263.48C210.749 263.16 211.346 263 212.136 263H214.28V264.2H211.976C211.709 264.2 211.496 264.264 211.336 264.392C211.176 264.509 211.096 264.685 211.096 264.92V265.496C211.096 265.741 211.165 265.923 211.304 266.04C211.453 266.157 211.64 266.216 211.864 266.216H212.408C213.122 266.216 213.666 266.392 214.04 266.744C214.413 267.085 214.6 267.597 214.6 268.28V269ZM220.392 271C219.453 271 218.765 270.803 218.328 270.408C217.891 270.003 217.672 269.347 217.672 268.44V265.56C217.672 264.643 217.869 263.987 218.264 263.592C218.659 263.197 219.315 263 220.232 263H220.984C221.741 263 222.312 263.213 222.696 263.64C223.091 264.056 223.288 264.669 223.288 265.48V267.56H219.032V268.76C219.032 269.091 219.133 269.347 219.336 269.528C219.539 269.709 219.837 269.8 220.232 269.8H222.776V271H220.392ZM221.96 265.16C221.96 264.883 221.869 264.653 221.688 264.472C221.507 264.291 221.277 264.2 221 264.2H220.072C219.688 264.2 219.416 264.291 219.256 264.472C219.107 264.643 219.032 264.899 219.032 265.24V266.36H221.96V265.16ZM227.257 269.8V264.2H226.089V263H228.537V263.432C228.889 263.144 229.315 263 229.817 263H231.465V264.28H229.657C229.315 264.28 229.059 264.392 228.889 264.616C228.718 264.829 228.627 265.048 228.617 265.272V269.8H230.361V271H226.089V269.8H227.257Z" fill="white"/>
<g filter="url(#filter3_df_171_13424)">
<path d="M98 301.991C93.2924 302.419 90.5877 302.813 88.9272 304.113C86.9757 305.635 86.5136 308.423 86 314C85.4693 308.218 84.99 305.447 82.8502 303.959C81.1897 302.795 78.5021 302.419 74 302.009C78.6904 301.581 81.4123 301.187 83.0556 299.904C85.0243 298.365 85.4864 295.594 86 290C86.4793 295.149 86.9073 297.903 88.4993 299.494C90.0913 301.085 92.8645 301.53 98 301.991Z" fill="white"/>
</g>
<path d="M115.28 304.472C115.28 305.389 115.067 306.04 114.64 306.424C114.224 306.808 113.531 307 112.56 307H109.36V295.8H112.368C113.317 295.8 114.011 295.992 114.448 296.376C114.896 296.76 115.12 297.4 115.12 298.296V299.208C115.12 300.029 114.827 300.648 114.24 301.064C114.933 301.448 115.28 302.104 115.28 303.032V304.472ZM113.728 298.152C113.728 297.747 113.632 297.453 113.44 297.272C113.259 297.091 112.965 297 112.56 297H110.752V300.536H112.56C112.891 300.536 113.168 300.429 113.392 300.216C113.616 300.003 113.728 299.72 113.728 299.368V298.152ZM113.888 302.888C113.888 302.536 113.781 302.259 113.568 302.056C113.355 301.843 113.072 301.736 112.72 301.736H110.752V305.8H112.704C113.109 305.8 113.408 305.709 113.6 305.528C113.792 305.336 113.888 305.037 113.888 304.632V302.888ZM122.993 307C122.854 307 122.699 306.957 122.529 306.872C122.369 306.787 122.23 306.669 122.113 306.52C121.867 306.84 121.542 307 121.137 307H119.713C118.902 307 118.31 306.84 117.937 306.52C117.574 306.189 117.393 305.629 117.393 304.84V304.52C117.393 302.867 118.171 302.04 119.729 302.04H121.713V301.24C121.713 300.909 121.611 300.653 121.409 300.472C121.206 300.291 120.907 300.2 120.513 300.2H118.033V299H120.353C121.281 299 121.963 299.203 122.401 299.608C122.849 300.013 123.073 300.664 123.073 301.56V305.4C123.073 305.56 123.131 305.683 123.249 305.768C123.377 305.843 123.585 305.88 123.873 305.88V307H122.993ZM120.977 305.8C121.297 305.8 121.499 305.725 121.585 305.576C121.67 305.427 121.713 305.235 121.713 305V303.24H119.713C119.435 303.24 119.206 303.331 119.025 303.512C118.843 303.693 118.753 303.923 118.753 304.2V305C118.753 305.277 118.817 305.48 118.945 305.608C119.073 305.736 119.275 305.8 119.553 305.8H120.977ZM131.393 305C131.393 305.672 131.185 306.173 130.769 306.504C130.364 306.835 129.772 307 128.993 307H126.609V305.8H129.153C129.441 305.8 129.66 305.741 129.809 305.624C129.959 305.496 130.033 305.315 130.033 305.08V304.232C130.033 303.752 129.804 303.512 129.345 303.512H128.753C128.007 303.512 127.447 303.352 127.073 303.032C126.711 302.701 126.529 302.184 126.529 301.48V301.016C126.529 300.301 126.732 299.789 127.137 299.48C127.543 299.16 128.14 299 128.929 299H131.073V300.2H128.769C128.503 300.2 128.289 300.264 128.129 300.392C127.969 300.509 127.889 300.685 127.889 300.92V301.496C127.889 301.741 127.959 301.923 128.097 302.04C128.247 302.157 128.433 302.216 128.657 302.216H129.201C129.916 302.216 130.46 302.392 130.833 302.744C131.207 303.085 131.393 303.597 131.393 304.28V305ZM138.034 295.8V297.24H136.514V295.8H138.034ZM134.242 300.2V299H137.954V305.8H140.322V307H136.594V300.2H134.242ZM145.923 307C144.984 307 144.296 306.803 143.859 306.408C143.421 306.003 143.203 305.347 143.203 304.44V301.56C143.203 300.664 143.421 300.013 143.859 299.608C144.307 299.203 144.995 299 145.923 299H147.987V300.2H145.763C145.368 300.2 145.069 300.291 144.867 300.472C144.664 300.653 144.563 300.909 144.563 301.24V304.76C144.563 305.091 144.664 305.347 144.867 305.528C145.069 305.709 145.368 305.8 145.763 305.8H147.987V307H145.923ZM163.924 306.632C163.572 306.877 163.145 307 162.644 307H161.988C161.049 307 160.361 306.803 159.924 306.408C159.486 306.003 159.268 305.347 159.268 304.44V301.56C159.268 300.664 159.486 300.013 159.924 299.608C160.372 299.203 161.06 299 161.988 299H163.844V295.8H165.204V307H163.924V306.632ZM162.804 305.8C163.156 305.8 163.417 305.709 163.588 305.528C163.758 305.336 163.844 305.133 163.844 304.92V300.2H161.828C161.433 300.2 161.134 300.291 160.932 300.472C160.729 300.653 160.628 300.909 160.628 301.24V304.76C160.628 305.091 160.729 305.347 160.932 305.528C161.134 305.709 161.433 305.8 161.828 305.8H162.804ZM170.468 307C169.53 307 168.842 306.803 168.404 306.408C167.967 306.003 167.748 305.347 167.748 304.44V301.56C167.748 300.643 167.946 299.987 168.34 299.592C168.735 299.197 169.391 299 170.308 299H171.06C171.818 299 172.388 299.213 172.772 299.64C173.167 300.056 173.364 300.669 173.364 301.48V303.56H169.108V304.76C169.108 305.091 169.21 305.347 169.412 305.528C169.615 305.709 169.914 305.8 170.308 305.8H172.852V307H170.468ZM172.036 301.16C172.036 300.883 171.946 300.653 171.764 300.472C171.583 300.291 171.354 300.2 171.076 300.2H170.148C169.764 300.2 169.492 300.291 169.332 300.472C169.183 300.643 169.108 300.899 169.108 301.24V302.36H172.036V301.16ZM179.205 307C178.266 307 177.578 306.803 177.141 306.408C176.704 306.003 176.485 305.347 176.485 304.44V301.56C176.485 300.664 176.704 300.013 177.141 299.608C177.589 299.203 178.277 299 179.205 299H181.269V300.2H179.045C178.65 300.2 178.352 300.291 178.149 300.472C177.946 300.653 177.845 300.909 177.845 301.24V304.76C177.845 305.091 177.946 305.347 178.149 305.528C178.352 305.709 178.65 305.8 179.045 305.8H181.269V307H179.205ZM187.958 295.8V297.24H186.438V295.8H187.958ZM184.166 300.2V299H187.878V305.8H190.246V307H186.518V300.2H184.166ZM197.958 305C197.958 305.672 197.75 306.173 197.334 306.504C196.929 306.835 196.337 307 195.558 307H193.174V305.8H195.718C196.006 305.8 196.225 305.741 196.374 305.624C196.524 305.496 196.598 305.315 196.598 305.08V304.232C196.598 303.752 196.369 303.512 195.91 303.512H195.318C194.572 303.512 194.012 303.352 193.638 303.032C193.276 302.701 193.094 302.184 193.094 301.48V301.016C193.094 300.301 193.297 299.789 193.702 299.48C194.108 299.16 194.705 299 195.494 299H197.638V300.2H195.334C195.068 300.2 194.854 300.264 194.694 300.392C194.534 300.509 194.454 300.685 194.454 300.92V301.496C194.454 301.741 194.524 301.923 194.662 302.04C194.812 302.157 194.998 302.216 195.222 302.216H195.766C196.481 302.216 197.025 302.392 197.398 302.744C197.772 303.085 197.958 303.597 197.958 304.28V305ZM204.599 295.8V297.24H203.079V295.8H204.599ZM200.807 300.2V299H204.519V305.8H206.887V307H203.159V300.2H200.807ZM215.144 304.44C215.144 305.336 214.92 305.987 214.472 306.392C214.034 306.797 213.352 307 212.424 307H211.896C210.968 307 210.28 306.797 209.832 306.392C209.394 305.987 209.176 305.336 209.176 304.44V301.56C209.176 300.664 209.394 300.013 209.832 299.608C210.28 299.203 210.968 299 211.896 299H212.424C213.352 299 214.034 299.203 214.472 299.608C214.92 300.013 215.144 300.664 215.144 301.56V304.44ZM213.784 301.24C213.784 300.909 213.682 300.653 213.48 300.472C213.277 300.291 212.978 300.2 212.584 300.2H211.736C211.341 300.2 211.042 300.291 210.84 300.472C210.637 300.653 210.536 300.909 210.536 301.24V304.76C210.536 305.091 210.637 305.347 210.84 305.528C211.042 305.709 211.341 305.8 211.736 305.8H212.584C212.978 305.8 213.277 305.709 213.48 305.528C213.682 305.347 213.784 305.091 213.784 304.76V301.24ZM218.84 299V299.384C219.171 299.128 219.597 299 220.12 299H220.856C221.72 299 222.36 299.203 222.776 299.608C223.203 300.013 223.416 300.664 223.416 301.56V307H222.056V301.24C222.056 300.92 221.96 300.669 221.768 300.488C221.587 300.296 221.336 300.2 221.016 300.2H219.96C219.608 300.2 219.347 300.296 219.176 300.488C219.005 300.669 218.92 300.867 218.92 301.08V307H217.56V299H218.84ZM239.481 307C239.343 307 239.188 306.957 239.017 306.872C238.857 306.787 238.719 306.669 238.601 306.52C238.356 306.84 238.031 307 237.625 307H236.201C235.391 307 234.799 306.84 234.425 306.52C234.063 306.189 233.881 305.629 233.881 304.84V304.52C233.881 302.867 234.66 302.04 236.217 302.04H238.201V301.24C238.201 300.909 238.1 300.653 237.897 300.472C237.695 300.291 237.396 300.2 237.001 300.2H234.521V299H236.841C237.769 299 238.452 299.203 238.889 299.608C239.337 300.013 239.561 300.664 239.561 301.56V305.4C239.561 305.56 239.62 305.683 239.737 305.768C239.865 305.843 240.073 305.88 240.361 305.88V307H239.481ZM237.465 305.8C237.785 305.8 237.988 305.725 238.073 305.576C238.159 305.427 238.201 305.235 238.201 305V303.24H236.201C235.924 303.24 235.695 303.331 235.513 303.512C235.332 303.693 235.241 303.923 235.241 304.2V305C235.241 305.277 235.305 305.48 235.433 305.608C235.561 305.736 235.764 305.8 236.041 305.8H237.465ZM243.802 299V299.384C244.133 299.128 244.559 299 245.082 299H245.818C246.682 299 247.322 299.203 247.738 299.608C248.165 300.013 248.378 300.664 248.378 301.56V307H247.018V301.24C247.018 300.92 246.922 300.669 246.73 300.488C246.549 300.296 246.298 300.2 245.978 300.2H244.922C244.57 300.2 244.309 300.296 244.138 300.488C243.967 300.669 243.882 300.867 243.882 301.08V307H242.522V299H243.802ZM256.123 307C255.984 307 255.829 306.957 255.659 306.872C255.499 306.787 255.36 306.669 255.243 306.52C254.997 306.84 254.672 307 254.267 307H252.843C252.032 307 251.44 306.84 251.067 306.52C250.704 306.189 250.523 305.629 250.523 304.84V304.52C250.523 302.867 251.301 302.04 252.859 302.04H254.843V301.24C254.843 300.909 254.741 300.653 254.539 300.472C254.336 300.291 254.037 300.2 253.643 300.2H251.163V299H253.483C254.411 299 255.093 299.203 255.531 299.608C255.979 300.013 256.203 300.664 256.203 301.56V305.4C256.203 305.56 256.261 305.683 256.379 305.768C256.507 305.843 256.715 305.88 257.003 305.88V307H256.123ZM254.107 305.8C254.427 305.8 254.629 305.725 254.715 305.576C254.8 305.427 254.843 305.235 254.843 305V303.24H252.843C252.565 303.24 252.336 303.331 252.155 303.512C251.973 303.693 251.883 303.923 251.883 304.2V305C251.883 305.277 251.947 305.48 252.075 305.608C252.203 305.736 252.405 305.8 252.683 305.8H254.107ZM262.603 307C262.241 307 261.921 306.872 261.643 306.616C261.377 306.36 261.243 305.955 261.243 305.4V297H258.891V295.8H262.603V305.32C262.603 305.491 262.646 305.613 262.731 305.688C262.817 305.763 262.961 305.8 263.163 305.8H265.291V307H262.603ZM268.972 308.52C269.228 308.52 269.42 308.472 269.548 308.376C269.676 308.28 269.772 308.115 269.836 307.88L270.06 307H269.74L267.1 299H268.572L270.572 305.704L272.316 299H273.708L271.228 307.864C271.089 308.408 270.919 308.813 270.716 309.08C270.513 309.347 270.284 309.517 270.028 309.592C269.783 309.677 269.463 309.72 269.068 309.72H268.3V308.52H268.972ZM279.325 307C278.781 307 278.365 306.824 278.077 306.472C277.789 306.12 277.645 305.656 277.645 305.08V300.2H276.125V299H277.645V297.08H279.005V299H281.341V300.2H279.005V305.16C279.005 305.395 279.063 305.56 279.181 305.656C279.298 305.752 279.479 305.8 279.725 305.8H281.341V307H279.325ZM287.805 295.8V297.24H286.285V295.8H287.805ZM284.013 300.2V299H287.725V305.8H290.093V307H286.365V300.2H284.013ZM295.694 307C294.755 307 294.067 306.803 293.63 306.408C293.192 306.003 292.974 305.347 292.974 304.44V301.56C292.974 300.664 293.192 300.013 293.63 299.608C294.078 299.203 294.766 299 295.694 299H297.758V300.2H295.534C295.139 300.2 294.84 300.291 294.638 300.472C294.435 300.653 294.334 300.909 294.334 301.24V304.76C294.334 305.091 294.435 305.347 294.638 305.528C294.84 305.709 295.139 305.8 295.534 305.8H297.758V307H295.694ZM306.126 305C306.126 305.672 305.918 306.173 305.502 306.504C305.097 306.835 304.505 307 303.726 307H301.342V305.8H303.886C304.174 305.8 304.393 305.741 304.542 305.624C304.692 305.496 304.766 305.315 304.766 305.08V304.232C304.766 303.752 304.537 303.512 304.078 303.512H303.486C302.74 303.512 302.18 303.352 301.806 303.032C301.444 302.701 301.262 302.184 301.262 301.48V301.016C301.262 300.301 301.465 299.789 301.87 299.48C302.276 299.16 302.873 299 303.662 299H305.806V300.2H303.502C303.236 300.2 303.022 300.264 302.862 300.392C302.702 300.509 302.622 300.685 302.622 300.92V301.496C302.622 301.741 302.692 301.923 302.83 302.04C302.98 302.157 303.166 302.216 303.39 302.216H303.934C304.649 302.216 305.193 302.392 305.566 302.744C305.94 303.085 306.126 303.597 306.126 304.28V305Z" fill="white"/>
<g filter="url(#filter4_df_171_13424)">
<path d="M98 349.991C93.2924 350.419 90.5877 350.813 88.9272 352.113C86.9757 353.635 86.5136 356.423 86 362C85.4693 356.218 84.99 353.447 82.8502 351.959C81.1897 350.795 78.5021 350.419 74 350.009C78.6904 349.581 81.4123 349.187 83.0556 347.904C85.0243 346.365 85.4864 343.594 86 338C86.4793 343.149 86.9073 345.903 88.4993 347.494C90.0913 349.085 92.8645 349.53 98 349.991Z" fill="white"/>
</g>
<path d="M111.616 341.832V332.968H110.176V331.8H114.448V332.968H113.008V341.832H114.448V343H110.176V341.832H111.616ZM118.993 335V335.384C119.323 335.128 119.75 335 120.273 335H121.009C121.873 335 122.513 335.203 122.929 335.608C123.355 336.013 123.569 336.664 123.569 337.56V343H122.209V337.24C122.209 336.92 122.113 336.669 121.921 336.488C121.739 336.296 121.489 336.2 121.169 336.2H120.113C119.761 336.2 119.499 336.296 119.329 336.488C119.158 336.669 119.073 336.867 119.073 337.08V343H117.713V335H118.993ZM130.641 342.632C130.289 342.877 129.863 343 129.361 343H128.705C127.767 343 127.079 342.803 126.641 342.408C126.204 342.003 125.985 341.347 125.985 340.44V337.56C125.985 336.664 126.204 336.013 126.641 335.608C127.089 335.203 127.777 335 128.705 335H130.561V331.8H131.921V343H130.641V342.632ZM129.521 341.8C129.873 341.8 130.135 341.709 130.305 341.528C130.476 341.336 130.561 341.133 130.561 340.92V336.2H128.545C128.151 336.2 127.852 336.291 127.649 336.472C127.447 336.653 127.345 336.909 127.345 337.24V340.76C127.345 341.091 127.447 341.347 127.649 341.528C127.852 341.709 128.151 341.8 128.545 341.8H129.521ZM138.034 331.8V333.24H136.514V331.8H138.034ZM134.242 336.2V335H137.954V341.8H140.322V343H136.594V336.2H134.242ZM142.307 335H143.779L145.651 341.896L147.475 335H148.899L146.595 343H144.627L142.307 335ZM154.675 331.8V333.24H153.155V331.8H154.675ZM150.883 336.2V335H154.595V341.8H156.963V343H153.235V336.2H150.883ZM163.924 342.632C163.572 342.877 163.145 343 162.644 343H161.988C161.049 343 160.361 342.803 159.924 342.408C159.486 342.003 159.268 341.347 159.268 340.44V337.56C159.268 336.664 159.486 336.013 159.924 335.608C160.372 335.203 161.06 335 161.988 335H163.844V331.8H165.204V343H163.924V342.632ZM162.804 341.8C163.156 341.8 163.417 341.709 163.588 341.528C163.758 341.336 163.844 341.133 163.844 340.92V336.2H161.828C161.433 336.2 161.134 336.291 160.932 336.472C160.729 336.653 160.628 336.909 160.628 337.24V340.76C160.628 341.091 160.729 341.347 160.932 341.528C161.134 341.709 161.433 341.8 161.828 341.8H162.804ZM172.116 342.632C171.764 342.877 171.338 343 170.836 343H170.292C169.428 343 168.783 342.797 168.356 342.392C167.94 341.987 167.732 341.336 167.732 340.44V335H169.092V340.76C169.092 341.08 169.183 341.336 169.364 341.528C169.556 341.709 169.812 341.8 170.132 341.8H170.996C171.338 341.8 171.588 341.715 171.748 341.544C171.919 341.373 172.015 341.181 172.036 340.968V335H173.396V343H172.116V342.632ZM181.237 343C181.098 343 180.944 342.957 180.773 342.872C180.613 342.787 180.474 342.669 180.357 342.52C180.112 342.84 179.786 343 179.381 343H177.957C177.146 343 176.554 342.84 176.181 342.52C175.818 342.189 175.637 341.629 175.637 340.84V340.52C175.637 338.867 176.416 338.04 177.973 338.04H179.957V337.24C179.957 336.909 179.856 336.653 179.653 336.472C179.45 336.291 179.152 336.2 178.757 336.2H176.277V335H178.597C179.525 335 180.208 335.203 180.645 335.608C181.093 336.013 181.317 336.664 181.317 337.56V341.4C181.317 341.56 181.376 341.683 181.493 341.768C181.621 341.843 181.829 341.88 182.117 341.88V343H181.237ZM179.221 341.8C179.541 341.8 179.744 341.725 179.829 341.576C179.914 341.427 179.957 341.235 179.957 341V339.24H177.957C177.68 339.24 177.45 339.331 177.269 339.512C177.088 339.693 176.997 339.923 176.997 340.2V341C176.997 341.277 177.061 341.48 177.189 341.608C177.317 341.736 177.52 341.8 177.797 341.8H179.221ZM187.718 343C187.355 343 187.035 342.872 186.758 342.616C186.491 342.36 186.358 341.955 186.358 341.4V333H184.006V331.8H187.718V341.32C187.718 341.491 187.76 341.613 187.846 341.688C187.931 341.763 188.075 341.8 188.278 341.8H190.406V343H187.718ZM202.199 335V335.384C202.53 335.128 202.956 335 203.479 335H204.055C204.994 335 205.682 335.203 206.119 335.608C206.556 336.003 206.775 336.653 206.775 337.56V340.44C206.775 341.336 206.551 341.987 206.103 342.392C205.666 342.797 204.983 343 204.055 343H202.279V345.72H200.919V335H202.199ZM203.319 336.2C202.967 336.2 202.706 336.296 202.535 336.488C202.364 336.669 202.279 336.867 202.279 337.08V341.8H204.215C204.61 341.8 204.908 341.709 205.111 341.528C205.314 341.347 205.415 341.091 205.415 340.76V337.24C205.415 336.909 205.314 336.653 205.111 336.472C204.908 336.291 204.61 336.2 204.215 336.2H203.319ZM210.616 341.8V336.2H209.448V335H211.896V335.432C212.248 335.144 212.674 335 213.176 335H214.824V336.28H213.016C212.674 336.28 212.418 336.392 212.248 336.616C212.077 336.829 211.986 337.048 211.976 337.272V341.8H213.72V343H209.448V341.8H210.616ZM223.464 340.44C223.464 341.336 223.24 341.987 222.792 342.392C222.355 342.797 221.672 343 220.744 343H220.216C219.288 343 218.6 342.797 218.152 342.392C217.715 341.987 217.496 341.336 217.496 340.44V337.56C217.496 336.664 217.715 336.013 218.152 335.608C218.6 335.203 219.288 335 220.216 335H220.744C221.672 335 222.355 335.203 222.792 335.608C223.24 336.013 223.464 336.664 223.464 337.56V340.44ZM222.104 337.24C222.104 336.909 222.003 336.653 221.8 336.472C221.597 336.291 221.299 336.2 220.904 336.2H220.056C219.661 336.2 219.363 336.291 219.16 336.472C218.957 336.653 218.856 336.909 218.856 337.24V340.76C218.856 341.091 218.957 341.347 219.16 341.528C219.363 341.709 219.661 341.8 220.056 341.8H220.904C221.299 341.8 221.597 341.709 221.8 341.528C222.003 341.347 222.104 341.091 222.104 340.76V337.24ZM231.961 343.56C231.961 344.285 231.742 344.824 231.305 345.176C230.878 345.539 230.206 345.72 229.289 345.72H225.961V344.52H229.449C229.833 344.52 230.121 344.445 230.313 344.296C230.505 344.147 230.601 343.955 230.601 343.72V343.208C230.601 342.963 230.505 342.771 230.313 342.632C230.121 342.483 229.833 342.408 229.449 342.408H226.681V340.2C226.329 340.008 226.067 339.731 225.897 339.368C225.726 339.005 225.641 338.536 225.641 337.96V337.56C225.641 336.664 225.859 336.013 226.297 335.608C226.745 335.203 227.433 335 228.361 335H231.721V337.96C231.721 338.76 231.502 339.389 231.065 339.848C230.627 340.296 230.046 340.52 229.321 340.52H228.041V341.208H229.289C230.206 341.208 230.878 341.389 231.305 341.752C231.742 342.104 231.961 342.643 231.961 343.368V343.56ZM229.321 339.32C229.651 339.32 229.902 339.213 230.073 339C230.243 338.787 230.339 338.563 230.361 338.328V336.2H228.201C227.806 336.2 227.507 336.291 227.305 336.472C227.102 336.653 227.001 336.909 227.001 337.24V338.28C227.001 338.611 227.102 338.867 227.305 339.048C227.507 339.229 227.806 339.32 228.201 339.32H229.321ZM235.577 341.8V336.2H234.409V335H236.857V335.432C237.209 335.144 237.636 335 238.137 335H239.785V336.28H237.977C237.636 336.28 237.38 336.392 237.209 336.616C237.039 336.829 236.948 337.048 236.937 337.272V341.8H238.681V343H234.409V341.8H235.577ZM245.354 343C244.415 343 243.727 342.803 243.29 342.408C242.853 342.003 242.634 341.347 242.634 340.44V337.56C242.634 336.643 242.831 335.987 243.226 335.592C243.621 335.197 244.277 335 245.194 335H245.946C246.703 335 247.274 335.213 247.658 335.64C248.053 336.056 248.25 336.669 248.25 337.48V339.56H243.994V340.76C243.994 341.091 244.095 341.347 244.298 341.528C244.501 341.709 244.799 341.8 245.194 341.8H247.738V343H245.354ZM246.922 337.16C246.922 336.883 246.831 336.653 246.65 336.472C246.469 336.291 246.239 336.2 245.962 336.2H245.034C244.65 336.2 244.378 336.291 244.218 336.472C244.069 336.643 243.994 336.899 243.994 337.24V338.36H246.922V337.16ZM256.203 341C256.203 341.672 255.995 342.173 255.579 342.504C255.173 342.835 254.581 343 253.803 343H251.419V341.8H253.963C254.251 341.8 254.469 341.741 254.619 341.624C254.768 341.496 254.843 341.315 254.843 341.08V340.232C254.843 339.752 254.613 339.512 254.155 339.512H253.563C252.816 339.512 252.256 339.352 251.883 339.032C251.52 338.701 251.339 338.184 251.339 337.48V337.016C251.339 336.301 251.541 335.789 251.947 335.48C252.352 335.16 252.949 335 253.739 335H255.883V336.2H253.579C253.312 336.2 253.099 336.264 252.939 336.392C252.779 336.509 252.699 336.685 252.699 336.92V337.496C252.699 337.741 252.768 337.923 252.907 338.04C253.056 338.157 253.243 338.216 253.467 338.216H254.011C254.725 338.216 255.269 338.392 255.643 338.744C256.016 339.085 256.203 339.597 256.203 340.28V341ZM264.523 341C264.523 341.672 264.315 342.173 263.899 342.504C263.494 342.835 262.902 343 262.123 343H259.739V341.8H262.283C262.571 341.8 262.79 341.741 262.939 341.624C263.089 341.496 263.163 341.315 263.163 341.08V340.232C263.163 339.752 262.934 339.512 262.475 339.512H261.883C261.137 339.512 260.577 339.352 260.203 339.032C259.841 338.701 259.659 338.184 259.659 337.48V337.016C259.659 336.301 259.862 335.789 260.267 335.48C260.673 335.16 261.27 335 262.059 335H264.203V336.2H261.899C261.633 336.2 261.419 336.264 261.259 336.392C261.099 336.509 261.019 336.685 261.019 336.92V337.496C261.019 337.741 261.089 337.923 261.227 338.04C261.377 338.157 261.563 338.216 261.787 338.216H262.331C263.046 338.216 263.59 338.392 263.963 338.744C264.337 339.085 264.523 339.597 264.523 340.28V341ZM279.325 343C278.781 343 278.365 342.824 278.077 342.472C277.789 342.12 277.645 341.656 277.645 341.08V336.2H276.125V335H277.645V333.08H279.005V335H281.341V336.2H279.005V341.16C279.005 341.395 279.063 341.56 279.181 341.656C279.298 341.752 279.479 341.8 279.725 341.8H281.341V343H279.325ZM285.501 341.8V336.2H284.333V335H286.781V335.432C287.133 335.144 287.56 335 288.061 335H289.709V336.28H287.901C287.56 336.28 287.304 336.392 287.133 336.616C286.962 336.829 286.872 337.048 286.861 337.272V341.8H288.605V343H284.333V341.8H285.501ZM297.726 343C297.587 343 297.432 342.957 297.262 342.872C297.102 342.787 296.963 342.669 296.846 342.52C296.6 342.84 296.275 343 295.87 343H294.446C293.635 343 293.043 342.84 292.67 342.52C292.307 342.189 292.126 341.629 292.126 340.84V340.52C292.126 338.867 292.904 338.04 294.462 338.04H296.446V337.24C296.446 336.909 296.344 336.653 296.142 336.472C295.939 336.291 295.64 336.2 295.246 336.2H292.766V335H295.086C296.014 335 296.696 335.203 297.134 335.608C297.582 336.013 297.806 336.664 297.806 337.56V341.4C297.806 341.56 297.864 341.683 297.982 341.768C298.11 341.843 298.318 341.88 298.606 341.88V343H297.726ZM295.71 341.8C296.03 341.8 296.232 341.725 296.318 341.576C296.403 341.427 296.446 341.235 296.446 341V339.24H294.446C294.168 339.24 293.939 339.331 293.758 339.512C293.576 339.693 293.486 339.923 293.486 340.2V341C293.486 341.277 293.55 341.48 293.678 341.608C293.806 341.736 294.008 341.8 294.286 341.8H295.71ZM304.014 343C303.076 343 302.388 342.803 301.95 342.408C301.513 342.003 301.294 341.347 301.294 340.44V337.56C301.294 336.664 301.513 336.013 301.95 335.608C302.398 335.203 303.086 335 304.014 335H306.078V336.2H303.854C303.46 336.2 303.161 336.291 302.958 336.472C302.756 336.653 302.654 336.909 302.654 337.24V340.76C302.654 341.091 302.756 341.347 302.958 341.528C303.161 341.709 303.46 341.8 303.854 341.8H306.078V343H304.014ZM310.591 339.576V343H309.231V331.8H310.591V337.848L313.103 335H314.815L312.031 338.152L315.039 343H313.359L311.007 339.096L310.591 339.576ZM321.088 331.8V333.24H319.568V331.8H321.088ZM317.296 336.2V335H321.008V341.8H323.376V343H319.648V336.2H317.296ZM327.008 335V335.384C327.339 335.128 327.766 335 328.288 335H329.024C329.888 335 330.528 335.203 330.944 335.608C331.371 336.013 331.584 336.664 331.584 337.56V343H330.224V337.24C330.224 336.92 330.128 336.669 329.936 336.488C329.755 336.296 329.504 336.2 329.184 336.2H328.128C327.776 336.2 327.515 336.296 327.344 336.488C327.174 336.669 327.088 336.867 327.088 337.08V343H325.728V335H327.008ZM340.129 343.56C340.129 344.285 339.91 344.824 339.473 345.176C339.046 345.539 338.374 345.72 337.457 345.72H334.129V344.52H337.617C338.001 344.52 338.289 344.445 338.481 344.296C338.673 344.147 338.769 343.955 338.769 343.72V343.208C338.769 342.963 338.673 342.771 338.481 342.632C338.289 342.483 338.001 342.408 337.617 342.408H334.849V340.2C334.497 340.008 334.236 339.731 334.065 339.368C333.894 339.005 333.809 338.536 333.809 337.96V337.56C333.809 336.664 334.028 336.013 334.465 335.608C334.913 335.203 335.601 335 336.529 335H339.889V337.96C339.889 338.76 339.67 339.389 339.233 339.848C338.796 340.296 338.214 340.52 337.489 340.52H336.209V341.208H337.457C338.374 341.208 339.046 341.389 339.473 341.752C339.91 342.104 340.129 342.643 340.129 343.368V343.56ZM337.489 339.32C337.82 339.32 338.07 339.213 338.241 339C338.412 338.787 338.508 338.563 338.529 338.328V336.2H336.369C335.974 336.2 335.676 336.291 335.473 336.472C335.27 336.653 335.169 336.909 335.169 337.24V338.28C335.169 338.611 335.27 338.867 335.473 339.048C335.676 339.229 335.974 339.32 336.369 339.32H337.489ZM114.672 367C114.533 367 114.379 366.957 114.208 366.872C114.048 366.787 113.909 366.669 113.792 366.52C113.547 366.84 113.221 367 112.816 367H111.392C110.581 367 109.989 366.84 109.616 366.52C109.253 366.189 109.072 365.629 109.072 364.84V364.52C109.072 362.867 109.851 362.04 111.408 362.04H113.392V361.24C113.392 360.909 113.291 360.653 113.088 360.472C112.885 360.291 112.587 360.2 112.192 360.2H109.712V359H112.032C112.96 359 113.643 359.203 114.08 359.608C114.528 360.013 114.752 360.664 114.752 361.56V365.4C114.752 365.56 114.811 365.683 114.928 365.768C115.056 365.843 115.264 365.88 115.552 365.88V367H114.672ZM112.656 365.8C112.976 365.8 113.179 365.725 113.264 365.576C113.349 365.427 113.392 365.235 113.392 365V363.24H111.392C111.115 363.24 110.885 363.331 110.704 363.512C110.523 363.693 110.432 363.923 110.432 364.2V365C110.432 365.277 110.496 365.48 110.624 365.608C110.752 365.736 110.955 365.8 111.232 365.8H112.656ZM118.993 359V359.384C119.323 359.128 119.75 359 120.273 359H121.009C121.873 359 122.513 359.203 122.929 359.608C123.355 360.013 123.569 360.664 123.569 361.56V367H122.209V361.24C122.209 360.92 122.113 360.669 121.921 360.488C121.739 360.296 121.489 360.2 121.169 360.2H120.113C119.761 360.2 119.499 360.296 119.329 360.488C119.158 360.669 119.073 360.867 119.073 361.08V367H117.713V359H118.993ZM130.641 366.632C130.289 366.877 129.863 367 129.361 367H128.705C127.767 367 127.079 366.803 126.641 366.408C126.204 366.003 125.985 365.347 125.985 364.44V361.56C125.985 360.664 126.204 360.013 126.641 359.608C127.089 359.203 127.777 359 128.705 359H130.561V355.8H131.921V367H130.641V366.632ZM129.521 365.8C129.873 365.8 130.135 365.709 130.305 365.528C130.476 365.336 130.561 365.133 130.561 364.92V360.2H128.545C128.151 360.2 127.852 360.291 127.649 360.472C127.447 360.653 127.345 360.909 127.345 361.24V364.76C127.345 365.091 127.447 365.347 127.649 365.528C127.852 365.709 128.151 365.8 128.545 365.8H129.521ZM144.051 365.8V360.2H142.883V359H145.331V359.432C145.683 359.144 146.109 359 146.611 359H148.259V360.28H146.451C146.109 360.28 145.853 360.392 145.683 360.616C145.512 360.829 145.421 361.048 145.411 361.272V365.8H147.155V367H142.883V365.8H144.051ZM153.827 367C152.888 367 152.2 366.803 151.763 366.408C151.326 366.003 151.107 365.347 151.107 364.44V361.56C151.107 360.643 151.304 359.987 151.699 359.592C152.094 359.197 152.75 359 153.667 359H154.419C155.176 359 155.747 359.213 156.131 359.64C156.526 360.056 156.723 360.669 156.723 361.48V363.56H152.467V364.76C152.467 365.091 152.568 365.347 152.771 365.528C152.974 365.709 153.272 365.8 153.667 365.8H156.211V367H153.827ZM155.395 361.16C155.395 360.883 155.304 360.653 155.123 360.472C154.942 360.291 154.712 360.2 154.435 360.2H153.507C153.123 360.2 152.851 360.291 152.691 360.472C152.542 360.643 152.467 360.899 152.467 361.24V362.36H155.395V361.16ZM160.596 359V359.384C160.926 359.128 161.353 359 161.876 359H162.452C163.39 359 164.078 359.203 164.516 359.608C164.953 360.003 165.172 360.653 165.172 361.56V364.44C165.172 365.336 164.948 365.987 164.5 366.392C164.062 366.797 163.38 367 162.452 367H160.676V369.72H159.316V359H160.596ZM161.716 360.2C161.364 360.2 161.102 360.296 160.932 360.488C160.761 360.669 160.676 360.867 160.676 361.08V365.8H162.612C163.006 365.8 163.305 365.709 163.508 365.528C163.71 365.347 163.812 365.091 163.812 364.76V361.24C163.812 360.909 163.71 360.653 163.508 360.472C163.305 360.291 163.006 360.2 162.612 360.2H161.716ZM173.54 364.44C173.54 365.336 173.316 365.987 172.868 366.392C172.431 366.797 171.748 367 170.82 367H170.292C169.364 367 168.676 366.797 168.228 366.392C167.791 365.987 167.572 365.336 167.572 364.44V361.56C167.572 360.664 167.791 360.013 168.228 359.608C168.676 359.203 169.364 359 170.292 359H170.82C171.748 359 172.431 359.203 172.868 359.608C173.316 360.013 173.54 360.664 173.54 361.56V364.44ZM172.18 361.24C172.18 360.909 172.079 360.653 171.876 360.472C171.674 360.291 171.375 360.2 170.98 360.2H170.132C169.738 360.2 169.439 360.291 169.236 360.472C169.034 360.653 168.932 360.909 168.932 361.24V364.76C168.932 365.091 169.034 365.347 169.236 365.528C169.439 365.709 169.738 365.8 170.132 365.8H170.98C171.375 365.8 171.674 365.709 171.876 365.528C172.079 365.347 172.18 365.091 172.18 364.76V361.24ZM177.333 365.8V360.2H176.165V359H178.613V359.432C178.965 359.144 179.392 359 179.893 359H181.541V360.28H179.733C179.392 360.28 179.136 360.392 178.965 360.616C178.794 360.829 178.704 361.048 178.693 361.272V365.8H180.437V367H176.165V365.8H177.333ZM187.798 367C187.254 367 186.838 366.824 186.55 366.472C186.262 366.12 186.118 365.656 186.118 365.08V360.2H184.598V359H186.118V357.08H187.478V359H189.814V360.2H187.478V365.16C187.478 365.395 187.536 365.56 187.654 365.656C187.771 365.752 187.952 365.8 188.198 365.8H189.814V367H187.798ZM197.958 365C197.958 365.672 197.75 366.173 197.334 366.504C196.929 366.835 196.337 367 195.558 367H193.174V365.8H195.718C196.006 365.8 196.225 365.741 196.374 365.624C196.524 365.496 196.598 365.315 196.598 365.08V364.232C196.598 363.752 196.369 363.512 195.91 363.512H195.318C194.572 363.512 194.012 363.352 193.638 363.032C193.276 362.701 193.094 362.184 193.094 361.48V361.016C193.094 360.301 193.297 359.789 193.702 359.48C194.108 359.16 194.705 359 195.494 359H197.638V360.2H195.334C195.068 360.2 194.854 360.264 194.694 360.392C194.534 360.509 194.454 360.685 194.454 360.92V361.496C194.454 361.741 194.524 361.923 194.662 362.04C194.812 362.157 194.998 362.216 195.222 362.216H195.766C196.481 362.216 197.025 362.392 197.398 362.744C197.772 363.085 197.958 363.597 197.958 364.28V365Z" fill="white"/>
<g filter="url(#filter5_df_171_13424)">
<path d="M98 397.991C93.2924 398.419 90.5877 398.813 88.9272 400.113C86.9757 401.635 86.5136 404.423 86 410C85.4693 404.218 84.99 401.447 82.8502 399.959C81.1897 398.795 78.5021 398.419 74 398.009C78.6904 397.581 81.4123 397.187 83.0556 395.904C85.0243 394.365 85.4864 391.594 86 386C86.4793 391.149 86.9073 393.903 88.4993 395.494C90.0913 397.085 92.8645 397.53 98 397.991Z" fill="white"/>
</g>
<path d="M114.992 391.8V392.968H111.04V396.632H114.592V397.8H111.04V401.832H114.992V403H109.648V391.8H114.992ZM118.209 395V395.368C118.486 395.123 118.817 395 119.201 395H119.297C120.043 395 120.571 395.213 120.881 395.64C121.233 395.213 121.697 395 122.273 395H122.369C123.019 395 123.499 395.165 123.809 395.496C124.118 395.827 124.273 396.413 124.273 397.256V403H122.993V397.24C122.993 396.803 122.945 396.499 122.849 396.328C122.763 396.157 122.561 396.072 122.241 396.072H122.145C121.825 396.072 121.601 396.184 121.473 396.408C121.355 396.621 121.291 396.861 121.281 397.128V403H120.001V397.24C120.001 396.792 119.947 396.488 119.841 396.328C119.734 396.157 119.542 396.072 119.265 396.072H119.169C118.849 396.072 118.625 396.168 118.497 396.36C118.369 396.541 118.299 396.749 118.289 396.984V403H117.009V395H118.209ZM131.313 403C131.175 403 131.02 402.957 130.849 402.872C130.689 402.787 130.551 402.669 130.433 402.52C130.188 402.84 129.863 403 129.457 403H128.033C127.223 403 126.631 402.84 126.257 402.52C125.895 402.189 125.713 401.629 125.713 400.84V400.52C125.713 398.867 126.492 398.04 128.049 398.04H130.033V397.24C130.033 396.909 129.932 396.653 129.729 396.472C129.527 396.291 129.228 396.2 128.833 396.2H126.353V395H128.673C129.601 395 130.284 395.203 130.721 395.608C131.169 396.013 131.393 396.664 131.393 397.56V401.4C131.393 401.56 131.452 401.683 131.569 401.768C131.697 401.843 131.905 401.88 132.193 401.88V403H131.313ZM129.297 401.8C129.617 401.8 129.82 401.725 129.905 401.576C129.991 401.427 130.033 401.235 130.033 401V399.24H128.033C127.756 399.24 127.527 399.331 127.345 399.512C127.164 399.693 127.073 399.923 127.073 400.2V401C127.073 401.277 127.137 401.48 127.265 401.608C127.393 401.736 127.596 401.8 127.873 401.8H129.297ZM138.034 391.8V393.24H136.514V391.8H138.034ZM134.242 396.2V395H137.954V401.8H140.322V403H136.594V396.2H134.242ZM146.115 403C145.752 403 145.432 402.872 145.155 402.616C144.888 402.36 144.755 401.955 144.755 401.4V393H142.403V391.8H146.115V401.32C146.115 401.491 146.157 401.613 146.243 401.688C146.328 401.763 146.472 401.8 146.675 401.8H148.803V403H146.115ZM164.676 401C164.676 401.672 164.468 402.173 164.052 402.504C163.646 402.835 163.054 403 162.276 403H159.892V401.8H162.436C162.724 401.8 162.942 401.741 163.092 401.624C163.241 401.496 163.316 401.315 163.316 401.08V400.232C163.316 399.752 163.086 399.512 162.628 399.512H162.036C161.289 399.512 160.729 399.352 160.356 399.032C159.993 398.701 159.812 398.184 159.812 397.48V397.016C159.812 396.301 160.014 395.789 160.42 395.48C160.825 395.16 161.422 395 162.212 395H164.356V396.2H162.052C161.785 396.2 161.572 396.264 161.412 396.392C161.252 396.509 161.172 396.685 161.172 396.92V397.496C161.172 397.741 161.241 397.923 161.38 398.04C161.529 398.157 161.716 398.216 161.94 398.216H162.484C163.198 398.216 163.742 398.392 164.116 398.744C164.489 399.085 164.676 399.597 164.676 400.28V401ZM172.116 402.632C171.764 402.877 171.338 403 170.836 403H170.292C169.428 403 168.783 402.797 168.356 402.392C167.94 401.987 167.732 401.336 167.732 400.44V395H169.092V400.76C169.092 401.08 169.183 401.336 169.364 401.528C169.556 401.709 169.812 401.8 170.132 401.8H170.996C171.338 401.8 171.588 401.715 171.748 401.544C171.919 401.373 172.015 401.181 172.036 400.968V395H173.396V403H172.116V402.632ZM177.237 395V395.384C177.568 395.128 177.994 395 178.517 395H179.093C180.032 395 180.72 395.203 181.157 395.608C181.594 396.003 181.813 396.653 181.813 397.56V400.44C181.813 401.336 181.589 401.987 181.141 402.392C180.704 402.797 180.021 403 179.093 403H177.317V405.72H175.957V395H177.237ZM178.357 396.2C178.005 396.2 177.744 396.296 177.573 396.488C177.402 396.669 177.317 396.867 177.317 397.08V401.8H179.253C179.648 401.8 179.946 401.709 180.149 401.528C180.352 401.347 180.453 401.091 180.453 400.76V397.24C180.453 396.909 180.352 396.653 180.149 396.472C179.946 396.291 179.648 396.2 179.253 396.2H178.357ZM185.558 395V395.384C185.888 395.128 186.315 395 186.838 395H187.414C188.352 395 189.04 395.203 189.478 395.608C189.915 396.003 190.134 396.653 190.134 397.56V400.44C190.134 401.336 189.91 401.987 189.462 402.392C189.024 402.797 188.342 403 187.414 403H185.638V405.72H184.278V395H185.558ZM186.678 396.2C186.326 396.2 186.064 396.296 185.894 396.488C185.723 396.669 185.638 396.867 185.638 397.08V401.8H187.574C187.968 401.8 188.267 401.709 188.47 401.528C188.672 401.347 188.774 401.091 188.774 400.76V397.24C188.774 396.909 188.672 396.653 188.47 396.472C188.267 396.291 187.968 396.2 187.574 396.2H186.678ZM198.502 400.44C198.502 401.336 198.278 401.987 197.83 402.392C197.393 402.797 196.71 403 195.782 403H195.254C194.326 403 193.638 402.797 193.19 402.392C192.753 401.987 192.534 401.336 192.534 400.44V397.56C192.534 396.664 192.753 396.013 193.19 395.608C193.638 395.203 194.326 395 195.254 395H195.782C196.71 395 197.393 395.203 197.83 395.608C198.278 396.013 198.502 396.664 198.502 397.56V400.44ZM197.142 397.24C197.142 396.909 197.041 396.653 196.838 396.472C196.636 396.291 196.337 396.2 195.942 396.2H195.094C194.7 396.2 194.401 396.291 194.198 396.472C193.996 396.653 193.894 396.909 193.894 397.24V400.76C193.894 401.091 193.996 401.347 194.198 401.528C194.401 401.709 194.7 401.8 195.094 401.8H195.942C196.337 401.8 196.636 401.709 196.838 401.528C197.041 401.347 197.142 401.091 197.142 400.76V397.24ZM202.295 401.8V396.2H201.127V395H203.575V395.432C203.927 395.144 204.354 395 204.855 395H206.503V396.28H204.695C204.354 396.28 204.098 396.392 203.927 396.616C203.756 396.829 203.666 397.048 203.655 397.272V401.8H205.399V403H201.127V401.8H202.295ZM212.76 403C212.216 403 211.8 402.824 211.512 402.472C211.224 402.12 211.08 401.656 211.08 401.08V396.2H209.56V395H211.08V393.08H212.44V395H214.776V396.2H212.44V401.16C212.44 401.395 212.498 401.56 212.616 401.656C212.733 401.752 212.914 401.8 213.16 401.8H214.776V403H212.76Z" fill="white"/>
<path d="M42.52 217.69H40V184H73.69V186.52H42.52V217.69Z" fill="#CAE8F3" stroke="#1D1D1B" stroke-width="0.25" stroke-miterlimit="10"/>
<path d="M377.48 217.69H380V184H346.31V186.52H377.48V217.69Z" fill="#CAE8F3" stroke="#1D1D1B" stroke-width="0.25" stroke-miterlimit="10"/>
<path d="M377.48 506H380V539.69H346.31V537.17H377.48V506Z" fill="#CAE8F3" stroke="#1D1D1B" stroke-width="0.25" stroke-miterlimit="10"/>
<path d="M42.52 506H40V539.69H73.69V537.17H42.52V506Z" fill="#CAE8F3" stroke="#1D1D1B" stroke-width="0.25" stroke-miterlimit="10"/>
<rect x="278.5" y="0.5" width="161" height="63" fill="white"/>
<rect x="278.5" y="0.5" width="161" height="63" stroke="#66E0F8"/>
<path d="M327.735 35.26C327.735 36.5067 327.39 37.4453 326.701 38.076C326.026 38.692 325.051 39 323.775 39H320.651V37.328H323.995C324.538 37.328 324.978 37.1667 325.315 36.844C325.652 36.5213 325.821 36.1327 325.821 35.678V33.39C325.821 32.95 325.704 32.598 325.469 32.334C325.249 32.0553 324.912 31.916 324.457 31.916H323.797C322.712 31.916 321.854 31.6007 321.223 30.97C320.592 30.3247 320.277 29.3933 320.277 28.176V27.34C320.277 26.0933 320.614 25.162 321.289 24.546C321.978 23.9153 322.961 23.6 324.237 23.6H327.383V25.272H324.017C323.474 25.272 323.034 25.4333 322.697 25.756C322.36 26.0787 322.191 26.4673 322.191 26.922V28.594C322.191 29.0487 322.338 29.43 322.631 29.738C322.924 30.0313 323.306 30.178 323.775 30.178H324.435C325.476 30.178 326.283 30.4787 326.855 31.08C327.442 31.6813 327.735 32.5907 327.735 33.808V35.26ZM334.71 39V25.272H331.212V23.6H340.122V25.272H336.624V39H334.71ZM345.205 35.106L344.347 39H342.389L346.107 23.6H348.637L352.289 39H350.331L349.495 35.106H345.205ZM349.143 33.456L347.339 25.052L345.557 33.456H349.143ZM356.514 32.62V39H354.6V23.6H358.736C359.982 23.6 360.921 23.8787 361.552 24.436C362.197 24.9787 362.52 25.844 362.52 27.032V29.144C362.52 30.8013 361.86 31.8353 360.54 32.246L363.598 39H361.508L358.67 32.62H356.514ZM360.606 26.834C360.606 26.2767 360.474 25.8733 360.21 25.624C359.96 25.3747 359.557 25.25 359 25.25H356.514V30.97H359C359.557 30.97 359.96 30.8453 360.21 30.596C360.474 30.332 360.606 29.9213 360.606 29.364V26.834ZM369.692 39V25.272H366.194V23.6H375.104V25.272H371.606V39H369.692ZM385.995 23.6V25.206H380.561V30.244H385.445V31.85H380.561V37.394H385.995V39H378.647V23.6H385.995ZM391.496 32.62V39H389.582V23.6H393.718C394.965 23.6 395.903 23.8787 396.534 24.436C397.179 24.9787 397.502 25.844 397.502 27.032V29.144C397.502 30.8013 396.842 31.8353 395.522 32.246L398.58 39H396.49L393.652 32.62H391.496ZM395.588 26.834C395.588 26.2767 395.456 25.8733 395.192 25.624C394.943 25.3747 394.539 25.25 393.982 25.25H391.496V30.97H393.982C394.539 30.97 394.943 30.8453 395.192 30.596C395.456 30.332 395.588 29.9213 395.588 29.364V26.834Z" fill="#070708" fill-opacity="0.9"/>
<mask id="path-22-inside-2_171_13424" fill="white">
<path d="M310 688.405L288.406 710H110V671.933L131.933 650H310V688.405Z"/>
</mask>
<path d="M310 688.405L288.406 710H110V671.933L131.933 650H310V688.405Z" fill="white"/>
<path d="M310 688.405L310.707 689.112L311 688.819V688.405H310ZM288.406 710V711H288.82L289.113 710.707L288.406 710ZM110 710H109V711H110V710ZM110 671.933L109.293 671.226L109 671.518V671.933H110ZM131.933 650V649H131.518L131.226 649.293L131.933 650ZM310 650H311V649H310V650ZM310 688.405L309.293 687.698L287.699 709.293L288.406 710L289.113 710.707L310.707 689.112L310 688.405ZM288.406 710V709H110V710V711H288.406V710ZM110 710H111V671.933H110H109V710H110ZM110 671.933L110.707 672.64L132.64 650.707L131.933 650L131.226 649.293L109.293 671.226L110 671.933ZM131.933 650V651H310V650V649H131.933V650ZM310 650H309V688.405H310H311V650H310Z" fill="#66E0F8" mask="url(#path-22-inside-2_171_13424)"/>
<path d="M185.065 683.26C185.065 684.507 184.721 685.445 184.031 686.076C183.357 686.692 182.381 687 181.105 687H177.981V685.328H181.325C181.868 685.328 182.308 685.167 182.645 684.844C182.983 684.521 183.151 684.133 183.151 683.678V681.39C183.151 680.95 183.034 680.598 182.799 680.334C182.579 680.055 182.242 679.916 181.787 679.916H181.127C180.042 679.916 179.184 679.601 178.553 678.97C177.923 678.325 177.607 677.393 177.607 676.176V675.34C177.607 674.093 177.945 673.162 178.619 672.546C179.309 671.915 180.291 671.6 181.567 671.6H184.713V673.272H181.347C180.805 673.272 180.365 673.433 180.027 673.756C179.69 674.079 179.521 674.467 179.521 674.922V676.594C179.521 677.049 179.668 677.43 179.961 677.738C180.255 678.031 180.636 678.178 181.105 678.178H181.765C182.807 678.178 183.613 678.479 184.185 679.08C184.772 679.681 185.065 680.591 185.065 681.808V683.26ZM196.682 671.6V673.206H191.248V678.244H196.132V679.85H191.248V685.394H196.682V687H189.334V671.6H196.682ZM203.173 671.6V685.328H208.079V687H201.259V671.6H203.173ZM220.004 671.6V673.206H214.57V678.244H219.454V679.85H214.57V685.394H220.004V687H212.656V671.6H220.004ZM228.409 687C227.133 687 226.15 686.692 225.461 686.076C224.786 685.445 224.449 684.507 224.449 683.26V675.34C224.449 674.093 224.786 673.162 225.461 672.546C226.15 671.915 227.133 671.6 228.409 671.6H231.533V673.272H228.189C227.646 673.272 227.206 673.433 226.869 673.756C226.532 674.079 226.363 674.467 226.363 674.922V683.678C226.363 684.133 226.532 684.521 226.869 684.844C227.206 685.167 227.646 685.328 228.189 685.328H231.533V687H228.409ZM238.684 687V673.272H235.186V671.6H244.096V673.272H240.598V687H238.684Z" fill="#070708" fill-opacity="0.9"/>
<defs>
<filter id="filter1_df_171_13424" x="66" y="210" width="40" height="40" filterUnits="userSpaceOnUse" color-interpolation-filters="sRGB">
<feFlood flood-opacity="0" result="BackgroundImageFix"/>
<feColorMatrix in="SourceAlpha" type="matrix" values="0 0 0 0 0 0 0 0 0 0 0 0 0 0 0 0 0 0 127 0" result="hardAlpha"/>
<feOffset/>
<feGaussianBlur stdDeviation="4"/>
<feComposite in2="hardAlpha" operator="out"/>
<feColorMatrix type="matrix" values="0 0 0 0 1 0 0 0 0 0 0 0 0 0 0.0166667 0 0 0 1 0"/>
<feBlend mode="normal" in2="BackgroundImageFix" result="effect1_dropShadow_171_13424"/>
<feBlend mode="normal" in="SourceGraphic" in2="effect1_dropShadow_171_13424" result="shape"/>
<feGaussianBlur stdDeviation="1" result="effect2_foregroundBlur_171_13424"/>
</filter>
<filter id="filter2_df_171_13424" x="66" y="246" width="40" height="40" filterUnits="userSpaceOnUse" color-interpolation-filters="sRGB">
<feFlood flood-opacity="0" result="BackgroundImageFix"/>
<feColorMatrix in="SourceAlpha" type="matrix" values="0 0 0 0 0 0 0 0 0 0 0 0 0 0 0 0 0 0 127 0" result="hardAlpha"/>
<feOffset/>
<feGaussianBlur stdDeviation="4"/>
<feComposite in2="hardAlpha" operator="out"/>
<feColorMatrix type="matrix" values="0 0 0 0 1 0 0 0 0 0 0 0 0 0 0.0166667 0 0 0 1 0"/>
<feBlend mode="normal" in2="BackgroundImageFix" result="effect1_dropShadow_171_13424"/>
<feBlend mode="normal" in="SourceGraphic" in2="effect1_dropShadow_171_13424" result="shape"/>
<feGaussianBlur stdDeviation="1" result="effect2_foregroundBlur_171_13424"/>
</filter>
<filter id="filter3_df_171_13424" x="66" y="282" width="40" height="40" filterUnits="userSpaceOnUse" color-interpolation-filters="sRGB">
<feFlood flood-opacity="0" result="BackgroundImageFix"/>
<feColorMatrix in="SourceAlpha" type="matrix" values="0 0 0 0 0 0 0 0 0 0 0 0 0 0 0 0 0 0 127 0" result="hardAlpha"/>
<feOffset/>
<feGaussianBlur stdDeviation="4"/>
<feComposite in2="hardAlpha" operator="out"/>
<feColorMatrix type="matrix" values="0 0 0 0 1 0 0 0 0 0 0 0 0 0 0.0166667 0 0 0 1 0"/>
<feBlend mode="normal" in2="BackgroundImageFix" result="effect1_dropShadow_171_13424"/>
<feBlend mode="normal" in="SourceGraphic" in2="effect1_dropShadow_171_13424" result="shape"/>
<feGaussianBlur stdDeviation="1" result="effect2_foregroundBlur_171_13424"/>
</filter>
<filter id="filter4_df_171_13424" x="66" y="330" width="40" height="40" filterUnits="userSpaceOnUse" color-interpolation-filters="sRGB">
<feFlood flood-opacity="0" result="BackgroundImageFix"/>
<feColorMatrix in="SourceAlpha" type="matrix" values="0 0 0 0 0 0 0 0 0 0 0 0 0 0 0 0 0 0 127 0" result="hardAlpha"/>
<feOffset/>
<feGaussianBlur stdDeviation="4"/>
<feComposite in2="hardAlpha" operator="out"/>
<feColorMatrix type="matrix" values="0 0 0 0 1 0 0 0 0 0 0 0 0 0 0.0166667 0 0 0 1 0"/>
<feBlend mode="normal" in2="BackgroundImageFix" result="effect1_dropShadow_171_13424"/>
<feBlend mode="normal" in="SourceGraphic" in2="effect1_dropShadow_171_13424" result="shape"/>
<feGaussianBlur stdDeviation="1" result="effect2_foregroundBlur_171_13424"/>
</filter>
<filter id="filter5_df_171_13424" x="66" y="378" width="40" height="40" filterUnits="userSpaceOnUse" color-interpolation-filters="sRGB">
<feFlood flood-opacity="0" result="BackgroundImageFix"/>
<feColorMatrix in="SourceAlpha" type="matrix" values="0 0 0 0 0 0 0 0 0 0 0 0 0 0 0 0 0 0 127 0" result="hardAlpha"/>
<feOffset/>
<feGaussianBlur stdDeviation="4"/>
<feComposite in2="hardAlpha" operator="out"/>
<feColorMatrix type="matrix" values="0 0 0 0 1 0 0 0 0 0 0 0 0 0 0.0166667 0 0 0 1 0"/>
<feBlend mode="normal" in2="BackgroundImageFix" result="effect1_dropShadow_171_13424"/>
<feBlend mode="normal" in="SourceGraphic" in2="effect1_dropShadow_171_13424" result="shape"/>
<feGaussianBlur stdDeviation="1" result="effect2_foregroundBlur_171_13424"/>
</filter>
</defs>
</svg>
